<?xml version="1.0" standalone="no"?>
<!DOCTYPE svg PUBLIC "-//W3C//DTD SVG 1.1//EN" "http://www.w3.org/Graphics/SVG/1.1/DTD/svg11.dtd" >
<svg xmlns="http://www.w3.org/2000/svg" xmlns:xlink="http://www.w3.org/1999/xlink" version="1.1">
<metadata>
Created by FontForge 20201107 at Wed Apr 30 22:51:11 2025
 By 
Copyright: Uday Singh Nihung Singh and Tat Khalsa Organization
</metadata>
<defs>
<font id="RiyastiHastlikhat" horiz-adv-x="20" >
  <font-face 
    font-family="Riyasti"
    font-weight="400"
    font-stretch="normal"
    units-per-em="2000"
    panose-1="0 0 4 0 0 0 0 0 0 0"
    ascent="1600"
    descent="-400"
    x-height="1249"
    cap-height="1721"
    bbox="-1194.25 -1025 2734 2601.12"
    underline-thickness="100"
    underline-position="-650"
    unicode-range="U+0020-2039"
  />
<missing-glyph horiz-adv-x="1000" 
d="M125 0v1200h750v-1200h-750zM250 125h500v950h-500v-950z" />
    <glyph glyph-name=".notdef" horiz-adv-x="1000" 
d="M125 0v1200h750v-1200h-750zM250 125h500v950h-500v-950z" />
    <glyph glyph-name=".null" horiz-adv-x="0" 
 />
    <glyph glyph-name="nonmarkingreturn" horiz-adv-x="700" 
 />
    <glyph glyph-name="space" unicode=" " horiz-adv-x="700" 
 />
    <glyph glyph-name="exclam" unicode="!" horiz-adv-x="964" 
d="M618 346l-20 214q-38 407 -38 626v36q-2 48 -2 36q0 82 76 82q62 0 74 -50q2 -9 2 -104q0 -198 -40 -626l-20 -214h-32zM530 108q0 44 30 74t74 30t74 -30t30 -74t-30 -74t-74 -30t-74 30t-30 74z" />
    <glyph glyph-name="quotedbl" unicode="&#x22;" horiz-adv-x="860" 
d="M212 886q-72 380 -72 432q0 70 82 70q78 0 78 -70q0 -62 -72 -432h-16zM618 886q-72 380 -72 432q0 70 82 70q78 0 78 -70q0 -62 -72 -432h-16z" />
    <glyph glyph-name="numbersign" unicode="#" horiz-adv-x="1550" 
d="M1034 766l-82 -330h280v-106h-312l-72 -284h-104l72 284h-332l-72 -284h-106l72 284h-318v106h348l82 330h-280v106h306l74 288h108l-78 -288h336l74 288h106l-72 -288h316v-106h-346zM594 766l-82 -330h336l82 330h-336z" />
    <glyph glyph-name="dollar" unicode="$" horiz-adv-x="986" 
d="M412 1092v-432q83 -42 124 -64q67 -37 116 -76q117 -94 120 -200q5 -151 -105 -237q-96 -74 -255 -83v-134h-48v134q-244 16 -340 220l94 34q62 -140 246 -162v480q-39 17 -136 62q-105 50 -158 112q-62 72 -64 182q-2 122 123 195q99 58 235 67v122h48v-122
q158 -28 282 -182l-76 -60q-90 112 -206 144zM118 918q0 -106 138 -180q14 -6 108 -54v408q-246 -22 -246 -174zM412 90q131 8 192 56q66 52 66 166q0 74 -76 134q-51 40 -182 102v-458z" />
    <glyph glyph-name="percent" unicode="%" horiz-adv-x="1628" 
d="M734 1126q0 -121 -87.5 -206.5t-208.5 -85.5q-123 0 -210.5 85.5t-87.5 208.5q0 122 88 207t210 85t209 -86t87 -208zM228 1128q-1 -88 59.5 -152t148.5 -62t148 62t62 148t-58.5 151t-147.5 63q-88 0 -149.5 -61t-62.5 -149zM434 -28h-112l810 1416h94zM1478 362
q-1 -120 -89.5 -206t-208.5 -86q-122 0 -208 86t-86 208t87 208t209 86q121 0 209 -87.5t87 -208.5zM970 364q-1 -87 61 -149.5t149 -62.5t148 61.5t62 148.5q1 88 -59 149.5t-149 62.5q-87 1 -149 -61t-63 -149z" />
    <glyph glyph-name="ampersand" unicode="&#x26;" horiz-adv-x="1148" 
d="M1078 298q-11 -38 -72 -82.5t-137 -79.5q-75 -34 -152 -57t-119 -21q-55 2 -110 22q-55 19 -131.5 97.5t-109.5 123.5t-43 99q-9 48 6 113q1 6 27 71q25 65 53 101q36 46 41 52q25 25 46 43q22 19 52.5 38.5t54.5 32.5q25 14 60 30q35 17 61 27q25 11 63 27.5t63 27.5
q7 3 16 6l15 5t13 5t11 5q9 5 9 7q0 25 5 40q2 6 2 14t-2 18q-92 7 -168 4q-77 -3 -164.5 -8.5t-163.5 -9.5q-75 -5 -165 -1q-115 6 -190 20q-10 35 -10 60q0 46 8 62q9 16 24 26q16 11 36.5 21t44.5 12q25 1 70 -1l52 -4q41 -3 50 -3q24 0 45 1q151 0 175 -1q153 -5 208 -4
q162 2 327 3q218 2 225 1q22 -3 35 -13q10 -8 18 -35q4 -13 3 -30q0 -34 -5 -42q-4 -8 -9 -19q-6 -12 -9 -20l-5 -8q1 -3 -27 -5q-37 -3 -67 3q-18 3 -35 5q-33 -7 -65 -9q-27 -1 -32 -17q-25 -80 -42 -95q-49 -42 -70 -63q-59 -60 -75 -71q-94 -65 -125 -70q-8 -1 -93 -46
q-48 -25 -85 -50q-41 -27 -66 -55q-30 -33 -47 -67q-18 -34 -19 -63q-1 -30 12 -53q37 -67 86 -86q32 -12 81 -11q9 108 104 183q80 63 183 76q90 12 165 -42q101 -72 73 -203q-4 -18 -10 -37zM853 452l-90 -32l-88 -140l168 16l98 100zM99 192q23 7 54 8.5t62 -5.5t44 -25
q40 -96 -11 -143q-37 -33 -101 -26q-61 7 -96 45q-31 34 -23 80q10 23 28.5 41t42.5 25z" />
    <glyph glyph-name="quotesingle" unicode="'" horiz-adv-x="500" 
d="M232 886q-72 380 -72 432q0 70 82 70q78 0 78 -70q0 -62 -72 -432h-16z" />
    <glyph glyph-name="parenleft" unicode="(" horiz-adv-x="772" 
d="M262 612q0 -658 434 -914l-4 -14q-257 123 -418.5 375.5t-161.5 536.5q0 279 168 511q152 211 416 349l2 -14q-204 -141 -288 -262q-148 -213 -148 -568z" />
    <glyph glyph-name="parenright" unicode=")" horiz-adv-x="772" 
d="M80 1456q264 -138 416 -349q168 -232 168 -511q0 -284 -161.5 -536.5t-418.5 -375.5l-4 14q434 256 434 914q0 355 -148 568q-84 121 -288 262z" />
    <glyph glyph-name="asterisk" unicode="*" horiz-adv-x="802" 
d="M388 1048q-270 52 -270 130q0 42 42 42q70 0 228 -172zM402 1064q-50 144 -50 222q0 76 50 76q48 0 48 -76t-48 -222zM388 1028q-162 -172 -232 -172q-38 0 -38 42q0 78 270 130zM400 1012q50 -142 50 -218q0 -74 -48 -74q-50 0 -50 76t48 216zM414 1030
q272 -58 272 -134q0 -42 -42 -42q-70 0 -230 176zM414 1046q156 176 228 176q42 0 42 -42q0 -72 -270 -134z" />
    <glyph glyph-name="plus" unicode="+" horiz-adv-x="1242" 
d="M678 538v-418h-122v418h-418v122h418v418h122v-418h418v-122h-418z" />
    <glyph glyph-name="comma" unicode="," horiz-adv-x="700" 
d="M492 4q0 -99 -98 -202q-81 -86 -164 -124l-18 42q105 65 148 144q20 36 24 76q2 20 6 62q-17 19 -72 20q-74 1 -96 8q-47 15 -52 66q-5 55 36 88q37 28 94 28q66 0 116 -36q76 -54 76 -172z" />
    <glyph glyph-name="hyphen" unicode="-" horiz-adv-x="1048" 
d="M132 538v122h772v-122h-772z" />
    <glyph glyph-name="hyphen" unicode="&#x2010;" horiz-adv-x="1048" 
d="M132 538v122h772v-122h-772z" />
    <glyph glyph-name="period" unicode="." horiz-adv-x="580" 
d="M420 100q0 -52 -39 -89t-91 -37t-90 37t-38 89q0 54 37 93t91 39q53 0 91.5 -39.5t38.5 -92.5z" />
    <glyph glyph-name="slash" unicode="/" horiz-adv-x="644" 
d="M110 -30h-120l546 1440h120z" />
    <glyph glyph-name="zero" unicode="0" horiz-adv-x="1370" 
d="M1115 1100q8 -2 74.5 -80t69.5 -87q69 -202 -18 -405q-69 -162 -221 -287q-149 -122 -325 -168q-195 -50 -354 13q-153 60 -241 216q-27 48 -36.5 114t-3 136t26.5 144t49 138.5t67 118.5t79 84q50 38 166 61.5t242.5 30t245.5 -1t179 -27.5zM397 389q52 -79 166 -67
q104 12 217 91q108 76 170 176q76 125 44 230q-5 15 -12 30q-80 11 -182 -0.5t-201.5 -45t-169.5 -91t-84.5 -138t52.5 -185.5z" />
    <glyph glyph-name="one" unicode="1" horiz-adv-x="860" 
d="M680 1097q45 -53 67 -107t21.5 -103t-14.5 -97.5t-39.5 -94.5t-54.5 -90t-58.5 -88t-52.5 -84t-36 -82.5t-9 -80.5q1 -17 11.5 -42.5t22.5 -48t19 -47t5.5 -43.5t-20.5 -33.5t-57 -20.5q-45 -7 -79.5 2t-55.5 30.5t-34 52.5t-16 68.5t-0.5 78.5t11 82.5t20 80.5t25 72.5
t27.5 58.5q-138 -45 -228 36q-72 63 -91 183t23 232q44 114 136 164q268 144 457 -79zM446 793q19 18 61.5 119t34.5 110q-164 61 -246 -1q-52 -40 -55 -116q-3 -66 32 -115q37 -52 92 -44q40 6 81 47z" />
    <glyph glyph-name="two" unicode="2" horiz-adv-x="1400" 
d="M1203 1142q46 -34 75 -82q30 -48 41 -101t7 -110t-22 -110q-17 -54 -49 -102q-31 -49 -72 -86t-94 -60t-111 -25q-5 -6 1 -32q6 -27 18 -64t24 -83t19 -91q7 -44 4 -85t-21 -68t-57 -38t-103 5l-72 384q-21 -4 -184 -48q-171 -46 -249 -43q-117 4 -120 107q-2 74 53 201
q12 10 164 46t178 35t52 -11t44 -22q31 -22 42 -24q75 -9 117 -16q-20 -4 -10 0q57 23 59 24q35 19 70 48t64 61q29 33 44 67t9 61q-11 44 -50 69t-98 31q-58 5 -131.5 1t-154.5 -16q-80 -11 -162 -23q-81 -13 -159 -20q-77 -8 -141 -6.5t-112 18.5q-49 18 -69 54v149
q14 21 56 24q42 2 88 -6q45 -8 101 -16q56 -9 85 -8q48 2 125 14q76 11 147 23q71 13 155 23q84 9 154 11q69 1 135 -13q67 -15 110 -47z" />
    <glyph glyph-name="three" unicode="3" horiz-adv-x="1122" 
d="M983 1095v1q25 -25 36 -53.5t8.5 -55.5t-11 -53.5t-22.5 -50.5t-26.5 -43.5t-21.5 -35.5t-10 -24q0 -13 10 -34t21 -42.5t16.5 -56.5t-3.5 -75q-7 -33 -27.5 -66.5t-46.5 -60t-56 -53t-56 -46.5t-46.5 -39t-26.5 -31q-9 -18 -13.5 -44t-5.5 -51t-4 -52t-7 -49.5t-16 -41
t-30.5 -28.5t-51 -9.5t-76.5 12.5l-27 172q-4 5 -74 -14q-146 -39 -217 -40q-133 -3 -130 94q1 12 3 26q9 45 26 78.5t40 53t51.5 31t59.5 14t66 1.5t68.5 -6.5t68 -10.5t64.5 -9.5t58.5 -4t49.5 6.5q16 4 34 17t32.5 28t32.5 37.5t29 38t27 39.5t22 32q-1 22 -29.5 33.5
t-73.5 12t-102 -3.5t-115 -11t-112 -11.5t-93 -6t-58 7.5l3 152q18 4 78 13t124 18.5t139.5 24.5t134 30.5t98 36t40.5 42.5q-41 38 -81 59.5t-73 28.5t-72.5 5t-70.5 -9t-76.5 -15.5t-80.5 -11.5q-26 -2 -56 -2t-69.5 3.5t-69 13t-53.5 26t-22.5 42.5t22.5 63
q13 20 139.5 36.5t257.5 22.5t170 1q36 -5 152 -46t131 -57z" />
    <glyph glyph-name="four" unicode="4" horiz-adv-x="1724" 
d="M945 992q25 -5 75 4q50 10 108 26.5t125 35.5q66 19 129 32t116 16q54 4 91 -13q37 -16 49 -55q11 -35 3 -62q-7 -27 -27 -45t-53 -31q-32 -13 -70 -21t-82 -15q-43 -7 -86 -11q-42 -5 -84 -12t-76 -15t-61 -22q-26 -15 -39 -34q-1 -52 -17 -131t-45 -167t-64.5 -169.5
t-79.5 -146.5t-86 -92q-54 -34 -113 -50t-115 -14t-108 22q-52 21 -93 57q-40 36 -68 91t-36 123q-6 43 -5.5 81.5t3.5 68.5t14 59t20 50q9 20 28 43q19 22 31 36q13 14 38 34q25 19 39 29q14 11 42 30q39 27 61 44q21 16 54 44t57 60q25 32 44 69l-622 56v159q9 16 100 27
q122 14 128 14q107 3 203 2.5t128 -5.5q45 -8 92 -30q46 -23 82 -50q37 -27 68 -53q32 -27 59 -46q26 -20 43 -23zM718 439q4 8 16.5 31.5t17.5 34t14.5 32t13 36t6.5 34t2 37.5q-15 16 -82 -21q-80 -45 -147 -115q-92 -98 -77 -168q11 -46 71 -74q15 -6 35.5 6.5t39.5 34
t38.5 49.5t32 48.5t19.5 34.5z" />
    <glyph glyph-name="five" unicode="5" horiz-adv-x="1464" 
d="M1273 1141q30 0 54 -24q24 -23 37 -61q13 -37 21 -83q9 -45 10 -91q2 -46 0 -83q-1 -38 -5 -63q-5 -31 -29 -91q-24 -61 -62 -137q-37 -75 -84 -156t-98 -152q-52 -71 -104 -123q-53 -51 -101 -68q-50 -18 -88 10q-29 20 -34 51q-6 30 8 63t36 68q23 34 50 67
q26 32 48 60q22 27 32 47t2 28q-44 2 -104 -2q-59 -5 -109 -11q-50 -7 -109 -8q-59 -2 -108 4q-48 6 -99 29q-50 22 -90 62q-105 105 -9 265q31 52 109 145q57 67 67 89q10 21 -1 30l-459 -31l7 172q196 63 383 54q173 -9 256 -77q91 -73 40 -194q-50 -116 -230 -259
q-14 -62 82 -83q110 -23 311 7q150 23 219 54q13 6 14 7q22 20 32 59q11 38 12 82t0 93t1 93q1 45 8 81t28 57t56 20z" />
    <glyph glyph-name="six" unicode="6" horiz-adv-x="948" 
d="M858 979v0q-14 -28 -45 -43.5t-69.5 -19.5t-85 -3.5t-94 4t-93.5 5t-85.5 -3.5t-69 -18.5t-46 -43.5t-13.5 -75q36 -20 90.5 -21t109.5 9t109 20.5t101 9.5t73 -21q75 -58 14 -103q-36 -26 -156 -66q-128 -42 -171 -62q-97 -47 -86 -103q6 -26 30 -34.5t59 -3t69.5 15
t69 19.5t50.5 10q41 -1 129.5 -29.5t103.5 -54.5q33 -175 -76 -215q-62 -22 -198 -5q-18 2 -53 7q-120 16 -165 12q-17 -2 -30 -6q-21 -6 -41 -24t-34.5 -39t-30 -43.5t-32.5 -37.5t-37.5 -21.5t-48.5 5t-63 41.5q-6 33 5 66t32.5 60t44 51t41 46.5t21.5 38.5q2 11 -9.5 154
t-15.5 158q-5 17 -18 32.5t-28 28t-29.5 27.5t-25 39t-11.5 55q-2 33 6 63t21 52t26.5 41t23 37.5t9.5 34.5q-13 22 -27.5 42.5t-21.5 30t-13.5 22.5t-6 28t5 38.5t14.5 60.5q6 1 43 4t59 1t37 -10q5 -3 11.5 -18t13 -31.5t22 -33.5t36.5 -24q12 -3 124 5q222 16 322 -2
q171 -31 103 -159z" />
    <glyph glyph-name="seven" unicode="7" horiz-adv-x="1448" 
d="M512 832q-9 76 4.5 139.5t45 108.5t77.5 76t100.5 45t115.5 13t120.5 -18t118 -50.5t106.5 -81.5q180 -179 167 -395q-10 -175 -141 -337q-117 -143 -290 -230q-191 -96 -375 -87q-211 10 -347 158q-105 114 -153 300q-19 76 -25 147.5t7 148.5t47 141q17 31 46.5 41.5
t59 2.5t56 -27.5t38.5 -44.5q8 -17 8.5 -42.5t-3.5 -56t-9 -66.5t-4.5 -78t7.5 -86t29 -95.5t57 -101.5q26 -37 53.5 -63t54 -41.5t57.5 -22t59.5 -6.5t65.5 8t70.5 19t78.5 28q51 19 102.5 54t96 82.5t77.5 100t48 112t6 114.5q-22 139 -124 211q-75 53 -163 51
q-76 -1 -114 -43q-44 -49 -6 -124q37 -73 146 -153q21 -82 -31 -114q-45 -29 -120 -6q-84 25 -145 97q-63 74 -75 172z" />
    <glyph glyph-name="eight" unicode="8" horiz-adv-x="1490" 
d="M1119 1024q32 15 38 17q24 8 37 12q14 4 39 11q26 7 41 9q15 3 38 5q23 3 36 0q13 -4 29 -9q15 -5 22 -17q7 -13 11 -30q5 -16 1 -42q-3 -25 -14 -57q-4 -14 -172 -83q-188 -80 -193 -82q-60 -16 -124 -24t-110 -8q-46 -1 -96 -4t-88 -10t-78 -28q-41 -21 -74.5 -57.5
t-69.5 -98.5t-71 -151q-6 -57 68 -80q74 -22 176 -14q102 9 196 27q99 19 133 36q9 4 19 16q9 12 18 28q9 15 20 34t23.5 36t27.5 32t35 22q20 8 43 9q23 0 54 -12q30 -11 65 -36q19 -77 -5 -145.5t-79.5 -118.5t-135.5 -90q-80 -39 -170 -63q-91 -23 -186 -33
q-95 -11 -180 -7t-156 23q-71 18 -111 50q-47 37 -77 78q-29 40 -40 78q-11 37 -10 77t14 76t31 74q19 38 42 71t46 67q23 33 42 62q20 28 34 57q14 28 17 50q2 11 -9 36t-26 55q-15 29 -28 70t-16 83q-3 43 10 93q20 31 55 53t75.5 33.5t84.5 12.5t84 -7q39 -9 71 -29
q33 -20 49 -49q8 -14 11 -36t4 -43t5 -42q3 -20 16 -37q15 -18 37 -25q6 -2 24 -2q12 0 38 3q26 4 50 8q24 3 56 10q33 7 60 12q27 6 59 13q32 8 55 13q43 10 46 10q23 4 33 8z" />
    <glyph glyph-name="nine" unicode="9" horiz-adv-x="2598" 
d="M1561 2248q113 52 223 72q110 21 203 11q94 -9 177 -45q84 -36 146 -94q64 -57 108 -138q45 -79 67 -174q32 -141 17 -206q10 -18 3 -36q0 -1 -36 -113q-13 -43 -49 -118q-29 -62 -64 -115q-34 -54 -76 -105q-43 -51 -90 -87q-48 -37 -103 -62t-115.5 -29.5t-128.5 9.5
q-23 51 -25 89t14 62q15 24 41 41q25 17 59 31q33 13 65.5 25.5t64.5 30.5q32 19 51 41q62 75 81 130q60 161 59 161q-16 -31 -10 -22q18 23 -4 169q-12 80 -44 148t-89 110t-140 55q-81 13 -195 -17q-75 -19 -146 -66q-72 -46 -131 -110q-58 -64 -109 -143
q-51 -80 -85 -165q-48 -120 -56 -174q-22 -152 -24 -172q-1 -12 0 -16q-1 -5 26 -61q11 -22 41 -54q22 -22 41 -49q20 -27 25 -48q5 -23 -7 -48q-20 -40 -133 -80q-111 -38 -234.5 -61.5t-251.5 -52.5q-137 -32 -171 -52q-14 -8 -127 -112q-112 -105 -112 -116q0 -54 32 -97
q33 -43 86 -67q52 -24 106 -36q54 -13 106 -14q44 -1 99 15q53 15 102 37t102 47q52 23 101 37.5t95 15.5q46 0 90 -25t81 -79q6 -40 -55 -88t-148 -85q-88 -37 -167 -63t-121 -34q-62 -12 -136 -12q-74 -1 -153 9q-80 9 -155 34q-77 25 -141 60q-63 36 -111 91
q-51 60 -66 123q-15 61 -3 116q12 49 46 99q33 49 67 85q35 36 66 77q30 41 37 74q6 30 -4 63q-11 32 -23 59t-18 56q-6 30 14 65q20 36 70 75q58 45 106 63q47 19 101 8q54 -10 108 -57q33 -27 59 -61q27 -34 39 -51t31 -32q20 -15 48 -12t77 16q48 14 128 47
q-33 149 -15 163q16 13 -6 13q-13 0 3 139q8 83 40 174q30 84 55 147q27 64 61 138q36 73 75 130q40 57 89 114q50 55 111 101q62 44 135 78z" />
    <glyph glyph-name="colon" unicode=":" horiz-adv-x="800" 
d="M168 1036q16 34 50 65t77.5 53t93.5 34t96.5 12t88.5 -16.5t68 -49.5q39 -48 51.5 -106.5t2 -115t-40.5 -112.5q-14 -27 -58 -54.5t-95.5 -46t-102 -30t-81.5 -11.5q-39 0 -71.5 19.5t-53.5 50.5t-34 71t-15.5 82t3.5 82.5t21 72.5zM286 957q-41 -61 -4 -98
q30 -31 94 -29q74 3 126 47q44 37 55 93q0 19 -27.5 25.5t-66.5 2.5t-78.5 -12t-67.5 -17t-31 -12zM604 509q5 -1 41.5 -53t41.5 -65q14 -37 16.5 -75t-5 -72.5t-23.5 -66.5t-39 -59t-52 -49.5t-60.5 -37.5t-67 -23t-70 -8t-70 10.5t-67.5 30.5q-66 43 -105 90.5t-47 94
t10 91t65 83t119 67.5q36 14 162 32t151 10zM359 174q24 -7 52.5 -4t54 14t48.5 28.5t35.5 40t15 48t-12.5 51.5q-49 12 -136 -17q-85 -29 -120 -68q-42 -47 23 -78q16 -9 40 -15z" />
    <glyph glyph-name="semicolon" unicode=";" horiz-adv-x="700" 
d="M472 4q0 -99 -98 -202q-81 -86 -164 -124l-18 42q105 65 148 144q20 36 24 76q2 20 6 62q-17 19 -72 20q-74 1 -96 8q-47 15 -52 66q-5 55 36 88q37 28 94 28q66 0 116 -36q76 -54 76 -172zM226 952q0 47 33.5 79.5t80.5 32.5q46 0 79 -33t33 -79q0 -47 -32.5 -80.5
t-79.5 -33.5q-48 0 -81 33t-33 81z" />
    <glyph glyph-name="less" unicode="&#x3c;" horiz-adv-x="2786" 
d="M1018 683q-11 131 14.5 246.5t80.5 204.5t135 162t177 122.5t208.5 81.5t227.5 43t235.5 3.5t231.5 -34t216.5 -72.5t189.5 -108l-34 -109l-58 -19q-81 40 -173 72t-192.5 54.5t-202 30t-200.5 1.5t-191 -34.5t-169 -75t-139 -122t-98 -173.5l1063 28q48 -7 80.5 -46.5
t44 -90.5t8 -105.5t-22.5 -94.5q-12 -26 -40 -48.5t-56 -36.5t-55 -31.5t-35 -32.5q-16 -28 -21.5 -92.5t-20.5 -91.5q-42 -76 -107 -141t-141.5 -112t-164.5 -76t-175.5 -35.5t-176 13.5t-163.5 66q-49 31 -100 116t-87 184t-60 195t-29 158zM1346 340q32 -77 85.5 -126.5
t114.5 -66.5t128 -9t125.5 40t107.5 87t74 125zM2041 763q-136 -9 -408 2t-395 5l-2 -186l616 -6q40 0 226.5 46.5t199.5 66.5l6 107q-24 10 -52.5 10.5t-55 -6.5t-50.5 -15t-47.5 -15.5t-37.5 -8.5zM810 1184q34 -53 51 -109.5t18.5 -108.5t-11.5 -109t-32 -105.5
t-50.5 -104.5t-60.5 -99t-67 -95q-7 -10 -14.5 -23t-19 -40t-18 -66.5t-4.5 -84.5l106 -174q-111 -21 -181.5 -4.5t-104 63t-39 111t13 140t52 149.5t78.5 140q-42 -3 -109 6t-136 26.5t-126.5 48.5t-74.5 66q-17 66 -12.5 125.5t22 117.5t50.5 105.5t73 88.5t90 67.5
t101.5 42.5t107 12.5t107 -22t101 -61t89.5 -103.5zM641 888q5 172 -45 215q-24 22 -76.5 34t-106 4t-72.5 -42q-76 -94 9 -157q65 -48 185 -58q61 -5 106 4z" />
    <glyph glyph-name="equal" unicode="=" horiz-adv-x="1244" 
d="M112 792v120h956v-120h-956zM112 288v120h956v-120h-956z" />
    <glyph glyph-name="greater" unicode="&#x3e;" horiz-adv-x="1182" 
d="M1960 2365q64 -81 92 -201t16 -242q-12 -121 -59 -213q-20 -39 -145 -191q-125 -151 -154 -169q-22 -14 -52 -16q-30 -3 -70 0t-57 3q-5 38 4.5 73t29.5 61q19 27 47 55q29 28 56 50q27 21 57 50q30 28 49 52q57 76 86 154t30 148q0 69 -22.5 135t-64.5 119
q-42 54 -101 97q-59 44 -129 72q-70 27 -151 39q-88 13 -165 4q-21 -2 -57.5 -11t-68.5 -20q-33 -10 -85 -29q-52 -18 -79 -28l-78 -30t-58 -22q-178 -56 -185 -59q-82 -34 -158 -75t-137 -85q-61 -43 -117 -96q-57 -52 -99 -110q-41 -58 -75 -128q-34 -69 -55 -148
q-20 -78 -29 -170t-5 -196l-166 -27q-8 187 38 360t137 319q92 145 224 264q132 120 297 205q190 67 380 135q266 95 347 102q50 5 105 5q54 1 114 -6q60 -8 118 -19q58 -12 115 -32q58 -21 108 -46q51 -25 95 -59q45 -35 77 -74z" />
    <glyph glyph-name="question" unicode="?" horiz-adv-x="1200" 
d="M938 1274q68 -80 68 -218q0 -62 -74 -160q-7 -9 -120 -140q-78 -90 -106 -226q-4 -84 -22 -252h-32q3 108 -4 192q-11 130 -10 138q16 111 54 172q8 13 116 156q64 85 64 144q0 288 -230 288q-76 0 -162 -50q-92 -53 -92 -116q0 -18 59 -81.5t59 -100.5q0 -36 -48 -60
q-28 -14 -52 -14q-86 0 -86 158q0 302 334 302q75 0 155.5 -37.5t128.5 -94.5zM556 60q0 51 35.5 85.5t86.5 34.5q50 0 85 -35t35 -85q0 -51 -34.5 -86.5t-85.5 -35.5q-52 0 -87 35t-35 87z" />
    <glyph glyph-name="at" unicode="@" 
d="M-157 -329v0q9 -12 11 -26.5t-2 -27.5t-12.5 -25t-19.5 -21.5t-24.5 -15t-27.5 -6.5q-34 -1 -69 7.5t-67 25.5t-62.5 41t-55.5 53t-45.5 62t-34 67.5t-19.5 70.5t-3 69q16 4 30.5 4t25.5 -1.5t22 -6.5t19 -10t16.5 -14.5t14 -16t13 -19t11 -20t11.5 -21.5q11 -20 17 -31
t17 -27.5t23.5 -27.5t26.5 -19t34.5 -13.5t39.5 -9.5t38.5 -8t38.5 -12.5t33 -20.5z" />
    <glyph glyph-name="A" unicode="A" horiz-adv-x="1618" 
d="M-26 1104q-13 3 -22 12q-9 10 -9 24l-1 68q0 15 11 25q11 11 26 11l487 -8q13 0 22 -9q10 -8 11 -21l31 -221q2 -13 12 -22q10 -8 24 -7l194 12q11 1 20.5 -5t13.5 -17l69 -185q5 -11 16 -17q10 -7 23 -4l266 56q12 3 20 13q8 11 7 24l-32 335q6 34 24 55q19 22 47 29
q28 8 60 9q62 1 70 -4q11 -8 10 -12q0 -2 67 -12q53 -7 55 -6q-25 8 -49 6q-15 -1 72 13q56 8 78 9q41 3 72 -2q31 -4 51 -24t19 -55q-2 -44 -15 -74q-14 -29 -36 -44t-50 -21q-29 -6 -63 -5q-71 3 -69 4q15 9 27 7q-18 3 -71 4q-59 0 -67 -8q-8 -10 3 -25q-5 -62 -3 -112
q3 -50 5 -104t3 -100q1 -47 -7 -104q-8 -56 -26 -111t-89 -174q-113 -192 -205 -267q-115 -96 -154 37q-8 29 -1 61q7 29 26 65t44 69q24 34 50 72q27 37 48 71q22 34 36 71t13 68q-187 -5 -332 -107t-213 -277q-42 1 -74 7q-31 7 -51 15q-21 8 -31 23q-9 16 -14 29
q-5 12 1 36q7 23 13 39q5 15 22 45q17 29 28 46q10 17 32 50q42 63 62.5 98t40.5 88q21 53 17 91q-20 5 -40 5q-19 0 -36 -3q-16 -2 -33.5 -10t-30.5 -15t-29 -20.5t-26 -23.5q-10 -9 -26 -27t-24 -28q-9 -10 -25 -29q-17 -21 -25 -32q-9 -10 -26 -29q-16 -18 -27 -27
q-10 -10 -27 -23q-17 -14 -31 -19q-13 -6 -31.5 -12.5t-35.5 -6t-38 3.5q-21 4 -43 12q-18 42 -22 80q-3 38 7 69q10 32 28 62t43 57q24 28 50 54q25 27 50 56q24 29 43 58q18 30 28 65q10 36 8 73z" />
    <glyph glyph-name="B" unicode="B" horiz-adv-x="1426" 
d="M-158 1122l22 89q37 26 124 25q125 -2 130 -2q126 9 155 9q388 1 574 5h107q96 1 178 0q37 -1 181 -5q128 -4 132 -5q63 -11 73 -28l4 -132l-211 -8q11 -36 12 -71t-7.5 -66t-21.5 -59q-14 -28 -31 -55t-33 -51t-30 -51q-15 -27 -22 -50q-9 -29 -12 -106q-3 -74 -13 -111
q-30 -99 -77 -175q-48 -76 -107 -126q-58 -49 -132 -81q-74 -31 -151 -43t-167 -11q-89 2 -174 15t-180 35q-57 170 1 201q35 19 137 -11q22 -6 69 -22q127 -42 186 -50q41 -4 72 0q33 5 76 25q42 19 83 50q41 32 75 68q34 37 52 80q18 44 11 84q-301 -134 -462 -87
q-96 27 -121 113q-25 83 24 186q50 104 150 173q136 93 302 75q115 -13 232 -82q30 21 43 48t7 53t-22 49t-42 38q-26 16 -54 18q-33 3 -96 -8q-63 -12 -133 -25q-71 -13 -115 -13q-40 0 -120 16q-81 16 -120 16q-80 1 -89 -3q-8 -3 -37 -7q-71 -9 -164 -4q-6 2 -89 23
q-23 6 -121 18q-49 5 -58 36zM551 596q29 -8 58.5 -4t52 14t48 24.5t47 28t49.5 24.5t55 13q-15 35 -36.5 51t-44 15t-50 -10t-52 -21.5t-53.5 -22t-50 -9.5z" />
    <glyph glyph-name="C" unicode="C" horiz-adv-x="1432" 
d="M721 1089q-100 19 -209 20q-126 2 -206 -5q-91 -8 -216 -16q-123 -9 -212 -8v109q6 20 73 36q67 15 169 23q103 8 225 13q122 4 243 5h221q112 -1 162 -2l62 -1h7q39 -21 213 -18q91 2 108 -3q18 -6 42 -8q25 -2 47 -1q22 0 45 -1q24 -1 41 -6q19 -6 32 -17
q15 -11 20 -33q6 -23 2 -55q-7 -23 -39 -33q-28 -9 -78 -7q-14 1 -91 9q-94 9 -90 13q17 22 35 -2q-5 7 -89 4q-33 -1 -76 -2q-17 0 -29 -2q-24 -3 -134 -1q-104 2 -135 2q67 -229 -125 -343q-91 -53 -304 -100q-26 -6 -104 -20q-19 -4 -31 -19t-13 -33q0 -23 15 -38
q16 -16 38 -16q137 -3 273 39q21 7 51 26q20 12 61 43q32 24 68 52q37 28 72 56q37 27 75 51q39 23 74 40q36 16 71 21q36 5 66 -3q31 -8 58 -35q28 -28 49 -75q23 -54 19 -116q-3 -64 -30 -124q-26 -61 -69 -123t-100 -114q-56 -51 -120 -96q-63 -44 -131 -70
q-66 -26 -130 -36q-60 -10 -121 7q-41 10 -74 31q-32 20 -52 45q-19 23 -33 52q-14 28 -20 55q-5 27 -9 53q-3 26 -3 46q0 19 -1 33q0 13 -3 16q-2 2 -15 2q-13 1 -33 0q-19 -1 -44 1q-24 2 -49 5q-25 4 -49 14t-42 25q-18 14 -30 40q-11 25 -11 58t19 68q24 42 51 69
q32 33 68 64q38 30 74 52q36 21 65 32q15 5 46 15l54 18t53 20q22 9 53 26q15 7 47 30q26 19 41 39q16 19 28 47q12 26 14 57zM1083 655q-39 0 -69 -9q-30 -10 -46 -27q-16 -18 -19.5 -41.5t9.5 -52.5q14 -29 44 -60zM612 397q-8 -8 -15 -21q-6 -13 -12 -30q-5 -18 -10 -25
q-1 -29 13 -47t34 -24q21 -7 48 -6q27 0 50 4t43 11q82 25 90 72q6 37 -35 69q-44 35 -107 33q-55 -2 -99 -36z" />
    <glyph glyph-name="D" unicode="D" horiz-adv-x="1220" 
d="M1368 1218l12 -136l-326 -20q0 -69 -2 -128t-8 -134t-16 -138q-9 -63 -27 -134t-41 -128q-24 -58 -59 -114q-35 -57 -78.5 -99.5t-101.5 -75.5q-58 -34 -127 -51q-35 31 -48 60q-14 29 -7 53q7 25 23 48q17 24 41 48q25 24 47 47q23 23 40.5 52.5t21.5 57.5
q-69 -28 -171 -28q-102 -1 -198 26q-95 26 -170 77q-74 51 -89 127q-15 81 46 172q11 17 32 33q21 15 41 28q19 12 38 27q19 16 29 40q11 23 10 55q-22 24 -52 37t-61 14q-31 2 -64 0q-34 -3 -65 -9q-31 -7 -60 -10q-29 -4 -51 -4q-23 -1 -39 9t-23 30q-6 20 -1 57
q5 38 23 92q8 6 16 10q9 5 16 8t18 6t17 5q5 2 19 4q13 2 17 2q3 1 19 2q15 2 17 2t20 1l17 1q118 8 261 9q182 1 276 -1q132 -3 267 -4q226 -2 272 1q83 7 160 5zM849 627l4 457l-370 -17q4 -25 4 -48q0 -24 -2 -42.5t-9 -40.5q-7 -21 -13 -35q-6 -15 -18 -36.5t-20 -33.5
q-7 -12 -23 -37q-16 -24 -24 -37q-2 -3 -13 -11t-24 -16t-24 -20t-16 -24t2 -27t28 -30q39 -28 91 -38q52 -11 108 -6q57 4 109 13q52 8 112 18t98 11z" />
    <glyph glyph-name="E" unicode="E" horiz-adv-x="1733" 
d="M1586 976q15 -42 10 -100q0 -1 -23 -92q-11 -46 -33 -112q-9 -25 -58 -50l-74 -38q-33 -16 -60 -30q-26 -15 -32 -25q-10 -15 -11 -79t-13 -92q-34 -79 -95 -146t-136 -114q-79 -49 -164 -74q-89 -26 -176 -29q-88 -2 -175 25t-158 84q-96 76 -167 208q-52 97 -80 204
q-29 114 -40 242q-12 166 -5 291l-227 21l35 161l160 11q3 10 133 208q89 135 207 225q116 91 260 146q143 54 294 66q151 11 310 -21t305 -107l-27 -137q-7 0 -20 3q-87 15 -131 21q-45 7 -126 18q-81 10 -128 11.5t-120 0.5q-73 0 -123 -10q-30 -6 -114 -28
q-65 -17 -115 -46q-79 -44 -106 -69q-74 -67 -106 -93q-20 -16 -43 -16q-6 0 -45 -70q-21 -38 -17 -69q5 -31 46 -36q122 -16 247 -6q233 17 399 19q163 -6 424 -5q10 2 243 4q8 1 176 -1q2 -43 -11 -78q-7 -19 -40 -50q-49 -48 -60 -49l-74 -8q15 -8 19 -4q-5 -5 -61 -26
q-5 -2 -74 -59zM410 410q7 -40 34 -71q26 -32 64 -50q42 -20 85 -29q47 -10 96 -8q50 3 99 13q49 11 91 35t74 55q31 31 47 75.5t11 96.5l-366 -7q-13 -15 -44 -24q-31 -10 -64 -15t-64 -11q-32 -7 -49 -22q-18 -14 -14 -38zM678 742q45 1 95 1q51 0 102 -5q52 -4 105 -4
q53 1 102 3q49 3 94 17q46 14 83 36q39 25 65 63q9 13 44 135q-60 26 -103 21q-97 -12 -99 -12q-38 -1 -103 -5q-98 -4 -102 -5q-24 -6 -219 2l-252 -6q-99 -2 -198 -18q17 -138 22 -153q13 -45 28 -70q14 -21 38 -34q4 -2 44 -8q23 -3 35 -9q3 -2 63 19q30 10 73 20
q51 11 83 12z" />
    <glyph glyph-name="F" unicode="F" horiz-adv-x="1200" 
d="M437 607q-15 -90 -62 -153q-6 -8 -76 -98l93 -108q28 86 146 150q117 64 262 79q150 15 239 -33q98 -53 79 -176q-2 -13 -7 -27q-36 -123 -181 -186q-139 -62 -330 -52q-183 10 -321 80t-173 173q-63 191 93 364q7 8 15 16q-15 15 -39 31t-43 28t-36 27q-17 16 -23 39
q-7 27 0 55q6 23 54 41q47 19 95.5 26.5t78.5 6.5q31 -1 55 -6q23 -4 37 -11t24 -16q9 -8 12 -18t4 -19.5t-1 -19.5q-1 -9 -2 -17q-2 -8 -2 -14t3 -9q6 -7 39 -4q33 4 79 16t99 32t101 46q47 25 82 56t44 65q14 48 -12 90q-69 -1 -129 8q-100 14 -132 10q-78 -12 -131 -7
q-27 2 -126 -1q-6 0 -32 3q-10 2 -105 2q-62 0 -100 -3q-69 -6 -100 -4q-33 2 -59 12q-27 10 -42 24q-15 15 -24 32q-8 18 -5 35.5t13 33.5q11 16 33 28q21 12 51 17l1349 -3l-31 -160l-217 -22q-11 -62 -29 -108q-16 -46 -35 -81q-18 -34 -48 -64q-29 -29 -55 -50
q-27 -21 -70 -42q-44 -22 -80 -37t-95 -37q-31 -11 -80 -17q-50 -5 -90 -10q-53 -5 -57 -13zM598 270l-1 -121l304 58l1 60z" />
    <glyph glyph-name="G" unicode="G" horiz-adv-x="1843" 
d="M311 985q-4 20 -22 32.5t-45 17.5t-61 7q-35 2 -72 1q-38 -1 -76 0t-73 2q-35 3 -64 11t-48.5 22t-26.5 38q-8 25 1 60q8 32 92 51q84 20 188 22q103 2 204 -12q100 -14 138 -43q36 -26 55 -61q19 -34 23 -70q3 -35 -5 -77t-23 -80q-16 -37 -37 -81q-22 -43 -42 -77
q-20 -35 -41 -74q-21 -38 -32 -64q34 -28 72.5 -38t73.5 -6q35 5 77 18q41 13 75 29t76 31q42 16 74 23q-4 77 18 207q34 205 99 278q61 69 138 -3q24 -21 31 -51q8 -30 3 -63q-6 -33 -17 -69t-24 -75q-12 -39 -21 -77q-8 -37 -7 -77q2 -39 18 -72q73 -19 133 -26
q61 -6 107.5 -1t82.5 23t61 43q25 26 42 64q16 39 25 81q8 43 11 98q2 66 -1 112q-5 137 -9 187q66 -8 172 -3q92 3 118 0q83 -7 88 -7q127 11 167 1q15 -9 18 -7q14 14 22 16q2 1 29 3q23 2 29 0l-1 -244q-27 -16 -70 -21q-50 -6 -90 -1q-48 5 -100 10q-101 10 -102 12
l-4 5q-12 -10 -20 -14q-39 -20 -53 -40q-9 -13 -25 -133q-16 -119 -35 -260q-20 -142 -36 -194q-9 -30 -18 -55.5t-23 -60.5q-19 -47 -27 -61q-14 -27 -32 -56q-19 -28 -38 -47q-19 -18 -43 -30q-23 -11 -48 -10q-24 1 -53 16q-29 16 -59 48l113 316q-42 -22 -87 -29
q-46 -6 -84 0t-80 18q-42 11 -76 24t-72.5 21.5t-68.5 7.5q-34 -2 -79 -15q-44 -13 -87 -30q-44 -17 -92 -35q-50 -18 -100 -30t-102 -15q-51 -4 -107 10q-55 13 -108 44q-46 28 -72.5 63.5t-31.5 71.5q-4 34 3 77q6 39 25 78t41 76t46 71q24 35 43 62q19 29 30 51
q11 23 9 35z" />
    <glyph glyph-name="H" unicode="H" 
d="M-217 -371q-1 -48 -14 -89q-15 -42 -37 -73q-23 -31 -53 -55q-31 -24 -64 -38q-35 -14 -72 -19t-72 0q-36 4 -69 20q-34 14 -60 39q-28 23 -47 60q-20 36 -27 81q-9 44 0 85q7 40 27 69q19 28 48 46q28 18 60 20.5t67 -12.5q34 -16 64 -50q7 -9 11 -14l8 -12q2 -6 2 -11
q-1 -5 -4 -10q-4 -6 -10 -12t-16 -14q-11 -7 -24 -11q-14 -4 -28 -4q-14 -2 -27 -2q-15 0 -26 -1q-12 -1 -20 -3q-9 -3 -12 -10t0 -18q8 -32 34 -62q25 -30 60 -44q36 -15 71 0q19 9 35 21q15 13 26 25q10 13 18 31l11 33q3 14 4 37q1 22 1 37q-1 15 -4 41t-5 40
q-3 14 -7 41q-19 115 -12 162l101 -4q7 -5 23 -77q15 -73 27 -148q12 -77 12 -95z" />
    <glyph glyph-name="I" unicode="I" horiz-adv-x="698" 
d="M-527 1242q13 81 47 159q34 80 84 138t113 101q31 21 131 55q68 23 140 26q72 4 140 -11q68 -16 130 -53q82 -50 111 -83q49 -55 82 -136t44 -178q59 -22 72 -22q43 -1 54 4q-22 -11 -93 1q48 -8 72 -5q40 5 48 4q14 -1 24 -1q53 -3 72 -5q44 -6 89 0q2 -6 -24 -40
q-1 -1 -1 -2q10 -37 -8 -58q-6 -8 -11 -10q-6 -2 -15 -7q-14 -8 -17 -8q-19 -2 -54 -12q-44 -13 -80 -14q-50 -1 -48 3q5 5 52 6t-100 -2q1 -44 -8 -108t-19 -167.5t-15 -165.5q-6 -62 3 -125q22 -150 37 -177q1 -2 12 -20q12 -17 18 -28q7 -11 19 -32.5t19 -37.5
q6 -16 14 -40q7 -23 8 -40q1 -18 -1.5 -39t-12.5 -37t-28 -31q-18 -16 -44 -26q-31 -13 -69 4q-38 16 -71 51q-69 74 -70 74q-27 55 -44 76q-16 22 -15 53l5 818q-162 -5 -194 -1q-166 22 -205 18q-51 -4 -90 -10q-38 -5 -48 -7q-15 -5 -35 -3q-47 4 -54 3q-27 -5 -102 13
q-18 -13 -59 -4q-2 0 -7 -15q3 10 -9 11q-54 6 -66 12l2 131h75zM278 1255q-11 71 -40 126q-28 52 -66 81t-85 41q-47 13 -94 7q-48 -5 -94 -27q-47 -22 -86 -57q-42 -37 -68 -86q-31 -62 -41 -99z" />
    <glyph glyph-name="J" unicode="J" horiz-adv-x="1134" 
d="M193 1074l-279 17q-4 20 -9 28q-10 15 -12 29q-2 17 -2 31q3 55 17 59q55 17 90 13q48 -6 95 -10q39 -3 237 6q82 4 240 -2q108 -4 223 -8t167 -4q35 1 86 6q52 6 89 9q36 4 86 1q50 -4 95 -19l49 -74l2 -74q-16 -21 -38 -30t-45 -8q-24 1 -49 6q-25 6 -52 12
q-26 7 -50.5 11t-49.5 0q-26 -3 -46 -17q-39 -46 -62 -98q-24 -51 -31 -97t-8 -99t3 -97q3 -44 3 -97.5t-8 -95.5q-5 -27 -21 -57q-16 -31 -32 -52t-28 -44q-13 -23 -11 -38q1 -14 11 -33q11 -20 24 -37q14 -18 28 -40q14 -23 23 -43q9 -21 11 -46t-10 -48l-160 -20l-81 151
q-18 3 -48 -8t-64 -29t-73.5 -39t-81.5 -36q-41 -14 -82 -20q-40 -6 -81 7t-74 46q-27 27 -34 58q-6 30 6 58t35 55t55 49t65 39q34 17 67 27q32 10 57 11q28 1 62 -4q33 -6 56 -13q24 -6 51 -7q28 -2 49 6q22 8 45 34q24 26 45 71v0q13 28 15 32q4 11 10 28t5 25
q0 9 -3 20.5t-12.5 18.5t-25.5 14q-16 6 -39 11q-47 9 -94 10t-90 -5q-43 -5 -85 -15q-42 -9 -85 -21t-84 -23q-40 -11 -87 -21t-89 -14l-37 96l180 103zM811 1073q-37 -6 -158 -12q-119 -6 -173 -28q-92 -38 -97 -149q-2 -30 3 -67q50 -5 91.5 -6.5t84 3t76.5 15.5t64.5 31
t52 49t36.5 70.5t20 93.5z" />
    <glyph glyph-name="K" unicode="K" horiz-adv-x="1430" 
d="M295 1091q-8 6 -32 7q-24 0 -58 -6q-33 -7 -74 -14q-77 -12 -82 -9q-19 16 -32 26q-3 2 -74 1q-27 0 -56 18q-33 21 -32 41q5 93 131 86q14 0 292 -6q138 -4 183 -21q20 -8 33 -24q12 -16 18 -36q7 -20 12 -39q5 -20 13 -39q9 -19 22 -28q15 -11 45 -18q30 -6 66 -15
q35 -9 60 -24q23 -14 44 -39q22 -25 39 -52q30 -47 34 -52q33 -45 40 -50q20 -15 66 -37l73 409q78 49 79 50q25 23 52 24l378 4l23 -53q8 -19 -16 -47l-42 -49q-37 -16 -67 -18q-45 -2 -46 -3q14 8 42 5q-82 9 -79 2q3 -9 -4 -9q-56 2 -91 -28q-37 -31 -28 -56
q3 -7 -2 -119q0 -6 -32 -122q-12 -43 -29 -129q-19 -99 -39 -133q-28 -48 -106 -118q-14 -13 -161 -170q-126 -134 -222 -173q-100 -41 -99 77q0 43 15 106q1 5 17 18l36 27q20 14 39 36q19 21 25 43q7 23 -3 51q-40 1 -71 3q-31 1 -78 5q-46 4 -83 9q-37 6 -82 16t-80 23
t-71 33q-35 20 -60 44q-26 24 -44 56q-19 33 -26 71q-8 39 0 73q7 33 25 58t42 47q23 23 49 45q47 41 48 45q5 18 39 112q20 56 21 65zM509 850q-32 -6 -93 -37q-104 -53 -112 -142q-1 -19 24 -33q15 -8 61 -19q47 -11 106 -19t115 -10q57 -3 95 8q38 12 38 37l-26 80
q-13 17 -21.5 31t-17.5 29t-18 26q-8 12 -18 22q-10 11 -23 18q-12 7 -27 11q-16 4 -37 3q-20 0 -46 -5z" />
    <glyph glyph-name="L" unicode="L" horiz-adv-x="1436" 
d="M513 374l146 -1l-33 -113q-74 -26 -138 -32t-110 6.5t-81 37.5q-36 25 -52 62t-21 78q-5 42 9 89q15 46 42 90t74 86q48 43 108 74l-109 281l-390 29l-29 35q-16 19 -18 37q-3 23 2 42l18 70q2 -5 295 -3q171 1 433 -3q236 -4 248 -4q21 -2 236 10q109 7 174 5
q123 -2 241 -12q8 -37 3 -70q-2 -21 -7 -33q-6 -12 -17 -20q-12 -8 -24 -11t-27 -5q-16 -2 -29 -4q-25 -3 -29 -4q-17 -9 -25 -10q-108 -11 -63 -7q10 1 6 -7q-7 -13 -32 -22q-18 -6 -21 -12q-8 -17 -12 -20q-2 -3 -3 -25.5t-4 -52.5q-4 -31 -12 -48q-7 -14 -26 -29.5
t-35 -30.5q-16 -14 -19 -26q-3 -13 4 -27t20 -28t27 -29t26 -35q13 -20 16 -40q7 -34 7 -75t-6 -85t-17 -89q-12 -45 -30 -88q-18 -42 -41 -81q-23 -38 -52 -68t-63 -51t-74 -27q-39 -7 -84 1q-13 13 -13 32q0 18 10 39t26 46t37 51t42 55t41 57q19 28 33 58q13 29 19 57
t0 56t-25 52q-28 34 -102 44t-163 -2t-184 -43t-161 -74q-22 -14 -29 -37q-8 -23 -2 -44t25 -36q18 -15 44 -16zM1118 1016q-62 12 -134 15t-142.5 -5t-126.5 -25.5t-88.5 -50t-26.5 -75.5q38 -36 88 -54.5t101.5 -19t104 14t96 42t78 68.5t50.5 90zM130 177q27 8 64 10
t74 -6.5t51 -28.5q47 -112 -10 -167q-41 -40 -115 -34q-70 5 -114 47t-33 101q11 27 33.5 48.5t49.5 29.5z" />
    <glyph glyph-name="M" unicode="M" 
d="M-542 1259l-14 55q-50 111 -12 227q30 97 107 173q73 76 167 102q105 29 195 -12q67 -31 115 -104q30 -44 43 -84q64 -198 -7 -338q-37 -70 -594 -19zM-354 1392q24 -8 52 -10t54 1q26 4 52 13q21 8 44 25q16 12 32 35q13 20 15 46q2 28 -5 56q-19 67 -66 83
q-38 13 -87 -10q-45 -20 -74 -64q-37 -55 -35 -109q1 -34 18 -66z" />
    <glyph glyph-name="N" unicode="N" horiz-adv-x="161" 
d="M211 1247q8 2 14 -1q7 -3 8 -4l4 -7q1 -4 1 -16v-13q-2 -2 -4 -16q-6 -40 -6 -104l-298 10q-10 0 -18 5q-9 4 -13 13q-18 28 -3 87q5 22 11 26q10 7 24 10q14 4 30 6q17 2 35 2h34h31q6 1 22 1l60 2l18 -1q11 1 12 0q0 -1 19 -4q4 0 10 1zM66 1422q-59 1 -81 27
q-16 20 -7 48q8 26 33 49q30 27 68 36q47 11 91 -8q14 -21 18 -41q5 -20 1 -36.5t-15 -30.5q-11 -15 -27 -24q-16 -10 -37 -15t-44 -5z" />
    <glyph glyph-name="O" unicode="O" 
d="M-401 1188l316 -7l164 15q-8 172 -2 333q2 65 -14 105q-15 41 -56 66q-42 25 -96 32q-66 9 -136 3q-50 -5 -125 -14q-175 -20 -194 -23q-125 -20 -235 12q-139 40 -196 151q-8 15 -7 36q2 27 2 39q0 22 -5 31q-9 17 -31 24q-20 6 -42 -1q-27 -10 -45 -21q-23 -15 -41 -34
q-23 -23 -32 -40q-16 -27 -16 -39q0 -23 -2 -26q-1 -2 2 -21q1 -10 4 -16q8 -12 8 -14q4 -7 10 -12q6 -6 12 -14q6 -10 12 -17q13 -14 23 -29q4 -5 22 -24l34 -34q27 -34 44 -44q15 -9 51 -24q94 -37 134 -53q54 -23 65 -24q36 -4 87 0q71 8 138 25q15 -21 24 -37
q10 -20 7 -32q-6 -22 -6 -35q14 -191 51 -217q2 -1 71 -20zM-349 1294l-23 284l264 13q14 -11 21 -40q57 -259 0 -261q-131 -7 -262 4z" />
    <glyph glyph-name="P" unicode="P" horiz-adv-x="1272" 
d="M880 751q-24 -14 -64 -25q-39 -12 -83 -20q-43 -7 -94 -17q-50 -9 -97 -18q-48 -8 -93 -23q-45 -14 -81 -31q-36 -16 -61 -42q-24 -26 -33 -58q-8 -32 4 -77q12 -44 46 -98q19 35 33.5 60t33.5 54q20 30 38 50t42 41q25 21 51 35q26 13 59 24t70 16q61 9 131 -3
q70 -11 135 -38q64 -26 116 -69q52 -42 80 -92q28 -49 21 -110q-8 -62 -57 -122q-35 -44 -96 -75t-133 -47q-72 -15 -156 -17q-83 -3 -163 8q-81 11 -158 36q-77 24 -138.5 59t-103.5 84q-43 49 -55 106q-15 64 -18 117q-4 53 3 97q6 43 24.5 78t44.5 63t66 51q54 32 84 41
q46 15 104 35q6 2 123 23q258 46 307 105q34 40 2 84q-13 -3 -27 2q-15 5 -26 13t-22 15q-10 7 -14 7q-62 5 -158 4q-62 0 -169 -14q-32 -4 -160 2q-118 6 -158 -6t-42 -11q-38 10 -57 6q-2 0 -60 -20q-12 -4 -55 14q-34 13 -40 21q-16 21 -15 61q0 26 12 48q21 35 32 37
q45 7 48 8q12 6 54 20q4 1 59 -17q55 -17 54 9q0 1 46 4q161 12 257 9q212 -6 259 -5q46 0 258 -5q93 -2 258 1q183 2 217 0q109 -109 16 -139q-53 -17 -157 -9q-118 -15 -126 -16q-16 -1 -28 -6q-6 -3 -13 -24q-24 -66 -26 -72q-35 -103 -36 -104q-21 -34 -51 -67
q-31 -32 -64 -51zM879 371q-30 12 -57.5 20t-59 13t-58 5t-52.5 -8t-45 -23.5t-32.5 -43.5t-18.5 -67q25 3 53.5 0.5t59.5 -4t61 -3t56.5 4t47 16.5t33 34t12.5 56z" />
    <glyph glyph-name="Q" unicode="Q" horiz-adv-x="1212" 
d="M-72 1098q-104 109 -16 149q3 1 158 0h57q53 1 108 3q158 7 191 -1q5 -1 139 -2q126 -2 253 -2q172 -1 234 2q103 5 110 -2q2 -2 143 6q-12 -59 -2 -99l14 -59q-23 -4 -33 9q-8 11 -39 -5q-4 -2 -14 -3q-92 -5 -63 -1q11 1 9 1q-12 -4 -13 -4q-14 10 -32 -22
q-18 -34 -26 -85q9 -105 21 -234q7 -76 5 -157q-1 -81 -16 -160q-16 -79 -45 -147q-28 -67 -106 -150q-89 -96 -162 -124q-88 -33 -111 57q-4 18 -5 39q-2 27 3 47q6 19 15 29q9 11 20 18q11 8 22 14t20 14.5t12 22.5q4 15 1 36q-50 -10 -110 -15.5t-127 -4.5q-68 0 -134 11
t-125 31t-107 57q-47 36 -73 85q-27 54 -35.5 100t0.5 83q9 36 27 68t44 64t51 62q30 36 48 69q4 7 35 176q-46 20 -78 18q-89 -4 -88 -4q6 2 1 2q-48 2 -49 2q-13 -6 -22 -2q-23 8 -53 1q-40 -9 -57 7zM852 1047l-341 1q4 -73 4 -74q8 -48 92 -105q13 -9 54 -27
q55 -24 60 -25q38 -8 54 -16q21 -11 34 -29q17 -22 22 -35q7 -17 16 -34t18 -29q7 -12 25 -19q17 -6 40 -2q3 50 3 56q1 42 -1 67q-8 79 -9 111q0 11 -21 54q-22 43 -50 106zM411 725q-137 -13 -152 -80q-11 -51 54 -112q70 -66 177 -94q142 -37 245 24q31 18 57 45
q-52 66 -76 84q-86 70 -89 72q-56 35 -104 50q-55 17 -112 11z" />
    <glyph glyph-name="R" unicode="R" 
d="M-214 -90q20 -11 32 -23t16 -26q6 -19 3 -27q-14 -53 -16 -59q-1 -6 2 4q1 2 -15 -25q-8 -15 -15 -28q-8 -14 -12 -27q-5 -14 -6 -24q0 -16 6 -35q10 -31 14 -35q5 -4 49 -56q21 -25 27 -34q7 -9 11 -30q3 -15 -1 -25q-45 -62 -90 -37q-37 20 -54 73q-34 100 -63 114
q-1 0 -1 7q-12 -14 -29 -24q-16 -10 -34 -16q-18 -5 -37.5 -7t-37.5 0q-19 2 -36.5 7.5t-32.5 14.5q-18 12 -26 21q-11 13 -18 28q-7 14 -8 33t4 39q5 15 11 26t14 19q7 8 18 13q4 2 19 8q16 5 23 3q14 -3 23 -4q3 -1 35 -13q23 -9 25 -9q8 -1 25 -5l18 -3q5 -2 16 -3
q10 -2 17 -3q6 -1 14 -1t14 1l12 2z" />
    <glyph glyph-name="S" unicode="S" horiz-adv-x="1495" 
d="M1309 724q-6 -39 -20 -95t-36 -127q-23 -71 -51 -143q-27 -72 -63 -141q-35 -68 -72 -120q-38 -52 -82 -82q-44 -29 -88 -26q-117 11 -81 131q20 68 107 208q73 120 90 153q30 62 13 80q-23 -16 -52 -21q-27 -6 -47 -3t-41 7t-27 4q-18 0 -57 -5t-71 -5q-27 1 -71 15
q-45 14 -87 26q-41 12 -65 8q-23 -3 -48.5 -23.5t-48.5 -49.5q-22 -29 -48 -64q-26 -34 -50 -64q-27 -34 -53 -54q-29 -22 -56 -29q-29 -7 -61 7q-43 18 -60 49q-15 29 -6 63q10 34 35 72q24 39 59 80q35 40 71 82t68 83q31 42 50 80q19 36 18 74q-1 96 -27 125
q-19 20 -136 27q-47 3 -57 3q-23 2 -129 27q-131 30 -130 46q0 52 61 126q163 1 413 -3q186 -2 407 -3q147 0 293 -1q40 0 135 1q105 1 115 4q22 6 90 3q63 -2 111 -20q58 -22 57 -53q0 -44 4 -57q0 -1 -24 -22q-18 -17 -43 -30q-25 -11 -57 -18q-46 -9 -65 -10
q-67 -3 -45 -3q11 0 11 2q0 3 -46 6q-3 -56 -1 -110t2 -111q-1 -56 -8 -99zM606 785q45 -26 96 -35q50 -8 99 -3t96 13q46 9 102 15q55 6 101 1l2 280l-500 -22zM550 384q56 15 102 -33q38 -40 43 -93q5 -55 -35 -77q-7 -3 -15 -6q-74 -21 -131 21q-44 33 -51 82
q-7 53 39 85q20 14 48 21z" />
    <glyph glyph-name="T" unicode="T" horiz-adv-x="1140" 
d="M-169 1060q-10 0 -18 7q-8 8 -8 19l1 131q0 10 8 18q7 8 17 8l1357 5l237 -12l34 -154l-450 -12l-101 -267q53 -7 93 -33q41 -25 67 -64q25 -38 40 -87t18 -100q3 -52 -2 -105q-6 -54 -19 -100q-14 -48 -35 -86q-21 -40 -47 -63q-40 -37 -90 -67q-51 -31 -106 -53
t-116 -36t-121 -19t-120 1q-59 5 -114 20q-54 15 -101 43q-48 27 -85 64q-37 38 -61 89q-25 53 -33 114q-25 181 90 285q67 60 200 113q21 8 63 25q132 51 188 84q21 12 39 26q39 29 61 54q23 25 29 42q9 25 3 56q-3 14 -15 23q-12 8 -28 14q-18 7 -31 8q-16 0 -29 1h-50z
M924 532q-6 19 -58.5 52.5t-108.5 59t-74 24.5q-32 -1 -80.5 -18t-102 -45t-104 -64.5t-85 -78t-45.5 -86t15 -86.5q39 -63 110.5 -93t150.5 -26t158.5 34t137.5 78t84 114.5t2 134.5z" />
    <glyph glyph-name="U" unicode="U" 
d="M-1003 -664q-45 28 -85 73q-47 53 -51 92q-5 41 43 51q17 3 41 3q13 -1 38 -12.5t54.5 -29t60 -35.5t61.5 -33.5t52 -20.5q41 -9 86.5 -9t89 8.5t88 20.5t89.5 26.5t88 26.5t90 20.5t88 8.5q59 -51 -51 -122q-91 -60 -269 -119q-114 -38 -178 -50q-11 -2 -17 -2
q-31 -2 -75 7.5t-88.5 25.5t-85.5 34.5t-69 35.5zM-348 -383q-52 -26 -96.5 -43t-92 -28t-92.5 -12.5t-94.5 6.5t-102.5 27q-97 35 -142 97q-33 45 -28 89q3 36 28 53q31 21 76 4q17 -7 34 -19q7 -4 13.5 -14t12.5 -19.5t14.5 -20t18.5 -15.5q28 -14 69 -21t83.5 -6.5t83 6
t73.5 14.5q17 5 36.5 15.5t37 22.5t36 25t36.5 23t36 16t37 4t37 -13q98 -61 -21 -140q-30 -20 -93 -51z" />
    <glyph glyph-name="V" unicode="V" horiz-adv-x="1156" 
d="M1264 1251q13 -6 40 -37l29 -32q9 -25 6 -41q-11 -62 -27 -74l-304 -11q16 -30 9 -71q-16 -90 -22 -103l-30 -64q-15 -31 -14 -43q1 -15 11.5 -36t21.5 -40t18 -49q8 -30 6 -62q-2 -23 -12 -46q-11 -23 -22 -39t-20 -34q-10 -18 -10 -31q-1 -17 7.5 -37.5t19.5 -37.5
q10 -18 18 -44q8 -27 6 -54q-3 -53 -26 -106q-24 -54 -61 -90t-83 -39q-47 -3 -96 47l92 256q-5 5 -78 -18q-74 -24 -146 -51q-73 -28 -79 -33q-3 -3 -8 -14.5t-11 -28.5q-7 -16 -15 -36q-9 -21 -19 -39q-10 -19 -22 -35q-11 -17 -25 -25q-14 -9 -29 -10t-33 12.5t-36 40.5
q-7 10 -11 31q-3 21 -4 40t-8 39q-6 19 -19 28q-6 4 -23 9q-18 4 -40 7q-22 4 -45 10q-40 10 -44 13q-20 23 -31 51q-11 25 -12 29q-7 29 17 40q53 23 55 24q32 19 62 39q19 12 59 16q27 3 54 0q28 -3 51 -11q23 -7 47 -14q24 -8 44 -14q20 -5 40 -5q27 0 38 7q2 2 21 7
q19 6 37 13q17 8 23 16q9 12 25 21q17 10 34 16q16 6 35 14t34 16q14 8 26 22q11 13 13 31q2 17 -4 44l-576 -22q-24 -1 -41 16t-16 40l2 47q1 19 12 35q12 16 30 22q48 16 106.5 26t110.5 16q53 6 107 12q73 9 110 21q62 20 75 36q0 1 26 11q18 7 28 12q11 4 25 13
q19 12 21 19q6 13 12 54q3 23 1 34q-14 19 -97 19q-122 1 -148 -2q-55 -8 -192 -9q-62 -1 -125 0q-137 1 -196 11q-58 11 -63 11q-16 0 -80 -13q-60 -13 -98 -8q-23 34 -29 58q-6 23 -2 47q2 9 19 32q12 16 37 27t48 18q23 8 56 13q48 7 57 8q24 3 55 5q12 1 112 -2
q184 -3 218 -4q102 -5 219 -8q102 -3 220 -2q91 0 215 9q106 7 211 14z" />
    <glyph glyph-name="W" unicode="W" horiz-adv-x="525" 
d="M642 1239q24 -145 -55 -148q-44 -2 -96 -12q-3 -1 -48 -6q-36 -4 -47 -1q-28 -85 -16 -188q5 -41 4 -87q-1 -47 -10 -96q-8 -49 -22 -90q-14 -40 -36 -67q-19 -23 -91 -29q-1 1 -50 13q-19 4 -26 20q-8 19 -6 27q7 23 7 32q-1 33 -14 36q-2 1 20 40q6 11 18 41
q8 23 11 42q2 19 4 37q1 19 1 43q-1 2 -6 44q-8 83 -16 167q-58 -1 -53 9q1 3 2 3q-19 1 -57 0q-44 -2 -30 -1q45 2 31 -3q-38 -12 -44 -5q-1 1 -9 1q-27 -3 -50 -2t-41 5q-18 5 -27 16t-3 39q-39 92 8 117q13 7 82 6q75 -1 82 -1q21 4 41 4q75 1 86 2q4 0 88 -9q23 -2 81 2
q15 1 53 0q58 -1 78 5q31 8 37 9q22 4 23 4q37 0 64 -7q31 -9 32 -12zM292 1598q20 -1 34 -14q15 -13 19 -31l19 -78q7 -30 -10 -57q-18 -27 -48 -32l-88 -18q-30 -6 -53 14t-21 50l6 92q1 15 9 28q8 14 21 21q22 14 53 20t59 5z" />
    <glyph glyph-name="X" unicode="X" horiz-adv-x="1599" 
d="M1234 958v0l22 269l475 24l-22 -169l-261 -25q8 -33 10 -88q2 -56 -2 -124t-16 -145q-11 -76 -27 -151q-17 -74 -41 -143q-24 -68 -51 -120q-28 -52 -64 -83t-74 -32q-95 -2 -96 73q-1 54 53 175q7 17 24 54q56 123 71 177q20 74 -2 110l-301 -12q-5 -58 -23 -115
q-18 -56 -47 -106q-29 -49 -68 -92q-39 -44 -84 -77q-46 -34 -99 -57t-109 -33q-56 -11 -116 -6q-60 4 -120 25q-28 10 -65 46q-36 37 -66 82t-48 93q-19 48 -15 79q3 27 24 57q22 31 54 59q32 29 69 58t73 58.5t64 56.5t43 55q26 46 18 78q-5 19 -43 34q-55 22 -94 25
q-109 7 -131 5q-57 -8 -90 4q-2 0 -109 4q-49 1 -69 -2l2 166q54 1 109 0q62 -1 124 -3q48 -1 87 -2q4 0 121 2q49 1 102 -11q22 -5 56 -30t65 -57q31 -33 53 -68q24 -37 25 -61q1 -23 -2 -46.5t-9 -43.5t-17 -42t-21.5 -38.5t-27.5 -37.5q-18 -21 -29.5 -34.5t-33.5 -34.5
q-21 -21 -32 -31q-12 -11 -34 -31q-17 -15 -25.5 -23.5t-22.5 -21.5l-22 -22q-7 -8 -19 -21q-11 -12 -16 -21q-4 -8 -11 -19q-7 -12 -8.5 -20.5t-2.5 -18.5q0 -10 3 -19t9 -19q30 -13 72 -14q42 -2 86 7t85 25q42 16 74.5 40t49.5 52q17 29 24 62q7 32 6 56t0 54q2 31 9 55
q10 34 44 62.5t82 47.5q47 19 103 32q56 12 111 17q54 4 102.5 2t81.5 -11z" />
    <glyph glyph-name="Y" unicode="Y" 
d="M-333 1169q316 -24 400 64q30 30 -41 41q-33 5 -33 2q8 26 1 -3q-2 -5 -34 -1q-27 4 -29 4q-13 4 -20 13q-13 16 -23 46t-16.5 66t-12.5 73t-15 74q-9 38 -20 62q-15 33 -72 111q-46 63 -52 67q-48 33 -105 52q-16 5 -117 42l-70 -22l-11 -86q28 -15 102 -41
q41 -15 68 -49q49 -65 71 -103q18 -33 34 -67q10 -23 18 -77q6 -41 6 -83q-1 -42 -7 -86q-40 6 -69 16q-29 8 -46 19t-29 25q-12 15 -16 30q-6 15 -10 35q-5 20 -8 40q-4 19 -12 47q-8 26 -21 52q-22 43 -54 81q-33 37 -71 67q-39 30 -83 52q-43 23 -90 38q-22 7 -48 13
q-25 6 -56 10q-32 4 -60 4q-29 1 -57 -5q-27 -6 -47 -19q-19 -12 -31 -35q-11 -23 -8 -55q40 -3 78 -7q38 -5 76 -13q39 -8 71 -20q33 -12 65 -28t58 -36q25 -21 48 -48q22 -26 38 -58q16 -31 26 -70q14 -55 37 -123q39 -126 297 -111z" />
    <glyph glyph-name="Z" unicode="Z" horiz-adv-x="1656" 
d="M1801 1247q74 11 73 -32q-1 -60 -40 -112q-22 -30 -39 -36q-51 -19 -73 -11q-14 5 -27 10l-55 -11l-74 -43q-12 -75 -56 -200q-46 -135 -104 -279q-59 -145 -123 -271q-63 -125 -102 -159q-18 -15 -29 -24t-26 -17t-29 -11q-13 -2 -31 -2q-17 1 -39 6l-37 103
q17 18 42 62q26 44 53.5 102.5t57.5 129.5t57 142q26 72 49 142q22 70 35 126q12 54 15 114q3 41 -10 56q-16 3 -54 12q-38 8 -69 15q-62 15 -70 12q-6 -2 -70 -11q-44 -6 -57 -9q-25 -6 -42 -29q0 -41 7 -103q7 -61 12 -106t1 -103q-3 -57 -19 -105q-19 -58 -70 -126
q-51 -69 -115 -128q-64 -60 -138 -103t-135 -50q-66 -8 -129 16q-63 23 -107 70q-45 46 -76 106t-31 128q0 67 24 130q23 63 91 119q67 56 168 89q29 9 65 13t61 3q26 0 69 -2t62 -3q8 0 18 -3t16.5 -6t14.5 -6t12 -2q4 0 8 5q5 5 4 16q0 11 -2 30q-20 138 -21 138
q-37 23 -87 31q-60 11 -107 12q-117 4 -119 3q-111 -18 -305 2q-60 6 -101 -3q-61 -13 -103 -7q-25 3 -35 42q-6 21 5 55l66 76l340 4q130 14 355 4q375 -18 389 -18q31 0 157 9q26 2 154 -11q64 -6 129 4q39 -4 121 2q48 3 103 -2q54 -5 122 5zM325 532q25 -110 112 -116
q71 -5 157 57q67 48 98 103q25 44 10 67q-21 14 -68 15.5t-101.5 -8t-104 -26t-79.5 -41.5t-24 -51zM62 238q19 5 45.5 6.5t53 -4.5t36.5 -20q35 -85 -12 -123q-34 -28 -90 -19q-54 9 -79 45q-19 26 -13 59q8 20 24 35t35 21z" />
    <glyph glyph-name="bracketleft" unicode="[" horiz-adv-x="868" 
d="M329 1230l252 -9q26 -27 40.5 -95.5t17.5 -152.5t-0.5 -174.5t-11 -164t-16.5 -117.5q-8 -38 -19.5 -78t-28 -87t-36.5 -89t-45.5 -84t-54.5 -71.5t-63.5 -51.5t-72 -24.5t-80.5 9.5q-37 13 -50.5 45t-5.5 75t28 97.5t48.5 110.5t59.5 115t57.5 110t45 97.5t20.5 74.5
q3 37 -4 79t-19.5 77t-26 75.5t-24 75.5t-15 77t3.5 80z" />
    <glyph glyph-name="backslash" unicode="\" horiz-adv-x="1302" 
d="M268 1098l-351 -11l-30 127q10 30 32 34q25 4 63 -5q11 -3 65 5q60 8 65 8q920 -15 969 -15q102 2 102 1q-12 9 -15 9q35 3 67 1q48 -4 108 -6q66 -2 108 4q33 1 56 -21q7 -7 29 -73q3 -10 -3 -32q-8 -32 -32 -48q-23 -15 -79 -18q-56 -4 -124 1q-86 5 -96 -4
q-8 -7 -10 -7q-87 -18 -89 -33q-7 -58 -17 -81q-1 -2 -14 -46q-7 -24 -20 -38q-29 -30 -71 -55q-42 -24 -90 -40q-47 -16 -99.5 -27t-104.5 -15q-89 -6 -100 -4q-98 19 -196 39l11 -123q70 -56 157 -54q41 1 74 11q76 22 81 23q69 23 82 28q33 12 79 22q39 9 71 10t58 -13
q28 -16 40 -44q18 -38 8 -67q-9 -28 -39 -53q-30 -23 -70 -41q-40 -16 -84 -32t-81 -28.5t-61 -26.5q-24 -15 -24 -29q44 -52 88 -73q49 -23 90 -20q46 4 87 26q44 23 82 58q37 35 71 82l109 -32q8 -63 -9 -118q-17 -53 -52 -91q-36 -38 -86 -65.5t-107 -40.5
q-63 -13 -118 -14q-66 0 -118 11q-61 13 -106 36q-49 25 -82 60q-20 21 -33 60q-12 40 -17 75q-4 37 -14 72q-10 36 -24 51q-9 9 -28 17q-19 9 -43 15q-23 6 -52 14q-29 9 -58 17q-28 9 -57 22q-28 14 -52 30t-42 39t-28 51q-9 28 -7 66q3 44 18 82q5 14 16 26
q12 11 26.5 19.5t32.5 17.5q17 9 33 19q17 10 32 23t25 32q11 20 15 44q5 25 1 60q-8 64 -18 96zM467 1067l-1 -153q23 -5 51 -10t62 -8q34 -4 68 -5q48 0 68 1q43 4 65 9q30 7 56 17q26 12 41 29q16 17 22 41q9 34 -2 75q-49 -13 -97 -17q-47 -3 -89 0q-40 4 -78 10
q-19 3 -82 9q-44 5 -84 2z" />
    <glyph glyph-name="bracketright" unicode="]" horiz-adv-x="1140" 
d="M654 72q-13 12 -15 42t4 67t17.5 85t25.5 96t29 101t27 99t19.5 90.5t6.5 75.5q0 31 -8 70.5t-19 74.5t-22 73.5t-19 70.5t-9 63t6.5 54t30 40t59.5 24q35 7 63.5 -7t48 -44.5t34 -73.5t22 -94.5t11.5 -108.5t3.5 -115t-3 -112.5t-7.5 -103t-10 -85.5t-11 -61
q-5 -26 -13 -54t-20 -67.5t-27 -73.5t-33.5 -68.5t-40 -56.5t-44.5 -34t-50.5 -4t-55.5 37zM151 168q-1 8 27.5 69t64 134t67 156t35.5 128q4 33 -2 76.5t-14.5 94t-18.5 101.5t-14.5 99t-2.5 85.5t17.5 61t44.5 26.5q57 -17 98 -67t62 -120t30 -156.5t4.5 -176t-18 -178.5
t-34.5 -165t-47.5 -135t-53.5 -88q-24 -25 -56 -38t-63 -12.5t-58.5 11.5t-46 35.5t-21.5 58.5z" />
    <glyph glyph-name="asciicircum" unicode="^" horiz-adv-x="1276" 
d="M117 270q40 31 76 31t60.5 -25.5t37.5 -58t7.5 -67.5t-29.5 -54q-69 -53 -134 -35q-48 13 -68 56q-24 51 7 105q16 26 43 48zM1365 1251q1 -1 3 -5q7 -9 8 -12q1 -29 8 -68q3 -17 3 -21q0 -11 -5 -21q-7 -14 -19 -19q-33 -13 -36 -14q-59 -19 -63 -18q-71 3 -76 3l-11 -1
l-45 -308q-64 -123 -73 -172q-39 -192 -116 -319q-117 -191 -195 -242q-72 -46 -115 -24q-41 20 -34 95q6 65 159 286l-159 -33q-262 -54 -414 71q-35 28 -76 91q-20 31 -39 90q-14 45 -2 65l218 362q-5 7 -31 9q-25 2 -61 1t-79 -1q-60 -1 -85 4q-81 19 -87 16
q-46 -22 -79 17q-3 4 -4 22q-10 116 22 135q5 3 67 4q96 1 107 0q7 0 112 3q80 2 111 -2q43 -7 96 -19q21 -5 67 -33q27 -17 39 -44t11 -61q0 -52 -2 -64q-1 -5 1 -19q4 -28 20 -46q16 -19 48 -34t68 -24t76 -21q40 -13 73 -26q87 -34 90 -36q26 -24 35 -55l75 458
q13 19 35 27q22 9 44 9q23 -1 47 -7zM278 636l80 -86q58 -18 60 -20q4 -3 48 -9q25 -3 45 -4q21 -1 46 5q68 14 71 17l79 51l40 71q-60 60 -134 77q-97 21 -170 8q-52 -9 -78 -32q-6 -5 -87 -78z" />
    <glyph glyph-name="underscore" unicode="_" horiz-adv-x="1160" 
d="M1160 -124h-1160v116h1160v-116z" />
    <glyph glyph-name="grave" unicode="`" 
d="M-147 1666v0q33 9 56 5q22 -3 34 -17t16 -33q4 -22 1 -45q-4 -24 -11 -48q-8 -25 -18 -47q-15 -30 -44 -54q-29 -22 -64 -37q-36 -13 -77 -20q-42 -7 -84 -7q-42 1 -84 7q-42 7 -78 19q-38 12 -65 29q-46 27 -88 79q-46 56 -54 102q-7 52 39 67q32 9 84 2q10 -34 31 -64
q22 -30 50 -49q28 -20 63 -32t69 -14q35 -3 70 6q36 7 65 25q7 5 14 15q6 11 9 23q4 12 9 25t11 26q5 12 18 22q12 10 28 15z" />
    <glyph glyph-name="a" unicode="a" horiz-adv-x="1594" 
d="M358 15q-49 22 -98 75q-9 10 -70 140q-64 135 -65 136q-16 50 -27 147q-7 71 -10 150q-2 79 0 140q5 186 7 261l-215 12l4 165l207 7q39 106 104 196t147 157q82 66 182 108q99 43 203 56t216 -7q105 -18 217 -75q7 -3 77 -56t75 -59q19 -22 33 -58q14 -34 22 -66
q7 -31 20 -64q5 -13 30 -58q22 -39 35 -56q14 -17 31 -18h88q130 1 133 0q44 -14 20 -104q-16 -56 -46 -51q-69 11 -82 -13q-3 -5 -5 -4q-8 3 -10 3q-40 -10 -43 -4q-5 9 -50 6q-8 -1 -29 -24q-31 -32 -31 -36q0 -98 -5 -176q-5 -91 -6 -91q-30 -59 -29 -84q3 -43 -44 -89
q-44 -43 -57 -48q-29 -13 -53 -21q-23 -9 -25 -11q-9 -11 -15 -38q-5 -27 -8 -59q-16 -32 -24 -65q-11 -42 -29 -83q-24 -54 -56 -83q-99 -97 -101 -98q-47 -35 -134 -58q-125 -33 -191 -26q-149 16 -180 9q-56 -12 -113 15zM381 502q-26 -158 69 -237q75 -63 203 -53
q107 9 180 76q89 83 69 209zM611 1531q-21 -9 -58 -34t-79 -60q-43 -34 -77 -71q-32 -33 -51 -70q-16 -32 1 -55l823 18q-2 75 -27 139q-24 65 -65 102q-40 38 -94 60q-55 21 -116 24t-127 -10q-66 -14 -130 -43zM1188 1054l-845 -2l-6 -312l46 -22q27 11 87 0q5 -1 61 1
q28 1 138 -6q63 -4 121 -8q59 -3 115.5 -2t104.5 13q48 11 86 35q34 21 61 66q11 18 31 237z" />
    <glyph glyph-name="b" unicode="b" horiz-adv-x="1126" 
d="M1194 1252q44 -31 23 -125q-11 -49 -103 -52q-132 -4 -143 -2q-4 -4 4 -73q20 -155 24 -241q3 -59 11 -112q6 -46 -6 -84q-1 -2 -13 -105q-8 -61 -29 -113q-23 -59 -51 -113q-28 -55 -63 -103q-36 -47 -73 -81t-80 -51q-44 -16 -86 -9q-53 9 -72 46q-21 40 -7 90
q3 10 19 21q17 11 39.5 21t48 24t45.5 28.5t31 34.5q11 21 5 44q-34 4 -84 9q-50 4 -89 7q-38 3 -86.5 9.5t-86.5 15.5q-37 8 -79 24q-46 18 -73 37q-35 25 -62 54q-41 47 -80 105l163 215q-36 113 -45 137q-15 44 -55 99q-15 21 -28 30q-41 28 -61 35q-97 30 -87 23
q17 -9 4 6q-2 2 -88 -13l-9 158zM771 932q-8 38 -19 57q-18 30 -32 38q-80 22 -81 22q-26 8 -49 10q-27 2 -54 2q-46 -1 -58 -3q-19 -3 -39 -5q-28 -2 -57 -1q-31 1 -54 4q18 -107 87 -145q99 -55 164 -69q87 -19 179 65q11 11 13 25zM743 516l4 157q-30 1 -58 0
q-28 -2 -57 -2q-31 1 -57 4q-26 2 -54 13q-45 17 -60 29l-114 -160q99 -39 105 -41q46 -22 96 -26q49 -5 98 2q50 6 97 24z" />
    <glyph glyph-name="c" unicode="c" horiz-adv-x="1356" 
d="M1001 1012v1q-20 32 -87 52t-163 27.5t-208 9.5q-113 2 -232 -1q-181 -4 -216 -6q-42 -2 -85 -2q-87 1 -127 8l17 147l1649 14q13 -67 -3 -107t-54 -52q-39 -11 -91 -14q-75 -2 -140 5q-41 3 -73 -6q18 -44 23 -96q5 -51 -2 -102q-7 -50 -26.5 -98t-49.5 -85t-73 -61.5
t-94 -28.5q113 -208 29 -357q-60 -107 -209 -160q-143 -51 -308 -33q-166 17 -270 96q-117 89 -112 228q1 21 11 44q9 22 20 38t21 35t12 33q1 14 -6 36q-7 23 -17 45q-10 23 -21 49q-10 26 -14 50.5t0.5 48t24.5 44.5t57 35q46 19 86 26t68 3q28 -5 51 -16
q24 -11 39.5 -26.5t29.5 -32.5t23 -32t20 -26q10 -12 20 -14q26 -8 62 -9t76 4q39 5 82 15t83 26t76 35t62.5 43t42.5 50q15 26 15 56q-1 31 -19 61zM346 334q54 -31 114.5 -49t117 -20.5t105 12t78.5 48.5t37.5 88t-17.5 132q-12 -1 -34 -2q-39 -2 -58.5 -3.5t-55 -5
t-55.5 -7.5t-50.5 -12t-49 -18t-41.5 -25.5t-38 -35t-29.5 -45.5t-23.5 -57z" />
    <glyph glyph-name="d" unicode="d" horiz-adv-x="1116" 
d="M-148 1213q-1 13 8 23t22 10l1246 2q154 0 171 -25q46 -73 5 -155q-6 -12 -84 -22q-118 -15 -174 0q22 -228 -86 -348q-58 -66 -190 -133q-30 -15 -94 -44q-138 -63 -203 -104q-71 -45 -121 -97q34 -25 69 -40t67 -21q32 -7 67 -4q34 2 64 9q29 6 63 21q35 15 61.5 29.5
t60.5 37.5t58 40.5t57 43.5q37 -15 61 -32q24 -16 34 -31q11 -14 13 -30t-3.5 -29t-14.5 -27q-10 -14 -20 -24l-20 -22q-11 -11 -15 -18q-25 -36 -51 -60q-26 -25 -74 -53q-97 -58 -259 -62t-291 46q-132 51 -165 138q-44 114 101 261q-129 68 -131 150q-1 62 69 113
q72 51 172 60q70 7 136 -15q19 -6 42 -25q24 -19 45 -37q22 -17 39 -21q24 -5 55 5q30 11 60 32q29 21 57 52q27 30 47 63q19 32 28 67q13 46 4 92l-948 56q-11 0 -19 9q-8 8 -9 19z" />
    <glyph glyph-name="e" unicode="e" horiz-adv-x="1132" 
d="M144 1034q-26 8 -50 6t-49 -6q-25 -5 -49 -12q-23 -7 -47 -10q-24 -4 -45 -2q-21 1 -42 14q-20 12 -38 36q17 113 20 117q38 61 53 57q28 -8 85 4q53 12 71 6q35 -11 77 0q75 19 79 19q7 0 78 -20q35 -10 94 0q36 6 121 -1q122 -11 192 -7q131 9 213 19q20 3 189 1
q95 0 174 -14q80 -14 115 -49q21 -44 27 -77t2 -53t-23 -32q-20 -12 -37 -16q-13 -4 -50 -4q-79 1 -93 4q-19 2 -54 7q-86 12 -93 6q-11 -12 -31 -29q-51 -43 -59 -58q-6 -11 -12 -72q-4 -41 -30 -74q-14 -18 8 -61l-48 -26q-20 -16 -54 -30t-72 -23t-81 -19
q-44 -10 -87 -19q-42 -9 -84 -21q-41 -13 -75 -26.5t-60 -35t-39 -46.5q-13 -26 -10.5 -61.5t23.5 -79.5q23 -48 60 -72t79 -22q41 1 88 18q46 16 91 45q44 29 84 63q41 35 72 69t51 63q79 21 105 -40q23 -53 -1 -137q-25 -82 -77 -130q-52 -49 -112 -82.5t-120 -50.5
q-59 -16 -120 -19q-61 -2 -117 9t-106 35q-51 25 -91 59q-41 35 -70 82q-28 47 -42 101q-14 55 -10 120q4 66 29 136q8 23 23 42q15 18 32 29q16 11 31 20q16 8 27 17q11 8 13 17q5 23 5 54q0 30 -4.5 62.5t-15.5 64.5q-11 33 -27 60q-15 27 -37.5 47t-48.5 28zM825 999
q-21 7 -51.5 12t-66 6.5t-73 -1.5t-73 -10t-66 -20.5t-52.5 -32t-31 -45.5t-2.5 -60t83.5 -35q87 -3 183 31q110 40 140 100q14 26 9 55z" />
    <glyph glyph-name="f" unicode="f" horiz-adv-x="1206" 
d="M1084 1249v0l26 -2q-63 -3 -38 -1q8 1 31 1q9 -1 36 0q39 3 78 2q63 -4 74 -4q1 0 61 -26q26 -11 40 -27q14 -17 10 -47q-5 -30 -29 -71l-305 -18q-39 -51 -59 -91q-20 -41 -24.5 -69t-0.5 -59q5 -31 14 -56t18 -67q9 -41 11 -83q4 -71 -12 -141t-47 -129
q-31 -60 -78 -111q-47 -50 -102.5 -84.5t-123.5 -51.5t-140 -11q-204 15 -273 110q-51 69 -15 160q33 83 120 146q109 77 241 80q114 3 219 -53l-13 190l-661 -50l1 123q4 12 46 27q52 18 54 18q62 8 139 14q76 7 154 19t144 28q67 17 115 45q48 29 60 68q-76 21 -168 29
q-91 8 -179 7q-88 -2 -174 -4q-94 -3 -179 1q-84 4 -140 18q-34 9 -35 9q-20 -6 -39 -4l-55 6q2 18 -17 37q-15 14 -23 28q-10 17 -7 52q2 21 14 38q9 12 130 14q101 2 238 -3q146 -5 295 -8q149 -4 194 0q27 2 56 0q30 -2 58 8q8 2 51 3q55 2 63 -1q36 -14 76 -10
q41 4 70 1zM581 281q10 2 25.5 7t37.5 14t42 20.5t37 24.5t23.5 29t-0.5 32q-103 39 -197 -1q-59 -25 -85 -66q-22 -36 0 -56q29 -26 117 -4z" />
    <glyph glyph-name="g" unicode="g" horiz-adv-x="1408" 
d="M-32 1102q-5 1 -16 5q-9 3 -13 4q-4 2 -12 5q-8 2 -12 5q-5 2 -11.5 5.5t-10.5 6.5q-3 4 -8 9q-4 4 -6 9l-4 12t-2 13q1 8 3 16q-13 28 18 48q23 15 73 10q111 -11 114 -6l1 1q25 -5 83 2q3 0 79 3q162 7 194 1q64 -13 214 -9q190 4 204 4q171 -4 195 0q3 0 275 2
q197 2 198 0q91 -127 6 -157q-55 -19 -167 -27q-74 -5 -83 -18q33 -118 37.5 -271.5t-22.5 -275.5q-27 -115 -85 -225q-10 -19 -23 -39q-12 -19 -28 -42t-33 -43t-35 -40q-19 -19 -38 -33q-19 -13 -39 -22q-19 -10 -38 -9q-19 0 -37 8q-17 9 -34 30q-16 21 -30 54
q13 35 35 73q23 38 50 79q28 41 42 69q2 3 13 7q11 5 23 13q13 9 19 22q11 27 19 58t13 58q6 27 8 65q2 37 3 62q1 24 -2 67l-3 63q-2 20 -7 67q-6 46 -8 61t-9 69t-8 63l-252 5q-11 -42 -7 -83q3 -34 14 -73q12 -39 25 -71t23 -67q11 -36 10 -62q0 -53 -17 -113
q-17 -61 -47 -120t-72 -116t-91 -104.5t-106 -83.5q-58 -35 -116 -54t-121 -15q-63 3 -120 32q-39 18 -62 62t-29 99t-2 117q5 63 19 120q14 56 34 104q20 47 42 72q7 7 123 65q119 60 127 60q15 2 23 3q8 0 26 -3l27 -6q9 -3 27 -8q14 -3 21 -5t19 -5q12 -2 17 -2h14
q8 1 11 4q4 4 6.5 9t2.5 14q-1 16 -5 21q-27 38 -41 68q-49 101 -72 143q-4 7 -95 22q-53 9 -108 10t-116 2q-112 0 -114 1q-5 2 -25 7q-86 18 -88 19zM297 307q65 -10 125.5 9.5t103.5 59.5t70 97.5t30 120.5q-47 -2 -83.5 -6t-73.5 -13.5t-64 -23t-51 -35.5t-37.5 -50.5
t-19 -68.5t-0.5 -90z" />
    <glyph glyph-name="h" unicode="h" horiz-adv-x="1230" 
d="M472 1070q-75 -4 -84 -6q-67 -12 -122 -3q-48 7 -137 4q-71 -3 -91 -5q-50 -4 -102 16q-7 3 -51 -4l-2 67q-1 60 34 88q38 30 83 22q61 -10 133 -4q40 4 234 1q215 -3 287 4q21 2 233 -3q149 -4 223 -2q24 1 91 3q104 2 108 0q7 -4 20 -94q2 -15 -2 -54l-260 -22
q10 -188 10 -189q9 -67 13 -118q7 -81 11 -107q6 -37 4 -143q-1 -57 -10 -109q-25 -150 -158 -261q-117 -97 -276 -131q-162 -35 -290 11q-131 47 -193 201q-69 168 -10 352q13 41 35 71q49 64 50 66q29 21 42 26q65 22 81 21q13 0 15 1q30 13 78 2q25 -5 77 -3q28 0 72 -5
l-27 -192q-21 11 -45 6q-52 -8 -92 -27q-38 -18 -51 -45q-13 -31 -20 -60q-11 -43 -4 -67q30 -101 40 -105q338 -130 400 84l4 56l8 647q-247 15 -359 10z" />
    <glyph glyph-name="i" unicode="i" horiz-adv-x="722" 
d="M422 1057l-28 -58q38 -115 42 -407q2 -170 -21 -260q-27 -107 -64 -178q-43 -80 -104 -156l-186 21q7 47 24 99q18 52 37 95q40 89 40 90q50 87 35 103q-3 3 21 175q6 45 -1 105q-21 193 -43 385l-271 36l-13 135h286q-24 74 -12 221q5 57 34 105q28 48 69 88
q42 40 98 69q56 28 116 47q60 18 127 23q66 5 128.5 -2t121.5 -30q60 -23 106 -59q32 -25 50 -85q17 -61 17 -124q-1 -196 -23 -247q97 21 139 10l70 -18q20 -5 7 -72q-10 -55 -22 -56q-11 -2 -27 -8q-32 -14 -33 -14q-99 -3 -237 1q-175 5 -179 5q-35 -1 -182 -15
q-47 -4 -122 -24zM834 1514q-11 59 -86 77q-78 19 -177 -8q-101 -29 -153 -86q-55 -60 -36 -212q8 0 29 -1q27 -1 44 -1q16 -1 50.5 -1.5t57.5 0.5q24 1 58 3q35 1 59 6q39 7 52 11q27 9 46 16q22 8 34 23q11 16 20 134q3 34 2 39z" />
    <glyph glyph-name="j" unicode="j" horiz-adv-x="1420" 
d="M1410 1242v1q28 -4 44 1q12 3 71 3q38 0 37 -25q-3 -52 4 -67l12 -26q20 -18 -6 -29l-17 -12q-41 -26 -46 -27q-26 -1 -58 1l-64 4q24 -1 45 9q-42 -20 -62 -9q-1 1 -51 3q-20 1 -41 0q15 -86 4 -138q-6 -30 -21 -55q-14 -25 -33 -48t-40 -45l-40 -40q-28 -30 -33 -38
q-12 -25 -20 -37q-12 -18 -9 -55q0 -4 -5 -128q-2 -41 -3 -90q-2 -49 -6 -96q-5 -48 -12 -94q-8 -47 -23 -85q-15 -39 -35 -67q-21 -29 -54 -43q-32 -14 -74 -10q-44 5 -70 30q-46 42 -45 67l100 438l-385 -40q-12 -41 -9 -175q3 -140 -26 -181q-65 -92 -217 -76l-10 2
l41 360q-24 -8 -48 -8t-44 9t-37.5 22.5t-29.5 32.5q-12 20 -21 41q-6 14 -8 93q-1 24 4 45q6 21 20 42q15 20 37 36q31 21 59 31t51 9t45 -7q21 -7 43 -18t42 -22t46 -21q29 -10 50 -13q34 -3 72 -3q39 1 81 8q42 8 85 19q43 10 85 28t80 39t71 48q45 37 58 58q25 39 41 95
q17 61 18 79q-153 -22 -305 -18q-304 8 -316 8q-83 -6 -298 -6q-174 0 -240 2q-14 61 -14 73v87q17 35 31 34q19 0 54 -3q15 -1 55 2l29 1q5 0 20 -3q42 -7 65 -5q54 7 149 6q104 -1 156 -2q145 -4 149 -4q102 -1 162 1t158 6q117 4 167 2q146 -3 154 -3q126 -3 158 -2
q16 1 23 -2z" />
    <glyph glyph-name="k" unicode="k" horiz-adv-x="1228" 
d="M913 1062q-33 -9 -200 1q-144 9 -159 8q-113 -6 -166 -8q-59 -2 -159 4q-22 1 -87 -1q-149 -4 -148 2q0 2 -4 4q-40 14 -63 15q-16 0 -22 13q-4 7 -4 27l1 102q0 8 13 16q7 4 19 4h97q77 0 104 -1q81 -3 90 -3q133 4 162 3q128 -5 171 -2q32 2 162 2q147 1 165 -6
q7 -3 45 -1q28 2 95 -3q39 -2 97 7q49 7 55 8q72 6 85 5q46 -5 58 -12q7 -3 15 -36q21 -84 -7 -99q-58 -31 -115 -36q-83 -6 -106 -1q-11 3 -26 -14q1 -160 -19 -224q-20 -63 -49 -119q-29 -57 -58 -111q-30 -55 -51 -104t-23 -78q-1 -27 9 -56q19 -49 23 -63q15 -45 36 -92
q11 -25 14 -80q3 -40 -8 -89q-32 -29 -68 -40q-23 -6 -44 2q-29 10 -54 34q-3 3 -42 57q-45 60 -65 125q-3 9 -26 69q-48 -34 -106 -52t-116 -20q-54 -2 -114 12q-57 13 -105 39t-85 65q-37 40 -57 87q-20 46 -19 109q1 57 28 125q15 36 48 67q31 29 77 54q39 21 96 37
q53 15 106 20q54 5 106.5 -0.5t97.5 -21.5q44 -17 85 -48q47 -36 61 -74zM607 615q-155 54 -276 6q-55 -22 -69 -66q-17 -55 26 -109q38 -47 121 -49q89 -1 218 55z" />
    <glyph glyph-name="l" unicode="l" horiz-adv-x="1478" 
d="M373 1085q-11 -12 -96 -15q-25 0 -232 9q-133 5 -132 17q2 137 11 152l1693 -9q2 -9 4 -15q1 -5 2 -7t1 -4q1 -3 1 -7q1 -5 9 -27t13 -47q11 -40 3 -39h-29q-35 1 -60 -14q-17 -10 -80 -11q-88 0 -90 -1q-92 -17 -90 -16q61 18 70 23q7 4 -60 -27l-107 -336
q129 -19 164 -125q31 -95 -21 -226q-47 -122 -139 -212q-103 -101 -211 -109q-34 -2 -66 6q-9 37 -9 64q1 28 11 53q10 26 25 46q15 19 36 40q20 20 40.5 37t42.5 38q21 20 39 40t32 45q14 26 20 54q26 120 -91 116q-69 -2 -228 -62q-62 -24 -73 -27q-28 -6 -65 -9
q-36 -4 -68 -4q-33 0 -70 -3q-37 -2 -69 -6q-31 -4 -64 -16q-32 -11 -58 -29q-25 -18 -47 -48q-22 -31 -36 -72q13 -10 31 -23l30 -20q11 -8 25 -20q15 -12 23 -22q8 -9 16 -23q8 -15 10 -30t1.5 -35t-6.5 -44q-50 -18 -96 -20t-83 11q-36 13 -66 37q-31 25 -50 58
q-19 32 -28 72t-6 82q2 42 19 86t47 84q11 14 32 27q22 14 41 23q19 10 35 25q17 16 21 35q3 14 -2 42q-5 27 -12 55t-11 64q-4 35 1 67q4 22 17 47q12 26 27 50q15 23 29 48t23 53q8 28 6 54zM1106 1011q-32 0 -69.5 -0.5t-77.5 1.5t-81.5 1t-82.5 -2t-80.5 -8t-74 -17.5
t-64.5 -29t-51.5 -43t-35 -60t-15.5 -79.5q31 -42 73.5 -66t88.5 -28t96.5 5.5t98.5 32t93.5 54.5t82 70.5t62.5 82t37 86.5z" />
    <glyph glyph-name="m" unicode="m" horiz-adv-x="1518" 
d="M293 890q-42 47 -47 53q-38 68 -59 72q-57 10 -58 14q-4 19 -6 19q-58 -6 -58 -7q0 14 10 13q-56 7 -68 10q-25 8 -64 16q-12 3 -66 7q-19 34 -15 50q23 102 29 103q132 23 186 7q29 2 56 -5q203 -55 208 -57q24 -10 45 -28q19 -24 39 -46q17 -19 34 -47q16 -28 28 -51
t25 -56.5t21 -56.5q7 -23 17.5 -58.5t14.5 -54.5q5 -18 13 -51q3 -11 4 -16l512 -10l2 483q28 27 62 42q44 19 66 15q29 -4 72 -2l73 2q-2 -10 -25 -15q1 0 3 1q31 6 37 5q32 -5 42 -3q46 9 49 9q37 2 64 -4q28 -7 52 -31q23 -24 36 -65q0 -1 -15 -37q-4 -11 -35 -34
q-26 -18 -51 -25q-34 -9 -35 -9q-77 0 -83 2q-17 7 -18 7l-8 -4q1 -13 -7 -16q-19 -7 -39 -14q11 -66 6 -198q-2 -54 -12 -118q-10 -65 -27 -137q-18 -73 -42.5 -159t-55 -152t-66.5 -117q-35 -52 -75 -86q-40 -35 -84 -42q-47 -7 -90 15q-40 20 -60 44q-20 23 -21 47
q0 23 11 48t32 51t45 52q36 39 47 54q31 40 42 53q3 4 26 86q8 28 1 54q-9 10 -78 7.5t-151 -10.5q-82 -9 -158 -21t-101 -22q-18 -8 -42 -28q-23 -21 -47 -48q-23 -27 -50 -59q-26 -32 -53 -62q-26 -29 -54 -56q-27 -27 -54 -44q-28 -17 -54 -22q-25 -6 -51 7t-48 45
q-21 29 -21 63t15 68q16 34 42 70q25 37 56 76q30 38 60 77q30 40 53.5 81.5t36.5 82.5t9 86q-5 58 -30 87z" />
    <glyph glyph-name="n" unicode="n" horiz-adv-x="1378" 
d="M1482 1228l37 -119q-8 -30 -38 -33q-38 -2 -80 -6q-32 -3 -57 -13q-11 -5 -12 -5h-53q-61 0 -111 1q-50 2 -85 -1l-52 -30q-16 -60 -23 -108t-4 -76q3 -27 11 -45q7 -18 23 -34q15 -15 31 -29q15 -13 36 -37q22 -24 39 -53q30 -51 47 -110q17 -60 21 -118q3 -58 -6 -115
q-10 -57 -31 -104q-21 -48 -56 -83q-36 -36 -80 -54t-104 -13.5t-126 34.5q-6 8 -8 17q-1 9 3 19q4 11 9 19q4 8 16 21t19 21q8 7 23 23q23 22 35 35q12 12 31 36q20 24 28 41t14 43q7 26 3 48q-5 23 -20 51q-14 28 -40 56q-30 30 -63 49q-34 18 -64 26t-69 4q-40 -4 -68 -9
q-28 -6 -71 -24q-65 -25 -68 -28q-33 -27 -68 -33h-1q-22 -11 -34 -32q-13 -20 -11 -46l13 -187q2 -25 -14 -45q-15 -21 -40 -26l-75 -15q-28 -6 -56.5 1t-49.5 26q-44 38 -65 89q-22 52 -21 106q1 55 19.5 110t51.5 105q23 33 70 64q48 31 104 54t119.5 45.5t120.5 42.5
t102 39q46 20 70 43q23 22 19 47q-1 6 2 18q2 6 5 32q6 43 -5 92h-19q-40 5 -232 11q-173 5 -230 -11q-13 -4 -83 -6q-68 -1 -118 -11q-33 -7 -38 -7q-50 -4 -98 9q-38 11 -45 36q-25 93 -24 93q-3 51 3 55q40 25 50 27q80 9 94 1l18 -11q55 7 68 6q51 -4 57 -4q37 4 43 4
q129 -9 170 -7q184 4 196 4q39 2 191 0q155 -2 186 -2q49 1 121 -2q131 -6 137 -2q39 18 46 12q1 -2 115 -1q68 0 99 -21z" />
    <glyph glyph-name="o" unicode="o" 
d="M-117 1201v0q2 106 4 114q11 84 4 94q-29 41 -20 76q2 8 -10 47q-6 20 -23 45q-12 20 -38 33q-25 13 -52 17q-18 2 -61 3q-30 1 -68 -4q-36 -4 -71 -7q-36 -3 -73 -5q-49 -3 -69 2q-40 11 -65 23q-73 40 -82 40q-4 0 -22 19l-17 19q-8 10 -13 18q-7 13 -9 19q-3 16 -6 20
q-1 2 -4 23q-3 14 -3 24q-1 10 -4 28q-2 20 -3 32q-4 27 -10 42q-14 31 -34 19q-15 -8 -32 -49q-21 -49 -20 -120q1 -35 -4 -71q-2 -10 22 -84q12 -37 23 -58q23 -45 77 -75t55 -30q38 -4 76 -7q44 -3 52 -7q16 -7 49 -5q6 0 44 -3q30 -1 61 6q33 7 61 12q57 11 58 11
q31 9 60 -1l43 -72v-188h124z" />
    <glyph glyph-name="p" unicode="p" horiz-adv-x="1224" 
d="M866 77q-89 -91 -152 -76q-42 10 -55 64q-16 64 18 142q37 86 78 170q-97 1 -114 -4q-75 -22 -132 -25q-30 -1 -108 18q-49 12 -99 33t-91 52q-41 30 -78 74t-64 99q-4 41 5 75q10 35 30 60q19 26 44 49q25 22 53 44q28 21 53 43q25 21 45.5 74t30.5 84q-56 12 -65 18
q18 -12 -1 6q-21 19 -104 1q-25 -5 -29 -6q-18 -1 -61 3l-103 9q-34 13 -52 42q-22 37 -12 126q17 -2 96 1q81 2 85 0q15 -6 29 -6q110 3 111 3q6 -4 16 -5q1 0 100 -1q33 0 88 -24q63 -27 73 -55q19 -54 23 -122q2 -38 4 -71q0 -9 -32 -68q-34 -63 -24 -73l-49 -56t-55 -62
q-24 -22 -43 -44q-6 -7 -13 -25q32 -32 54 -46q44 -28 52 -32q15 -7 33 -10q37 -9 51 -11q23 -3 52 -2q47 4 53 5q31 7 44 10q43 8 56 13q39 14 58 5q1 0 61 15q4 37 16 91t21 104q12 65 8 92q-4 26 -10 61q-8 63 -8 64q-10 29 -16 62q-6 34 -3 60t22 52q20 26 59 44
q53 26 163 27q136 1 137 2q131 2 100 -134q-3 -12 -19 -37l-206 6l-45 -586q-2 -3 -37 -95q-55 -146 -82 -224q-24 -68 -60 -103z" />
    <glyph glyph-name="q" unicode="q" horiz-adv-x="1344" 
d="M1162 861q-12 -25 -28 -30q-24 -9 -36 -19q-28 -24 -32 -26q-16 -5 -18 -9q-9 -19 -5 -39q4 -21 15 -52q12 -31 24 -60q13 -29 21 -64t5 -64q-9 -80 -52 -160q-43 -79 -105.5 -141t-143.5 -103q-80 -41 -160 -48q-44 -4 -109 4t-138.5 27.5t-143 51t-121.5 74.5
q-51 42 -72 97t2 120q34 11 61 13t44.5 -4t31.5 -15q13 -9 23 -22q11 -13 19 -25q9 -12 20 -24q12 -12 25 -18q58 -29 119 -47q60 -19 119 -24q59 -6 112 1q53 6 98 30t77 62t48 98t11 136q-54 -3 -143 -13q-88 -9 -148 -15t-140 -5t-150 14q-28 5 -46 11t-30 16
q-12 9 -17 20q-5 10 -4 28t6 37q5 20 16 50q45 8 112 17t118.5 16.5t114.5 18.5t116 26t107 37q77 31 103 54q31 28 89 114q-32 28 -70 42q-14 6 -77 15q-74 12 -81 12q-77 -5 -104 -5q-76 0 -82 -1q-24 -2 -83 -9q-9 -1 -78 2q-11 0 -198 -4q-157 -3 -217 11q-32 7 -60 21
q-31 14 -38 27q-8 16 -19 24q-2 1 -3 1q-1 9 11 48q8 24 22 57q104 6 318 -2q189 -6 291 -1q226 11 277 5q98 -11 293 -2q226 10 373 0q2 -78 1 -79q-23 -10 6 -51q8 -12 -12 -32q-13 -13 -36 -18q-24 -6 -53 -10q-30 -3 -57.5 -5t-52.5 -6q-25 -5 -37 -12q-15 -10 -22 -35
q-8 -24 -9 -43t-5 -49q-5 -30 -13 -47z" />
    <glyph glyph-name="r" unicode="r" horiz-adv-x="1174" 
d="M1153 1249q12 -3 41 -2q35 1 49 0q16 -2 25 -37q7 -27 5 -50q-4 -34 -29 -84l-195 -26q12 -29 5 -229q-4 -105 -30 -217t-66 -213t-80 -160q-45 -66 -106 -114q-60 -48 -125 -74t-134 -34q-70 -8 -134 2q-64 11 -122 40q-58 30 -100.5 74t-68.5 108t-28 139q-1 44 16 83
q16 40 41 70q25 31 68 59q44 28 82 48q39 20 99 39q59 20 100.5 31.5t106.5 24.5q64 14 97 20t91 16l60 10l19 255q-15 22 -72 31q-84 12 -140 8q-116 -9 -161 -4q-20 3 -150 5q-91 1 -95 1q-15 -2 -58 3q-21 2 -80 8q-29 3 -33 3q-30 -2 -31 -2q-23 4 -67 3q-42 -1 -51 13
q-59 100 -12 148q7 7 58 4q95 -5 116 -3q24 2 47 2h173q148 0 152 -1q23 -4 97 1t171 -1q24 -1 197 0q83 0 166 1q82 1 86 1zM317 282q23 -38 57 -57q33 -18 70 -17t78 16q40 15 78 41q38 27 72 61q34 35 59 72q25 38 39 78q14 41 13 76q-3 0 -9 -1q-5 0 -8 -1q-4 0 -11 -1
q-34 -3 -54 -6q-20 -2 -63 -8q-42 -5 -70 -11q-29 -6 -70 -16q-41 -9 -68 -20q-26 -12 -57 -26q-31 -15 -46 -33q-16 -19 -27 -41q-10 -21 -6 -48q5 -28 23 -58z" />
    <glyph glyph-name="s" unicode="s" horiz-adv-x="1388" 
d="M-120 1093q-10 0 -21 20q-4 9 -5 10q-1 3 8 45q9 44 21 58q15 19 32 20q183 -1 218 -1h249q13 -2 238 0q153 2 247 5q39 1 241 -2q143 -2 204 -10q16 -2 59 12q26 8 57 6q50 -4 81 -24q30 -21 38 -52q7 -28 -2 -34q-30 -29 -61 -58l-257 -18q19 -228 -15 -442
q-31 -197 -94 -354q-6 -15 -15 -43q-10 -27 -17 -46q-6 -20 -18 -46q-11 -26 -22 -44q-10 -18 -26 -37q-16 -20 -33 -31q-18 -11 -41 -18q-24 -7 -50 -5q-29 1 -48 10q-20 8 -28 26q-9 17 -13 35q-5 17 0.5 46.5t9.5 50.5q5 21 18 56q14 36 21 55q8 20 23 56q11 25 16 37
t13 32t11 31t5 24q3 12 2 20q-1 7 -5 11l-486 -1q-6 -17 -16 -39t-24 -49q-14 -28 -30 -55q-16 -28 -35 -56t-39 -52t-41 -42q-22 -18 -43 -28t-43 -9q-22 2 -41 16q-26 36 -36 75q-9 39 -5 72t17.5 71.5t29.5 68.5t36 70q19 40 30 68q28 79 28 88q-1 62 8 87q27 75 7 284
q-35 -7 -78 14q-21 10 -69 7q-22 -1 -66 6q-46 7 -49 7q-43 -3 -96 -4zM517 1055l-40 1l1 -313l485 -30l38 338z" />
    <glyph glyph-name="t" unicode="t" horiz-adv-x="1226" 
d="M-14 1067q-12 2 -37 9q-31 9 -40 13q-29 11 -39 18q-8 5 -12 13q-3 6 -1 30q-3 2 -3 6q1 38 2 43l14 45q10 1 82 3q41 1 59 -4q24 -8 60 -6q39 2 134 2h211q222 1 312 1q157 -1 305 8q126 8 171 -4q61 -16 97 -5q50 15 72 -7q5 -5 15 -45l-21 -89l-378 -38
q-2 -127 -19 -187q-17 -61 -44 -101q-26 -39 -64 -71q-38 -31 -79 -49q-40 -19 -90 -37t-95 -30q-45 -13 -98 -33q-52 -20 -93 -42q-107 -60 -99 -129q6 -54 77 -95q80 -46 188 -47q139 -2 228 72q13 11 25 23q13 13 25 37q12 23 19.5 47.5t18.5 49.5q10 25 21 44
q10 19 28 30t40 10t56 -20t77 -57q5 -175 -131 -290q-114 -96 -292 -125q-171 -28 -324 18q-156 46 -227 151q-68 101 -40 237q6 29 17 55t23 46q13 20 33 39t36 32t43 27q27 13 45 22q18 8 50 19t49 16q18 6 52 16q42 12 63 19t58 20q37 14 58 25q21 12 49 30q29 19 45 38
q31 36 33 47q9 33 25 129q-17 13 -186 19q-255 9 -366 6q-231 -4 -238 -4z" />
    <glyph glyph-name="u" unicode="u" 
d="M-156 -221v0q3 -25 -6.5 -49t-28.5 -44t-47 -38t-61 -31.5t-69.5 -25t-74 -19.5t-74.5 -13t-70.5 -6.5t-61.5 0.5t-48 7q-33 8 -84 43t-93 78q-48 50 -59 86q-10 39 28 51q16 5 39 5q17 0 30.5 -1.5t22.5 -4.5t16.5 -8t12 -10t10 -12t10 -13.5t12 -14t16.5 -14.5
q37 -27 74.5 -43t74.5 -21t76.5 -0.5t78.5 18t83 35.5q9 5 36 29q36 31 52 43q51 38 77 28q22 -9 28 -55z" />
    <glyph glyph-name="v" unicode="v" horiz-adv-x="1214" 
d="M1055 1249q43 4 97 -1q64 -5 102 -6q118 -6 48 -149l-173 -16q-23 -11 -42 -32q-18 -21 -30 -47q-12 -25 -22 -50q-11 -26 -25 -52t-31 -43q-41 -41 -96 -67q-56 -25 -113 -34q-56 -10 -116.5 -12t-115.5 0q-55 3 -101 4q-47 1 -82 -5t-50 -22q-84 -91 55 -136
q59 -20 119 -25h5q64 -2 201 31q38 9 58 13t54 10q35 6 53 6q18 1 45 -1t40 -10q14 -8 29 -22q16 -14 21 -36q4 -21 5 -52q1 -30 -7 -70l-451 -66l-2 -94q45 -27 87 -38t77 -8q36 3 70 12t68 20q33 11 66 19q34 8 73 6t79 -18q-3 -52 -26 -95q-23 -44 -60 -73
q-37 -30 -85 -50q-49 -20 -101 -28t-107 -6q-54 2 -103 15q-49 12 -91 36q-42 23 -69 56q-16 19 -32 58q-16 40 -27 79q-12 38 -29 80q-18 42 -36 64q-14 17 -36 35q-23 17 -45 29q-22 13 -46 29q-23 16 -42 32q-19 15 -32 37t-16 47q-9 68 7 122q10 35 34 77t60 69
q35 28 76 41q40 13 87 18q46 6 94 6.5t95.5 0t93.5 2.5q46 4 85 13q40 9 74 30q34 22 56 56l-82 46q-16 2 -74 -1l-76 -5q-52 -10 -77 -8q-131 7 -216 5q-198 -7 -257 -3q-47 2 -64 6q-26 5 -40 3q-24 -3 -25 -2q-7 7 -11 23q-3 12 -2 23t5 25q4 13 8 22q5 9 10 19
q6 12 6 13q0 5 2 5v2v3l7 31h5h5q51 -5 104 0q116 10 234 3q175 -10 262 -4q188 12 262 4q96 -11 240 1z" />
    <glyph glyph-name="w" unicode="w" horiz-adv-x="468" 
d="M547 1161q1 -26 -18 -28q-19 -1 -27 -4q-32 -14 -32 -13q-22 15 -38 4q-9 -6 -11 -6q-42 1 -43 1q-22 -1 -23 -1q-9 7 -12 6q-26 -10 -38 -13q16 -69 34 -138q15 -55 4 -110q-8 -42 -28 -101q-31 -88 -32 -92q-24 -41 -50 -66q-12 -12 -77 0q-35 6 -45 14q-13 11 -16 25
q-4 14 -2 32q1 19 7.5 37t14.5 38q7 20 15 37t13 33q6 16 7 25q1 22 -4 62q-2 17 -17 81q-28 130 -35 131q-36 4 -72 4h-20q-3 4 -52 7h-12h-8h-8h-6q-4 0 -6 1q-3 0 -6 1q-2 0 -6 1l-8 2q-3 0 -10 2q-6 1 -12 3l3 102q18 10 41 14q31 4 40 2q12 -3 23 -3l21 -1l555 -2z" />
    <glyph glyph-name="x" unicode="x" horiz-adv-x="1433" 
d="M270 1238q159 11 369 10q355 -1 397 -1q239 2 278 -3q33 -5 99 -2q97 4 138 -5l27 -116l-75 -53l-230 -7q-84 -2 -113 3q-30 6 -118 11q-95 5 -122 1q-48 -8 -124 -17q-84 -9 -94 -4q-1 0 -123 8q9 -32 54 -85q63 -76 76 -81q41 -18 83 -32q48 -17 55 -16q48 3 102 8
t102 10t98 4q51 -2 89 -12q91 -125 -77 -168q-121 -31 -230 -37q-52 -3 -113 17q34 -43 37 -88q1 -28 -36 -80q-20 -27 -27 -33q-37 -27 -71 -31q-35 -3 -87 -5q-35 -2 -96 -5q-28 -1 -99 1q-75 2 -109 1q-18 -68 -8 -122q8 -42 28 -60q38 -35 72 -43q13 -3 96 10
q17 3 108 -2q30 -1 111 12q56 9 102 20q70 18 82 25q58 32 62 33q6 1 58 13q11 3 56 41q9 7 54 17q35 8 72 0q13 -47 1 -88t-45 -76t-79 -65q-58 -36 -102 -52q-109 -41 -114 -41q-73 -6 -115 -29q-10 -6 -104 -18q-48 -6 -84 -6q-56 0 -116 12q-59 12 -117 34
q-58 23 -110 58q-51 36 -90 79q-41 46 -61 99q-22 63 -19 168q1 52 17 89q15 37 41 57q26 19 59.5 28.5t72.5 9.5q49 0 78 -4q68 -10 80 -10q28 2 46 1q48 -3 66 -1q30 2 49 13q21 50 19 64q-1 15 -14 28q-8 7 -22 33q-7 14 -35 28q-36 17 -40 23q-30 45 -32 47
q-36 29 -37 33q-14 34 -30 44q-4 3 -19 44q-14 38 -14 39q-8 10 -12 21q-2 5 -7 7q-18 11 -49 17q-14 2 -75 -16q-22 -7 -93 -3q-45 2 -57 6q-82 25 -125 21q-28 -3 -75 23q-8 4 -8 -8q-3 90 7 117q6 16 20 30q20 22 32 21q137 -2 200 -7q119 -9 159 -7z" />
    <glyph glyph-name="y" unicode="y" 
d="M-233 1218q-28 118 -60 170q-28 45 -50 72q-25 29 -55 52q-50 40 -110 53q-35 8 -92 32q-37 16 -79 30q-31 11 -44 15q-43 13 -67 59q-7 14 -1 34l21 67q3 9 10 15t25 9q20 4 51 3q28 -1 49 -5q28 -4 68 -20q30 -11 35 -14q25 -13 66 -34q22 -11 41 -25q13 -9 41 -27
q16 -9 18 -11q4 -3 75 -60q15 -12 45 -53q35 -50 40 -57q13 -17 34 -63q39 -87 39 -100q0 -82 9 -132l-20 -2z" />
    <glyph glyph-name="z" unicode="z" horiz-adv-x="1256" 
d="M1292 1244q69 13 66 -40q-5 -80 -7 -84q-23 -34 -64 -31q-27 3 -67 -2q-20 -3 -16 10l-50 -17l-79 -20q36 -89 21 -144q-7 -25 -22 -49q-17 -24 -32 -40q-16 -15 -30 -33q-12 -15 -17 -30q-7 -23 0 -118q10 -151 10 -155q6 -68 0 -112q-4 -25 -9 -53q-6 -29 -16 -69
q-10 -41 -22 -77q-13 -36 -31 -72t-38 -60q-7 -9 -67 -36q-25 -11 -56 -4q-35 9 -52 29q-21 25 -18 47q9 57 8 59q0 1 15 69q2 8 34 75q18 38 34 77q15 39 25 75q10 39 8 70q-4 45 -18 70l-355 -78q24 -51 -16 -156.5t-109 -181.5q-62 -68 -162 -59q-36 3 -67 43
q-14 18 -15 40q-1 21 9 38q9 16 25 35q16 18 33 33q16 14 33 31q16 17 24 31q21 36 32 64t12 51q1 26 -11 38q-13 13 -41 19q-29 6 -75 1l-2 171q18 13 30 23q12 8 28 20q16 11 29 18q12 6 29 14q15 8 30 11q15 4 32 7q17 2 35 2q18 -1 39 -4q15 -2 34 -14t35 -23t27 -12
q22 -3 59 4q73 12 98 21q41 14 85 35q44 20 83 47q38 27 68 57q29 29 44 64q14 34 8 68q-1 4 -93 48q-7 4 -81 7q-146 8 -147 8q-132 -19 -166 -17q-136 9 -171 10q-8 0 -161 -13q-16 -1 -75 6q-27 4 -42 15q-5 4 -47 10q-29 3 -31 4q-7 1 -5 8l18 115q9 7 41 6q63 -4 65 0
q2 2 -1 2q109 -4 110 -4q76 10 82 9q62 -8 86 -6q9 1 97 5q64 3 100 0q102 -8 143 -5q55 3 148 -3q2 0 143 4v1q31 -6 35 -6q54 10 84 8q76 -5 118 -5t59 -1q49 -3 73 1zM585 254q16 -11 24 -31q7 -21 4 -43q-3 -23 -13 -46q-10 -24 -28.5 -40t-41 -24t-51.5 1
q-39 11 -45 61q-5 48 22 92q31 50 78 47q25 -1 51 -17z" />
    <glyph glyph-name="braceleft" unicode="{" horiz-adv-x="714" 
d="M618 1476v-24q-236 -80 -236 -240v-360q0 -109 -2 -122q-11 -72 -97 -110q-44 -20 -151 -40q104 -20 151 -41q86 -39 97 -111q2 -13 2 -124v-358q0 -162 236 -240v-24q-168 8 -248 56q-106 64 -106 218v380q0 98 -34 153q-37 59 -126 91q160 51 160 242v378q0 149 96 214
q80 54 258 62z" />
    <glyph glyph-name="bar" unicode="|" horiz-adv-x="1110" 
d="M216 1087l-315 7l-22 123q16 21 49 29q28 7 74 5q209 -8 210 -9q28 -13 80 0q27 7 62 2q57 -7 113 -7q87 0 173 1q137 2 197 5q106 6 192 7q66 0 131 -11t82 -35q71 -102 -75 -106q-179 -5 -201 0q-39 8 -90 -1q-8 -2 -9 -3q-14 -6 -18 -4q-20 13 -24 13q-66 0 -96 -8
q-28 -7 -111 -8q-102 0 -112 -1q-40 -2 -101 -12q1 -24 7 -44q6 -19 13 -44t21 -36q14 -12 25.5 -20t31.5 -14q21 -6 34 -10q14 -3 39 -6t39.5 -4t42.5 -3q36 -2 54 -4q19 -1 52 -6t52 -11q20 -7 45 -18q26 -12 42 -28t32 -39q12 -20 23.5 -58.5t8.5 -78.5q-3 -33 -11 -61
q-9 -27 -25 -56t-34 -52.5t-39 -49.5q-20 -25 -38 -46q-18 -20 -34 -43q-15 -22 -23 -39q-12 -26 -14 -63q-3 -38 -5 -72q-1 -27 -15 -55q-18 -38 -38 -47q-36 -16 -38 -16q-34 -10 -37 -8q-5 11 -33 39q-15 15 -29 32t-23.5 32t-17.5 26q-7 10 -10 10q-20 3 -45 -3
t-47.5 -14t-49.5 -12.5t-61 2.5q-35 8 -73 31q-119 71 -135 171q-13 83 45 156q56 71 151 96q124 33 248 -32q18 -10 36 -22q14 -9 24 -24q9 -14 13 -27q5 -13 11 -24t17.5 -16t30.5 -1l82 241q-57 -1 -116 -1q-58 1 -114 13t-106 29q-51 17 -91 48q-41 31 -68 71t-38 97
q-11 58 -1 127zM273 387q25 -35 81 -56q56 -20 102 -5q45 16 38 74z" />
    <glyph glyph-name="braceright" unicode="}" horiz-adv-x="762" 
d="M96 1476q178 -8 258 -62q96 -65 96 -214v-378q0 -99 33 -153q37 -59 127 -89q-90 -32 -126 -91q-34 -54 -34 -153v-380q0 -154 -106 -218q-80 -48 -248 -56v24q234 78 234 240v358q0 110 2 124q11 71 98 111q47 21 152 41q-105 20 -152 40q-88 39 -98 110q-2 14 -2 122
v360q0 162 -234 240v24z" />
    <glyph glyph-name="asciitilde" unicode="~" 
d="M-147 1736v0q33 9 56 5q22 -3 34 -17t16 -33q4 -22 1 -45q-4 -24 -11 -48q-8 -25 -18 -47q-15 -30 -44 -54q-29 -22 -64 -37q-36 -13 -77 -20q-42 -7 -84 -7q-42 1 -84 7q-42 7 -78 19q-38 12 -65 29q-46 27 -88 79q-46 56 -54 102q-7 52 39 67q32 9 84 2q10 -34 31 -64
q22 -30 50 -49q28 -20 63 -32t69 -14q35 -3 70 6q36 7 65 25q7 5 14 15q6 11 9 23q4 12 9 25t11 26q5 12 18 22q12 10 28 15z" />
    <glyph glyph-name="nonbreakingspace" unicode="&#xa0;" horiz-adv-x="800" 
 />
    <glyph glyph-name="exclamdown" unicode="&#xa1;" horiz-adv-x="1820" 
d="M1100 366q125 -74 124 -186q-1 -87 -57 -137.5t-145 -50.5q-305 0 -348 428q-10 102 -2 202h-68v64h66q32 164 96 242q77 94 224 108q44 4 178 -2q182 257 374 504q183 236 454 236q249 0 354 -222q45 -95 46 -194q1 -90 -20 -90q-13 0 -34 78q-10 37 -38 132
q-102 232 -310 232q-116 0 -240 -76q-112 -69 -188 -172l-364 -492q-100 0 -216 -2q-194 -3 -248 -282h622v-64h-72q-46 -165 -188 -256zM486 526q1 -49 -7 -141q-7 -96 -7 -141q0 -188 70 -274q0 -8 -4 -10q-13 0 -34 16q-80 62 -100 236q-8 70 14 242q-116 -68 -198 -68
q-71 0 -133.5 55t-62.5 125q0 98 73 150q65 46 167 42q219 -9 222 -232zM736 622v-110q2 -33 6 -122q245 -4 288 12q75 28 114 74q49 58 84 146h-492zM756 328q62 -277 264 -272q57 1 100 32q50 36 46 98q-4 56 -61 105.5t-113 42.5q-45 -6 -236 -6zM82 572q1 -58 54 -94
q48 -32 104 -32q50 0 106 28q75 37 72 98q-5 122 -164 122q-67 0 -115 -27q-58 -33 -57 -95z" />
    <glyph glyph-name="cent" unicode="&#xa2;" horiz-adv-x="1056" 
d="M840 1104v-98q-114 70 -296 80v-808q176 10 292 80v-102q-104 -72 -292 -80v-168h-70v170q-210 19 -342 158t-132 348q0 193 118 334q131 156 356 178v158h70v-158q188 -10 296 -92zM474 278v808q-159 -25 -256.5 -134.5t-97.5 -269.5q0 -149 88 -258q97 -120 266 -146z
" />
    <glyph glyph-name="sterling" unicode="&#xa3;" horiz-adv-x="1180" 
d="M488 666q20 -85 8 -92h248v-50h-242q-10 -94 -24 -170q-18 -101 -120 -198q136 -61 250 -61q179 0 326 91l52 -80q-143 -90 -350 -106q-80 -6 -214 30t-200 36q-84 0 -166 -68l-56 96q36 21 102 58q16 9 74 22q52 12 68 24q101 79 124 170q10 38 18 152h-244v54h250
q2 33 -18 108q-48 176 -48 242q0 137 97 209q88 64 229 61q174 -4 286 -136q20 -23 80 -146h-110q-25 59 -56 96q-73 86 -186 86q-236 0 -236 -172q0 -39 23 -127q18 -65 35 -129z" />
    <glyph glyph-name="currency" unicode="&#xa4;" 
d="M-147 1736v0q33 9 56 5q22 -3 34 -17t16 -33q4 -22 1 -45q-4 -24 -11 -48q-8 -25 -18 -47q-15 -30 -44 -54q-29 -22 -64 -37q-36 -13 -77 -20q-42 -7 -84 -7q-42 1 -84 7q-42 7 -78 19q-38 12 -65 29q-46 27 -88 79q-46 56 -54 102q-7 52 39 67q32 9 84 2q10 -34 31 -64
q22 -30 50 -49q28 -20 63 -32t69 -14q35 -3 70 6q36 7 65 25q7 5 14 15q6 11 9 23q4 12 9 25t11 26q5 12 18 22q12 10 28 15z" />
    <glyph glyph-name="yen" unicode="&#xa5;" horiz-adv-x="1112" 
d="M688 750h340v-76h-402v-216h402v-76h-402v-382h-140v382h-400v76h400v216h-400v76h338l-400 626h156l376 -628l376 628h156z" />
    <glyph glyph-name="section" unicode="&#xa7;" 
d="M-383 -323q-1 -39 -12.5 -73.5t-30.5 -60.5t-44 -46t-53.5 -31.5t-59.5 -16t-60.5 -0.5t-57.5 16.5t-50.5 32.5t-38.5 50.5t-23 67.5q-6 37 0.5 70.5t22.5 57.5t40 38.5t50.5 17t55 -10.5t53.5 -41q6 -7 9.5 -12t6 -10t2 -9t-3 -9t-8 -10t-14.5 -11q-8 -6 -19.5 -9
t-23 -4t-23 -1t-21 -1t-17 -3t-10 -8t-0.5 -15q8 -27 29 -52t49.5 -37t59.5 1q16 7 29 17.5t22 21t14.5 25.5t9 27t4 31t0.5 31t-3 34t-4.5 33.5t-5.5 34.5q-16 96 -10 134l84 -3q6 -4 19 -64t23 -123.5t10 -79.5zM-908 -938q-30 21 -55 55q-31 40 -32 67q-1 29 33 33
q12 2 29 0q9 -1 26 -10.5t36.5 -23t40 -27.5t41.5 -26t35 -17q29 -9 60.5 -11t62.5 2t62.5 10t63.5 14t62.5 14.5t64 10t62.5 1.5q38 -38 -42 -83q-66 -37 -194 -70q-81 -21 -126 -26h-13q-21 0 -51.5 8.5t-60.5 22t-57.5 28.5t-47.5 28zM-437 -774q-37 -16 -69 -25.5
t-65.5 -15t-65 -4t-66 9.5t-70.5 24q-66 29 -94 74q-21 33 -15 64q4 25 22 35q23 14 53 -1q12 -5 23 -14q4 -3 8.5 -10.5t8 -14.5t9 -14.5t12.5 -11.5q19 -12 47 -18.5t58 -8t58.5 0t51.5 6.5q12 2 26.5 8.5t27 14t26.5 16t27 14.5t25.5 9t25.5 1t25 -11q66 -47 -21 -97
q-22 -12 -68 -31z" />
    <glyph glyph-name="dieresis" unicode="&#xa8;" 
d="M-1016 -659q-43 30 -79 78q-44 57 -45 96q-1 41 47 48q17 2 41 0q13 -2 37 -15.5t52 -33t57.5 -39.5t59.5 -37t50 -24q41 -13 86.5 -15.5t89 2.5t88.5 14t91.5 20t90 20.5t91 14.5t88.5 2q55 -54 -59 -118q-95 -53 -278 -100q-115 -30 -180 -37q-11 -1 -18 -1
q-30 0 -73.5 12.5t-86.5 31.5t-82.5 40.5t-67.5 40.5zM-343 -425q-53 -22 -98.5 -36t-93.5 -21.5t-93.5 -5.5t-94.5 13.5t-100 33.5q-94 41 -135 106q-29 48 -22 92q6 35 33 50q32 19 75 -1q17 -8 33 -21q6 -5 12.5 -15.5t11 -20.5t13 -21t17.5 -16q27 -17 67 -26.5
t83 -11.5t83.5 0t74.5 9q17 4 37.5 13t38.5 20t37.5 22.5t38 20t37 13.5t37 1.5t35.5 -15.5q94 -67 -30 -138q-32 -18 -97 -45z" />
    <glyph glyph-name="ordfeminine" unicode="&#xaa;" horiz-adv-x="1208" 
 />
    <glyph glyph-name="registered" unicode="&#xae;" 
d="M-214 -90q20 -11 32 -23t16 -26q6 -19 3 -27q-14 -53 -16 -59q-1 -6 2 4q1 2 -15 -25q-8 -15 -15 -28q-8 -14 -12 -27q-5 -14 -6 -24q0 -16 6 -35q10 -31 14 -35q5 -4 49 -56q21 -25 27 -34q7 -9 11 -30q3 -15 -1 -25q-45 -62 -90 -37q-37 20 -54 73q-34 100 -63 114
q-1 0 -1 7q-12 -14 -29 -24q-16 -10 -34 -16q-18 -5 -37.5 -7t-37.5 0q-19 2 -36.5 7.5t-32.5 14.5q-18 12 -26 21q-11 13 -18 28q-7 14 -8 33t4 39q5 15 11 26t14 19q7 8 18 13q4 2 19 8q16 5 23 3q14 -3 23 -4q3 -1 35 -13q23 -9 25 -9q8 -1 25 -5l18 -3q5 -2 16 -3
q10 -2 17 -3q6 -1 14 -1t14 1l12 2z" />
    <glyph glyph-name="degree" unicode="&#xb0;" horiz-adv-x="740" 
d="M366 1496q125 0 216 -90.5t92 -215.5q1 -126 -90.5 -214.5t-217.5 -89.5q-127 -1 -217.5 89t-90.5 217q0 125 91.5 214.5t216.5 89.5zM366 1406q-90 1 -152 -62.5t-64 -153.5q-2 -87 62.5 -153t151.5 -67q88 -1 153 64.5t67 153.5q2 91 -62.5 154t-155.5 64zM666 782
v-106h-598v106h598z" />
    <glyph glyph-name="plusminus" unicode="&#xb1;" horiz-adv-x="1224" 
d="M638 674v-370h-118v370h-372v118h372v370h118v-370h372v-118h-372zM1098 20h-1038v102h1038v-102z" />
    <glyph glyph-name="acute" unicode="&#xb4;" 
d="M-613 -459q-11 10 -19 32q-22 47 -22 48q-4 25 -6 54q2 30 -4 52q-1 5 -2 11q-2 5 -3 8q-7 23 -8 24q-8 10 -15 18q-7 7 -20 9q-12 2 -23 5t-21 8q-11 6 -19 12q-8 7 -13 17q-4 11 -4 23q0 14 6 25t16 17q11 6 24 9q14 4 29 4t31 -2t30 -6t26.5 -10t20.5 -13
q15 -12 26 -32q12 -19 18 -40q7 -21 12 -44t9 -44t8 -38.5t11 -29.5t17 -15q15 -6 30 -7q14 -1 25 1t23 9q11 6 18 12q8 6 17 18q10 12 15 19t14 20q10 15 15 22t15 18q9 11 16 15t18 8q10 4 21 2q10 -3 24 -9q14 -7 29 -19q-8 -46 -23.5 -83.5t-36.5 -64.5t-48 -46t-59 -29
t-68.5 -11.5t-76.5 4.5q-18 3 -73 19z" />
    <glyph glyph-name="mu" unicode="&#xb5;" 
d="M-542 1259l-14 55q-50 111 -12 227q30 97 107 173q73 76 167 102q105 29 195 -12q67 -31 115 -104q30 -44 43 -84q64 -198 -7 -338q-37 -70 -594 -19zM-354 1392q24 -8 52 -10t54 1q26 4 52 13q21 8 44 25q16 12 32 35q13 20 15 46q2 28 -5 56q-19 67 -66 83
q-38 13 -87 -10q-45 -20 -74 -64q-37 -55 -35 -109q1 -34 18 -66z" />
    <glyph glyph-name="mu" unicode="&#x3bc;" 
d="M-542 1259l-14 55q-50 111 -12 227q30 97 107 173q73 76 167 102q105 29 195 -12q67 -31 115 -104q30 -44 43 -84q64 -198 -7 -338q-37 -70 -594 -19zM-354 1392q24 -8 52 -10t54 1q26 4 52 13q21 8 44 25q16 12 32 35q13 20 15 46q2 28 -5 56q-19 67 -66 83
q-38 13 -87 -10q-45 -20 -74 -64q-37 -55 -35 -109q1 -34 18 -66z" />
    <glyph glyph-name="paragraph" unicode="&#xb6;" horiz-adv-x="724" 
d="M596 992h-66v-1324h-68v1324h-126v-1324h-68v704q-129 23 -201 127q-67 97 -67 233q0 106 70 202q92 126 258 126h268v-68z" />
    <glyph glyph-name="periodcentered" unicode="&#xb7;" horiz-adv-x="700" 
d="M330 712q53 0 91.5 -39.5t38.5 -92.5q0 -60 -46 -96q-38 -30 -84 -30q-52 0 -90 37t-38 89q0 54 37 93t91 39z" />
    <glyph glyph-name="periodcentered" unicode="&#x2219;" horiz-adv-x="700" 
d="M330 712q53 0 91.5 -39.5t38.5 -92.5q0 -60 -46 -96q-38 -30 -84 -30q-52 0 -90 37t-38 89q0 54 37 93t91 39z" />
    <glyph glyph-name="questiondown" unicode="&#xbf;" horiz-adv-x="1332" 
d="M714 614l322 -324l-82 -82l-322 322l-322 -322l-84 82l322 324l-322 322l84 82l322 -322l322 322l82 -82z" />
    <glyph glyph-name="Aring" unicode="&#xc5;" horiz-adv-x="2786" 
d="M1018 683q-11 131 14.5 246.5t80.5 204.5t135 162t177 122.5t208.5 81.5t227.5 43t235.5 3.5t231.5 -34t216.5 -72.5t189.5 -108l-34 -109l-58 -19q-81 40 -173 72t-192.5 54.5t-202 30t-200.5 1.5t-191 -34.5t-169 -75t-139 -122t-98 -173.5l1063 28q48 -7 80.5 -46.5
t44 -90.5t8 -105.5t-22.5 -94.5q-12 -26 -40 -48.5t-56 -36.5t-55 -31.5t-35 -32.5q-16 -28 -21.5 -92.5t-20.5 -91.5q-42 -76 -107 -141t-141.5 -112t-164.5 -76t-175.5 -35.5t-176 13.5t-163.5 66q-49 31 -100 116t-87 184t-60 195t-29 158zM1346 340q32 -77 85.5 -126.5
t114.5 -66.5t128 -9t125.5 40t107.5 87t74 125zM2041 763q-136 -9 -408 2t-395 5l-2 -186l616 -6q40 0 226.5 46.5t199.5 66.5l6 107q-24 10 -52.5 10.5t-55 -6.5t-50.5 -15t-47.5 -15.5t-37.5 -8.5zM810 1184q34 -53 51 -109.5t18.5 -108.5t-11.5 -109t-32 -105.5
t-50.5 -104.5t-60.5 -99t-67 -95q-7 -10 -14.5 -23t-19 -40t-18 -66.5t-4.5 -84.5l106 -174q-111 -21 -181.5 -4.5t-104 63t-39 111t13 140t52 149.5t78.5 140q-42 -3 -109 6t-136 26.5t-126.5 48.5t-74.5 66q-17 66 -12.5 125.5t22 117.5t50.5 105.5t73 88.5t90 67.5
t101.5 42.5t107 12.5t107 -22t101 -61t89.5 -103.5zM641 888q5 172 -45 215q-24 22 -76.5 34t-106 4t-72.5 -42q-76 -94 9 -157q65 -48 185 -58q61 -5 106 4z" />
    <glyph glyph-name="AE" unicode="&#xc6;" horiz-adv-x="1182" 
d="M1960 2365q64 -81 92 -201t16 -242q-12 -121 -59 -213q-20 -39 -145 -191q-125 -151 -154 -169q-22 -14 -52 -16q-30 -3 -70 0t-57 3q-5 38 4.5 73t29.5 61q19 27 47 55q29 28 56 50q27 21 57 50q30 28 49 52q57 76 86 154t30 148q0 69 -22.5 135t-64.5 119
q-42 54 -101 97q-59 44 -129 72q-70 27 -151 39q-88 13 -165 4q-21 -2 -57.5 -11t-68.5 -20q-33 -10 -85 -29q-52 -18 -79 -28l-78 -30t-58 -22q-178 -56 -185 -59q-82 -34 -158 -75t-137 -85q-61 -43 -117 -96q-57 -52 -99 -110q-41 -58 -75 -128q-34 -69 -55 -148
q-20 -78 -29 -170t-5 -196l-166 -27q-8 187 38 360t137 319q92 145 224 264q132 120 297 205q190 67 380 135q266 95 347 102q50 5 105 5q54 1 114 -6q60 -8 118 -19q58 -12 115 -32q58 -21 108 -46q51 -25 95 -59q45 -35 77 -74z" />
    <glyph glyph-name="Ccedilla" unicode="&#xc7;" horiz-adv-x="2112" 
d="M974 848q-4 222 -100 540q-166 -46 -272 -176q-110 -136 -110 -308q0 -177 111 -314q108 -133 281 -180q94 259 90 438zM1302 218q-60 -25 -88 -42q-41 -25 -110 -92v-198q633 344 746 672q70 204 70 322q0 107 -54 212q-43 83 -160 228q158 -61 248 -204
q94 -150 94 -356q0 -102 -22 -202q-44 -200 -140 -336q-72 -95 -214 -284q-92 -123 -104 -228l-228 210q-22 -7 -64 -22q-71 -30 -140 -84q93 -37 180 -92q118 -75 118 -156q0 -28 -22 -49t-50 -21q-62 0 -62 64q0 28 24 62q-40 35 -94 72q-14 10 -130 54v-232
q54 -50 54 -86q0 -42 -31 -72t-73 -30t-68 29.5t-26 72.5q0 36 54 86v232q-52 -18 -130 -54l-94 -72q24 -34 24 -62q0 -64 -62 -64q-28 0 -50 21t-22 49q0 81 118 156q87 55 180 92q-94 76 -204 106l-228 -210q-12 105 -104 228q-73 93 -214 284q-96 136 -140 336
q-22 100 -22 202q0 206 94 356q90 143 248 204q-117 -145 -160 -228q-54 -105 -54 -212q0 -118 70 -322q113 -328 746 -672v198q-32 32 -110 92q-30 18 -88 42q20 44 44 112q-196 54 -322 213.5t-126 360.5q0 198 128 358q124 155 314 210q-16 46 -30 76q75 54 154 126
q23 21 48 64q33 56 42 68q20 -46 80 -132q78 -72 154 -126q-14 -30 -30 -76q196 -57 320 -210q128 -158 128 -358q0 -203 -131 -363q-128 -156 -327 -211q10 -30 48 -112zM1136 848q-4 -185 88 -438q174 46 286 180q116 138 116 314q0 172 -112 307q-108 128 -278 177
q-96 -319 -100 -540z" />
    <glyph glyph-name="Iacute" unicode="&#xcd;" 
d="M-179 -414q36 -46 7 -83q-22 -30 -77 -45q-52 -15 -103 -10q-45 5 -65 26q-5 5 -9.5 15t-6.5 18q-4 15 -5 17l-9 12q9 14 -15 21q-19 5 -22 7q-2 1 -27 1q-14 1 -28 3q-14 1 -28 6t-26 12t-21 20q-10 13 -14 31q-11 39 -1 90q7 33 23 57q16 25 39 44q19 16 46 28
q12 5 29 8q17 4 31 5q15 2 31 4q15 3 27 6q11 3 19 10q9 6 10 15q2 10 -4 25t-20 34q10 13 24 19t28 5t28 -7q14 -7 25 -16q12 -10 20 -24q8 -13 11 -27q9 -59 -55 -94q-33 -18 -101 -33q-31 -16 -65 -26q-30 -10 -36 -21q-4 -7 -4 -18q-2 -26 0 -51v-14q8 -4 20 -9
t22.5 -2.5t27.5 9.5t28 12q10 6 30 16q17 8 25.5 12.5t24.5 11.5q15 7 24 9q8 2 21 5q12 3 19 1q12 -5 15 -6l13 -2q3 -10 7 -22q3 -8 0 -18q-3 -9 -8.5 -15t-14.5 -12q-8 -6 -18 -11q-10 -4 -19 -10q-14 -10 -18 -11q-26 -6 -29 -12q-14 -26 -7 -39q3 -5 10 -41z" />
    <glyph glyph-name="Icircumflex" unicode="&#xce;" horiz-adv-x="1362" 
d="M1671 1089q-26 -1 -65 1t-74 4q-36 3 -80 4q-43 2 -81 -3q-39 -5 -79.5 -9t-74.5 -12q-33 -7 -63 -22q-31 -15 -51.5 -36t-33.5 -52q-12 -31 -13 -71q-1 -54 5 -124q6 -69 11 -115q4 -46 -3 -115q-7 -70 -29 -145q-24 -80 -86 -171q-76 -111 -148 -139q-87 -34 -140 74
q19 29 48 70q28 40 48 68t44 66q25 38 40.5 68.5t30.5 70.5q15 39 21.5 76t6.5 82q1 44 -8 91q-64 -1 -112 -5q-48 -3 -83 -10q-35 -6 -60 -18q-24 -12 -40 -25t-26 -34q-10 -20 -16 -41q-6 -20 -12 -50q-5 -30 -10 -59t-16 -68q-10 -40 -24 -78q-17 -46 -53 -83
q-36 -36 -82 -58q-45 -23 -99 -37t-108 -18q-53 -4 -104 -2q-50 3 -90 12t-66 23t-31 31q-7 25 -7 45t5 33q5 14 17 23q13 10 24 15q12 5 32 7q21 2 35 2t38 -2t37 -4q12 -2 35 -5q45 -7 57 -7q42 1 73 8q30 7 49 19q18 11 30 29t17 37q4 19 7 44t4 48t4 53q4 29 10 53
q15 55 36 97q20 41 44 68q23 27 54 47q31 19 62 30q30 10 70 19q41 10 77 15.5t85 16.5q48 11 89 24l172 287q28 17 54 23q26 5 47 2q22 -3 40 -9t40 -10t40 -4q50 3 156 14q207 22 280 -2q102 -32 -7 -157zM85 1249q17 -6 24 -13q8 -7 15 -19q4 -6 7 -26q4 -23 1 -29
q-2 -5 -4 -13q-3 -8 -8 -34q-3 -14 -10 -35q-42 17 -85 8q-6 -1 -99 3q-26 1 -53 -1q-49 -4 -74 -3q-26 1 -42 37q-20 45 -6 77q32 72 57 47q4 -4 74 -5q104 0 123 5q47 12 80 1z" />
    <glyph glyph-name="Idieresis" unicode="&#xcf;" horiz-adv-x="26" 
d="M-276 -119l68 30q5 -21 15 -50q9 -30 16 -50t11 -49q5 -27 2 -54q0 -12 -4 -28t-10 -34q-6 -19 -14 -38q-8 -20 -17 -38t-21 -34q-11 -16 -24 -27q-12 -11 -25 -15q-14 -5 -27 -1q-8 3 -14 6q-5 2 -9 7q-3 4 -5 9q-2 4 -1 10q0 6 1 11q0 5 4 13q4 7 6 13q2 5 8 14l9 15
q4 5 10 15q9 14 14 22t12 21q9 14 12 23t6 20q4 12 3 21q0 9 -4 18q-17 4 -32 5t-27 1q-11 -1 -22 -5q-10 -4 -17.5 -7.5t-14.5 -11.5q-8 -8 -12 -13t-10 -16t-9 -17t-8 -18q-7 -15 -11 -22t-11 -20q-7 -12 -14 -19q-6 -7 -17 -16q-10 -7 -22 -12q-24 -9 -48 -12
q-25 -2 -45 3q-21 4 -38 15q-18 9 -31 23q-12 15 -19 32q-7 18 -8 36q0 19 8 40q7 20 23 39q5 5 12 10t14 9l14 8q8 5 13 10q6 4 9 13q3 8 4 18q0 8 -4 18t-11 21q-7 10 -14 22q-7 11 -12 22q-6 10 -8 19t2 15q3 6 14 9q19 4 38 -3t34 -22q15 -14 27 -35q13 -21 18 -43
q6 -22 4 -45q-2 -22 -12 -40q-3 -5 -8 -10q-6 -6 -13 -11q-6 -5 -14 -11q-8 -5 -15 -10q-8 -5 -14 -10q-7 -6 -12 -11q-5 -6 -8 -11q-3 -6 -2 -12t4 -12q41 -60 89 23q11 19 32 67q10 21 13 24q9 8 23 15q13 7 27.5 10.5t33.5 8.5q19 3 33 6q14 1 32 4q19 3 27 4z" />
    <glyph glyph-name="Ograve" unicode="&#xd2;" horiz-adv-x="1140" 
d="M654 72q-13 12 -15 42t4 67t17.5 85t25.5 96t29 101t27 99t19.5 90.5t6.5 75.5q0 31 -8 70.5t-19 74.5t-22 73.5t-19 70.5t-9 63t6.5 54t30 40t59.5 24q35 7 63.5 -7t48 -44.5t34 -73.5t22 -94.5t11.5 -108.5t3.5 -115t-3 -112.5t-7.5 -103t-10 -85.5t-11 -61
q-5 -26 -13 -54t-20 -67.5t-27 -73.5t-33.5 -68.5t-40 -56.5t-44.5 -34t-50.5 -4t-55.5 37zM151 168q-1 8 27.5 69t64 134t67 156t35.5 128q4 33 -2 76.5t-14.5 94t-18.5 101.5t-14.5 99t-2.5 85.5t17.5 61t44.5 26.5q57 -17 98 -67t62 -120t30 -156.5t4.5 -176t-18 -178.5
t-34.5 -165t-47.5 -135t-53.5 -88q-24 -25 -56 -38t-63 -12.5t-58.5 11.5t-46 35.5t-21.5 58.5z" />
    <glyph glyph-name="Oacute" unicode="&#xd3;" horiz-adv-x="2656" 
d="M1149 61q-1 97 40 179q25 51 106 162q48 -30 48 -105q0 -76 -49 -186q-39 -87 -83 -148q118 -211 148 -271q74 -145 120 -272q8 55 40 170q31 111 38 163q-16 37 -31 71q-25 44 -63 44q-10 0 -22 -2q-73 21 -73 87q0 37 29.5 64.5t66.5 27.5q78 0 78 -87q0 -11 -1 -31
t-1 -30q0 -63 42 -88q73 402 443 927q-29 73 -49 125q-33 85 -33 151q0 132 121 247q64 -102 64 -240q0 -92 -31 -167q22 36 102 139q61 79 59 91q-12 34 -12 71q0 102 76 197q80 100 179 100q48 0 82 -29t34 -77q0 -98 -113 -194q-108 -91 -209 -95l-184 -248
q110 50 207 50q158 0 229 -112q-62 -75 -200 -75q-70 0 -165 18l-118 23q-153 -243 -216 -359q-128 -237 -189 -445q65 98 243 210q204 129 356 129q15 0 30 -1q138 246 289 246q34 0 68 -16q-21 -124 -79 -182q-36 -36 -103 -54q-56 -15 -62 -30q120 -46 186 -160
q61 -106 61 -241q0 -109 -56 -183q-59 -78 -165 -90q-40 -4 -86 -4q-187 0 -175 48q5 19 35 19q22 0 64.5 -6.5t62.5 -7.5q143 -4 191 43q73 72 73 179q0 15 -3 41q-33 264 -230 324q85 -63 85 -188q0 -100 -73 -138q-127 65 -127 180q0 52 36 175q-240 -30 -436 -182
q-134 -104 -205 -221q8 -2 17 -2q20 0 57 12q45 15 56 17q34 78 102 78q66 0 75 -75q6 -42 -18 -76t-66 -34q-55 0 -99 66q-62 -15 -142 -37q-74 -309 -100 -401q65 97 109 126q56 37 160 37q25 0 79 -1q-13 -218 -330 -244l11 -43h-86l-22 43q-15 5 -33 5q-28 0 -86 -16
t-87 -16q-108 0 -189 157q118 24 205 24q127 0 176 -52q-2 11 -24 64q-90 54 -234 107q-128 48 -223 67l-59 -178q-65 -141 -182 -141q-21 0 -44 4q-7 66 -7 102q0 78 46 120l162 116q-105 5 -195 5q-130 0 -227 -11q-15 -105 -86 -195q-74 -92 -173 -121q-16 36 -16 78
q0 72 43 152q38 69 88 112q-139 22 -174 39q-74 34 -111 135q47 44 112 44q81 0 177 -65q76 -51 134 -120h359q-156 62 -203 260q32 36 71 36q80 0 181 -134q71 -95 110 -187q177 -37 431 -159q-77 144 -228 436q-97 -31 -174 -31q-131 0 -217 93q70 85 170 85q77 0 178 -49
q-23 41 -88 161q-41 75 -89 137q-136 175 -280 181q-186 8 -221 -110q-15 -52 -15 -93q0 -58 25 -100q30 -51 84 -51q9 0 18 1q4 -1 8 -1q18 0 45 40q2 7 2 15q0 11 -7.5 33.5t-7.5 31.5q0 14 19 18q16 3 27 -26q9 -23 9 -42q0 -75 -83 -120q-57 -31 -72 -36
q-49 -17 -115 -15q-37 -55 -98 -55q-34 0 -59 18q-74 49 -74 161q0 206 258 322q112 51 222 51q117 0 194 -63l1 16q-103 115 -265 288q-56 -6 -107 -56q-85 -84 -96 -92q-69 -47 -173 -47q-2 9 -2 19q0 22 16.5 64.5t16.5 63.5t-10 37q-80 0 -168 47q18 43 87 80
q78 41 95 65q-74 62 -150 240q101 9 289 -91q2 19 2 51v49q0 114 25 168q37 -12 80 -92q39 -72 68 -72q21 5 56.5 48.5t66.5 51.5q22 -66 22 -142q0 -33 -4 -66q31 -7 116 -12q68 -3 102 -24q-36 -108 -115 -160q-40 -27 -126 -50q-59 -17 -59 -44q290 -291 496 -614
q15 141 113 546q-83 48 -139 133q-61 90 -61 181q0 72 42 131q171 -68 192 -373q58 166 189 449q-35 -16 -81 -16q-72 0 -143 33q6 37 59 73q62 42 76 61q-76 35 -133 154q21 31 66 31q24 0 66 -11l60 -15q-10 77 -29 211q45 3 93 -35q13 -11 84 -72q29 12 72 67
q46 59 70 73q25 -16 37 -114q14 -122 16 -130q14 -4 32 -4q13 0 39 3.5t39 3.5q36 0 58 -26q1 -48 -34 -78q-23 -20 -69 -58q8 -13 77 -67q51 -40 51 -83q0 -8 -2 -16q-19 -5 -58 -1q-51 4 -58 4q-21 0 -34 -5q3 -10 22 -66q14 -37 14 -65q-14 -4 -27 -4q-31 0 -76 30
q-60 39 -74 46q-17 -58 -63 -173q-66 56 -109 225q-47 -78 -104 -222q-74 -189 -91 -222q40 8 138 61q84 44 134 44q68 0 133 -69q-65 -128 -245 -128q-49 0 -107 7q-74 10 -79 10q-30 -107 -123 -594q13 -32 37 -82zM394 1306l3 -168q11 -136 60 -155q-28 111 -28 152
q0 13 4 13q13 0 71 -145q7 71 -17 168q-31 123 -93 135zM538 958q99 104 99 225q0 38 -11 73q-91 -38 -91 -185q0 -18 1.5 -56t1.5 -57zM119 1173q52 -113 128 -187q95 -94 199 -94q0 6 -81 64q-85 61 -99 99q34 -14 87 -54q57 -45 84 -58q-91 172 -318 230zM597 939
q21 8 81 48q49 34 82 34q8 0 17 -1q-12 -21 -84 -57q-65 -33 -72 -55q144 0 222 153q-27 8 -61 8q-61 0 -117 -26q-70 -33 -70 -87q0 -8 2 -17zM92 837q70 -27 142 -27q83 0 142 35q-13 3 -28 3q-16 0 -46 -5t-46 -5q-33 0 -58 18q24 18 68 15q50 -4 69 4q-31 39 -99 39
q-43 0 -86 -18q-55 -22 -58 -59zM299 720l62 72q-42 0 -94 -40t-52 -80q0 -17 11 -29q173 62 209 158q-23 3 -69 -38.5t-67 -42.5zM422 455q-124 -97 -124 -203q0 -61 43.5 -110t104.5 -49q14 0 27 3q-96 86 -96 195q0 75 45 164zM205 108q29 -71 81 -71q15 0 30 9
q-6 27 -39 96q-26 56 -26 96q0 73 72 172q-133 -96 -133 -226q0 -38 15 -76zM2292 1129q71 99 90 120q57 65 107 76q-41 -81 -156 -219q82 30 149 90q78 70 78 135q0 30 -17 56q-22 9 -45 9q-85 0 -151 -93q-63 -88 -55 -174zM1663 1742q-27 -20 -57 -68q-35 -55 -35 -94
q0 -37 34 -51q71 -4 71 140q0 50 -13 73zM1430 1703l-3 -80q11 -30 23 -59q18 -35 49 -35q10 0 19 2q16 11 16 43q-1 30 -1 49q-31 80 -103 80zM1285 1552q0 -43 49.5 -79t92.5 -30q23 3 23 55q-54 59 -165 54zM1659 1510q-12 -17 -12 -29q0 -27 54 -27q78 0 124 75
q-39 21 -83 21q-55 0 -83 -40zM1548 1498q-61 -3 -61 -75q0 -11 2 -22q15 -35 76 -50q59 25 59 73q0 10 -3 24q-10 45 -73 50zM1659 1389q46 -75 153 -75q14 0 27 1q0 28 -53 65q-51 34 -85 34q-30 0 -42 -25zM1294 1313h93q57 2 78 38q-10 35 -57 35q-27 0 -74 -18
q-54 -21 -54 -43q0 -9 14 -12zM1609 1304q39 -93 121 -124q18 7 16 25q-7 41 -7 30q-9 30 -35 63q-31 38 -58 38q-23 0 -37 -32zM1506 1304l-8 -89q19 -54 20 -57q17 -31 44 -35q35 83 35 95q0 9 -2 17q0 28 -22 49.5t-50 21.5q-9 0 -17 -2z" />
    <glyph glyph-name="Ocircumflex" unicode="&#xd4;" horiz-adv-x="2656" 
d="M1149 992q-1 -97 40 -179q25 -51 106 -162q48 31 48 105q0 76 -49 187q-39 86 -83 147q118 211 148 271q74 146 120 272q8 -55 40 -170q31 -111 38 -163q-16 -36 -31 -71q-25 -44 -63 -44q-10 0 -22 2q-73 -21 -73 -87q0 -36 29.5 -64t66.5 -28q78 0 78 87q0 11 -1 31
t-1 31q0 62 42 87q73 -402 443 -927q-29 -73 -49 -125q-33 -85 -33 -151q0 -131 121 -247q64 103 64 240q0 92 -31 167q22 -36 102 -139q61 -78 59 -91q-12 -34 -12 -71q0 -101 76 -197q80 -100 179 -100q48 0 82 29t34 77q0 98 -113 194q-108 91 -209 95l-184 248
q110 -50 207 -50q158 0 229 112q-62 76 -200 76q-70 0 -165 -19l-118 -23q-153 243 -216 359q-128 237 -189 445q65 -98 243 -210q204 -129 356 -129q15 0 30 1q138 -245 289 -245q34 0 68 15q-21 124 -79 182q-36 36 -103 54q-56 15 -62 30q120 46 186 160q61 106 61 241
q0 109 -56 183q-59 78 -165 90q-40 4 -86 4q-187 0 -175 -48q5 -19 35 -19q22 0 64.5 6.5t62.5 7.5q143 5 191 -43q73 -72 73 -179q0 -15 -3 -41q-33 -264 -230 -323q85 62 85 187q0 100 -73 138q-127 -64 -127 -180q0 -52 36 -175q-240 31 -436 182q-134 104 -205 221
q8 2 17 2q20 0 57 -12q45 -15 56 -17q34 -78 102 -78q66 0 75 76q6 41 -18 75t-66 34q-55 0 -99 -66q-62 15 -142 37q-74 309 -100 401q65 -97 109 -126q56 -37 160 -37q25 0 79 1q-13 218 -330 244l11 44h-86l-22 -44q-15 -4 -33 -4q-28 0 -86 15.5t-87 15.5
q-108 0 -189 -157q118 -24 205 -24q127 0 176 52q-2 -11 -24 -64q-90 -54 -234 -107q-128 -48 -223 -67l-59 178q-65 141 -182 141q-21 0 -44 -4q-7 -66 -7 -102q0 -78 46 -120l162 -116q-105 -4 -195 -4q-130 0 -227 10q-15 105 -86 195q-74 92 -173 122q-16 -36 -16 -79
q0 -72 43 -152q38 -69 88 -112q-139 -22 -174 -39q-74 -34 -111 -135q47 -44 112 -44q81 0 177 65q76 51 134 120h359q-156 -62 -203 -260q32 -36 71 -36q80 0 181 134q71 95 110 187q177 37 431 159q-77 -144 -228 -436q-97 31 -174 31q-131 0 -217 -92q70 -86 170 -86
q77 0 178 50q-23 -41 -88 -162q-41 -75 -89 -137q-136 -175 -280 -181q-186 -8 -221 110q-15 52 -15 93q0 58 25 100q30 51 84 51q9 0 18 -1q4 1 8 1q18 0 45 -39q2 -8 2 -16q0 -11 -7.5 -33.5t-7.5 -31.5q0 -14 19 -18q16 -3 27 26q9 23 9 42q0 75 -83 120q-57 31 -72 36
q-49 18 -115 15q-37 55 -98 55q-34 0 -59 -17q-74 -50 -74 -162q0 -206 258 -322q112 -50 222 -50q117 0 194 62l1 -15q-103 -116 -265 -289q-56 6 -107 56q-85 84 -96 92q-69 47 -173 47q-2 -9 -2 -19q0 -22 16.5 -64.5t16.5 -63.5q0 -20 -10 -37q-80 0 -168 -47
q18 -43 87 -79q78 -41 95 -66q-74 -62 -150 -240q101 -9 289 92q2 -20 2 -52v-49q0 -113 25 -168q37 12 80 92q39 72 68 72q21 -5 56.5 -48.5t66.5 -51.5q22 66 22 142q0 33 -4 66q31 8 116 12q68 3 102 24q-36 109 -115 160q-40 27 -126 51q-59 16 -59 43q290 291 496 614
q15 -141 113 -546q-83 -48 -139 -133q-61 -90 -61 -180q0 -72 42 -131q171 67 192 372q58 -166 189 -449q-35 17 -81 17q-72 0 -143 -34q6 -37 59 -72q62 -43 76 -62q-76 -35 -133 -154q21 -31 66 -31q24 0 66 11l60 15q-10 -76 -29 -211q45 -3 93 35q13 11 84 72
q29 -12 72 -67q46 -59 70 -72q25 16 37 113q14 122 16 130q14 4 32 4q13 0 39 -3.5t39 -3.5q36 0 58 26q1 48 -34 79l-69 57q8 13 77 67q51 40 51 83q0 8 -2 16q-19 5 -58 2q-51 -5 -58 -5q-21 0 -34 6q3 9 22 65q14 37 14 66q-14 3 -27 3q-31 0 -76 -30q-60 -39 -74 -45
q-17 57 -63 172q-66 -56 -109 -225q-47 78 -104 222q-74 189 -91 223q40 -9 138 -62q84 -44 134 -44q68 0 133 70q-65 127 -245 127q-49 0 -107 -7q-74 -10 -79 -10q-30 107 -123 594q13 33 37 82zM394 -253l3 168q11 136 60 155q-28 -111 -28 -152q0 -13 4 -13q13 0 71 145
q7 -71 -17 -168q-31 -123 -93 -135zM538 95q99 -103 99 -225q0 -38 -11 -73q-91 38 -91 185q0 19 1.5 56.5t1.5 56.5zM119 -120q52 113 128 188q95 93 199 93q0 -6 -81 -64q-85 -61 -99 -99q34 14 87 55q57 44 84 58q-91 -173 -318 -231zM597 114q21 -8 81 -48
q49 -34 82 -34q8 0 17 1q-12 21 -84 57q-65 33 -72 55q144 0 222 -152q-27 -9 -61 -9q-61 0 -117 26q-70 33 -70 87q0 8 2 17zM92 216q70 27 142 27q83 0 142 -35q-13 -2 -28 -2q-16 0 -46 4.5t-46 4.5q-33 0 -58 -18q24 -17 68 -14q50 3 69 -5q-31 -39 -99 -39
q-43 0 -86 18q-55 23 -58 59zM299 333l62 -72q-42 0 -94 40t-52 80q0 17 11 29q173 -61 209 -158q-23 -2 -69 39t-67 42zM422 599q-124 96 -124 202q0 61 43.5 110t104.5 49q14 0 27 -3q-96 -85 -96 -195q0 -75 45 -163zM205 945q29 71 81 71q15 0 30 -9q-6 -27 -39 -96
q-26 -55 -26 -96q0 -73 72 -172q-133 97 -133 226q0 38 15 76zM2292 -76q71 -98 90 -120q57 -65 107 -76q-41 81 -156 219q82 -30 149 -90q78 -70 78 -135q0 -30 -17 -56q-22 -9 -45 -9q-85 0 -151 93q-63 88 -55 174zM1663 -689q-27 21 -57 68q-35 55 -35 94q0 37 34 51
q71 5 71 -140q0 -50 -13 -73zM1430 -649l-3 79q11 30 23 59q18 35 49 35q10 0 19 -2q16 -11 16 -43q-1 -30 -1 -49q-31 -79 -103 -79zM1285 -499q0 43 49.5 79t92.5 30q23 -3 23 -55q-54 -59 -165 -54zM1659 -457q-12 17 -12 30q0 27 54 27q78 0 124 -76q-39 -21 -83 -21
q-55 0 -83 40zM1548 -445q-61 3 -61 75q0 11 2 22q15 35 76 50q59 -25 59 -73q0 -10 -3 -24q-10 -45 -73 -50zM1659 -336q46 75 153 75q14 0 27 -1q0 -28 -52 -63.5t-86 -35.5q-30 0 -42 25zM1294 -260h93q57 -1 78 -38q-10 -35 -57 -35q-27 0 -74 18q-54 21 -54 43
q0 9 14 12zM1609 -251q39 93 121 125q18 -8 16 -26q-7 -41 -7 -30q-9 -30 -35 -63q-31 -38 -58 -38q-23 0 -37 32zM1506 -251l-8 90q19 53 20 56q17 31 44 35q35 -83 35 -95q0 -8 -2 -17q0 -28 -22 -49.5t-50 -21.5q-9 0 -17 2z" />
    <glyph glyph-name="Oslash" unicode="&#xd8;" horiz-adv-x="386" 
d="M424 1076h-448v122h448v-122z" />
    <glyph glyph-name="Uacute" unicode="&#xda;" horiz-adv-x="910" 
d="M496 1138q130 -61 130 -210q0 -52 -20 -96q-59 -130 -210 -130q-52 0 -96 20q-132 59 -132 210q0 49 22 96q62 132 210 132q49 0 96 -22zM400 1066q-56 0 -97 -40.5t-41 -95.5t38.5 -93.5t93.5 -38.5q90 0 126 74q12 24 12 58q0 55 -39 95.5t-93 40.5zM502 508
q130 -61 130 -210q0 -52 -20 -96q-59 -130 -210 -130q-52 0 -96 20q-132 59 -132 210q0 49 22 96q62 132 210 132q49 0 96 -22zM406 436q-56 0 -97 -40.5t-41 -95.5t38.5 -93.5t93.5 -38.5q90 0 126 74q12 24 12 58q0 55 -39 95.5t-93 40.5z" />
    <glyph glyph-name="aring" unicode="&#xe5;" horiz-adv-x="1182" 
d="M1960 2365q64 -81 92 -201t16 -242q-12 -121 -59 -213q-20 -39 -145 -191q-125 -151 -154 -169q-22 -14 -52 -16q-30 -3 -70 0t-57 3q-5 38 4.5 73t29.5 61q19 27 47 55q29 28 56 50q27 21 57 50q30 28 49 52q57 76 86 154t30 148q0 69 -22.5 135t-64.5 119
q-42 54 -101 97q-59 44 -129 72q-70 27 -151 39q-88 13 -165 4q-21 -2 -57.5 -11t-68.5 -20q-33 -10 -85 -29q-52 -18 -79 -28l-78 -30t-58 -22q-178 -56 -185 -59q-82 -34 -158 -75t-137 -85q-61 -43 -117 -96q-57 -52 -99 -110q-41 -58 -75 -128q-34 -69 -55 -148
q-20 -78 -29 -170t-5 -196l-166 -27q-8 187 38 360t137 319q92 145 224 264q132 120 297 205q190 67 380 135q266 95 347 102q50 5 105 5q54 1 114 -6q60 -8 118 -19q58 -12 115 -32q58 -21 108 -46q51 -25 95 -59q45 -35 77 -74z" />
    <glyph glyph-name="ae" unicode="&#xe6;" horiz-adv-x="26" 
d="M-512 -331q-75 2 -102 35q-21 24 -10 60q10 33 42 62q37 33 86 45q59 13 114 -10q18 -26 23.5 -51.5t0.5 -46.5t-18.5 -39t-34 -30t-47 -18.5t-54.5 -6.5z" />
    <glyph glyph-name="ccedilla" unicode="&#xe7;" 
d="M-155 -331q3 -86 -53 -141q-45 -44 -114 -58q-67 -13 -128 6q-61 20 -92 64q-21 31 -23 71q-1 16 3 32.5t9.5 26.5t10 20t4.5 15q0 4 -4 11t-9 14t-11 15t-9.5 17t-5 18.5t2.5 20.5t13 22q18 8 34 10t28 -1t22.5 -9t19 -13.5t16 -14.5t15 -12.5t13.5 -7.5q27 -5 48.5 -7
t36.5 -1t25 6t15.5 10t7.5 15.5t2.5 17.5t-3 20t-5.5 20.5t-7 21.5q-17 48 -12 63q72 52 100 -8q14 -30 20 -100q5 -56 6 -64v-2q3 -13 13.5 -46t10.5 -52zM-447 -417q13 -9 30.5 -14t36.5 -5t38.5 2.5t37 10t31 18.5t21 26.5t7.5 33.5l-36 36q-14 -7 -32 -10.5t-34 -4
t-33 -1t-30 -1.5t-24 -6.5t-16.5 -15t-5 -27t8.5 -42.5z" />
    <glyph glyph-name="udieresis" unicode="&#xfc;" 
d="M-156 -171v0q3 -25 -6.5 -49t-28.5 -44t-47 -38t-61 -31.5t-69.5 -25t-74 -19.5t-74.5 -13t-70.5 -6.5t-61.5 0.5t-48 7q-33 8 -84 43t-93 78q-48 50 -59 86q-10 39 28 51q16 5 39 5q17 0 30.5 -1.5t22.5 -4.5t16.5 -8t12 -10t10 -12t10 -13.5t12 -14t16.5 -14.5
q37 -27 74.5 -43t74.5 -21t76.5 -0.5t78.5 18t83 35.5q9 5 36 29q36 31 52 43q51 38 77 28q22 -9 28 -55z" />
    <glyph glyph-name="OE" unicode="&#x152;" horiz-adv-x="2656" 
d="M1793 707q-97 1 -179 -40q-51 -24 -162 -105q31 -49 105 -49q76 0 187 50q86 38 147 83q211 -119 271 -149q146 -74 272 -120q-55 -8 -170 -40q-111 -31 -163 -38q-36 16 -71 31q-44 25 -44 63q0 10 2 22q-21 73 -87 73q-36 0 -64 -29.5t-28 -66.5q0 -78 87 -78
q11 0 31 1t31 1q62 0 87 -42q-402 -73 -927 -443q-73 29 -125 49q-85 33 -151 33q-131 0 -247 -121q102 -64 240 -64q92 0 167 31q-36 -22 -139 -102q-78 -61 -91 -59q-34 12 -71 12q-101 0 -197 -76q-100 -80 -100 -179q0 -48 29 -82t77 -34q98 0 194 113q91 108 95 209
l248 184q-50 -109 -50 -207q0 -158 112 -229q75 62 75 200q0 70 -18 165l-23 118q243 153 359 216q237 128 445 189q-98 -65 -210 -243q-129 -204 -129 -356q0 -15 1 -30q-245 -138 -245 -288q0 -35 15 -69q124 21 182 79q36 36 54 103q15 56 30 62q46 -120 160 -186
q106 -60 241 -60q109 0 183 55q78 59 90 165q4 40 4 86q0 187 -48 175q-19 -5 -19 -35q0 -22 6 -63q7 -44 8 -63q4 -144 -43 -192q-72 -73 -179 -73q-15 0 -41 4q-264 32 -323 229q62 -85 187 -85q100 0 138 73q-65 128 -180 128q-52 0 -175 -36q31 239 182 435
q104 134 221 206q2 -9 2 -18q0 -20 -12 -57q-15 -45 -17 -55q-78 -35 -78 -103q0 -66 75 -75q42 -6 76 18t34 66q0 55 -66 99q15 62 37 142q309 74 401 100q-97 -65 -126 -109q-37 -55 -37 -160q0 -25 1 -79q218 13 244 330l44 -11v86l-44 22q-4 15 -4 33q0 28 15.5 86
t15.5 87q0 109 -157 189q-24 -118 -24 -205q0 -127 52 -176q-11 2 -64 24q-54 90 -107 234q-48 128 -67 223l178 59q141 65 141 182q0 21 -4 44q-66 7 -102 7q-78 0 -120 -45l-116 -163q-4 105 -4 195q0 130 10 227q105 15 196 87.5t121 171.5q-37 17 -79 17q-72 0 -152 -44
q-66 -36 -112 -87q-22 138 -39 173q-34 74 -135 112q-44 -47 -44 -113q0 -80 65 -177q51 -76 120 -134v-359q-62 156 -260 203q-36 -32 -36 -71q0 -80 134 -180q95 -71 187 -111q37 -177 159 -431q-144 78 -436 228q31 97 31 174q0 131 -92 217q-86 -70 -86 -170
q0 -77 49 -178q-40 23 -161 88q-75 41 -137 89q-175 136 -181 280q-8 186 110 221q52 15 93 15q58 0 100 -25q51 -30 51 -84q0 -9 -1 -17q1 -5 1 -9q0 -18 -39 -45q-8 -2 -16 -2q-11 0 -33.5 7.5t-31.5 7.5q-14 0 -18 -18q-3 -17 26 -28q23 -8 42 -8q75 0 120 82
q31 57 36 73q18 48 15 114q55 37 55 98q0 34 -17 59q-50 74 -162 74q-206 0 -322 -258q-50 -112 -50 -222q0 -117 62 -194l-15 -1q-116 104 -289 265q6 57 56 107q84 85 92 96q47 69 47 173q-9 2 -19 2q-22 0 -64.5 -16.5t-63.5 -16.5q-20 0 -37 10q0 80 -47 168
q-43 -17 -79 -87q-41 -78 -66 -95q-62 74 -240 151q-9 -102 92 -290q-20 -2 -52 -2h-49q-114 0 -168 -25q12 -37 92 -80q72 -39 72 -68q-5 -21 -48.5 -56.5t-51.5 -66.5q66 -22 142 -22q33 0 66 5q8 -31 12 -117q3 -68 24 -102q109 36 160 115q27 40 51 127q16 58 43 58
q291 -290 614 -496q-141 -15 -546 -113q-48 83 -133 140q-90 60 -180 60q-73 0 -131 -42q67 -171 372 -192q-166 -58 -449 -189q16 35 16 81q0 72 -33 143q-37 -6 -72 -59q-43 -62 -62 -76q-35 76 -154 133q-31 -21 -31 -65q0 -25 11 -67l15 -60q-76 10 -211 29
q-3 -44 35 -92q11 -14 72 -85q-12 -28 -67 -72q-59 -46 -73 -69q17 -26 114 -38q122 -14 130 -16q4 -14 4 -32q0 -13 -3.5 -39t-3.5 -39q0 -36 26 -58q48 -1 79 34q19 23 57 70q13 -9 67 -78q40 -51 83 -51q8 0 16 2q5 20 1 58q-4 51 -4 58q0 22 6 35q9 -4 65 -23
q37 -13 66 -13q3 13 3 26q0 31 -30 76q-39 60 -45 74q57 17 172 63q-56 66 -225 109q78 47 222 104q189 75 223 91q-9 -40 -62 -138q-44 -84 -44 -134q0 -68 70 -133q127 65 127 245q0 49 -7 107q-10 74 -10 80q107 29 594 122q33 -13 82 -37zM548 1462l168 -3
q136 -11 155 -60q-111 28 -152 28q-13 0 -13 -4q0 -13 145 -71q-71 -6 -168 18q-123 30 -135 92zM896 1318q-104 -99 -225 -99q-38 0 -73 11q38 92 185 92q19 0 56.5 -2t56.5 -2zM681 1738q113 -53 188 -129q93 -94 93 -199q-6 0 -64 81q-61 85 -99 99q14 -34 55 -87
q44 -57 58 -84q-173 91 -231 319zM915 1259q-8 -21 -48 -81q-34 -49 -34 -81q0 -9 1 -18q21 12 57 84q33 65 55 72q0 -144 -152 -221q-9 26 -9 60q0 61 26 117q33 70 87 70q8 0 17 -2zM1017 1764q27 -70 27 -142q0 -83 -35 -142q-2 13 -2 28q0 16 4.5 46.5t4.5 45.5
q0 33 -18 58q-17 -24 -14 -68q3 -50 -5 -69q-39 31 -39 99q0 43 18 87q23 54 59 57zM1134 1557l-72 -62q0 42 40 94t80 52q17 0 29 -10q-61 -174 -158 -210q-2 23 39 69t42 67zM1400 1434q96 124 202 124q61 0 109 -42q50 -45 50 -106q0 -14 -3 -27q-85 96 -195 96
q-75 0 -163 -45zM1746 1651q71 -29 71 -81q0 -15 -9 -30q-27 6 -96 39q-55 26 -96 26q-73 0 -172 -72q96 134 226 134q38 0 76 -16zM725 -435q-98 -72 -120 -91q-65 -56 -76 -107q81 41 219 156q-30 -82 -90 -148q-70 -79 -135 -79q-30 0 -56 17q-9 22 -9 45q0 85 93 151
q88 63 174 56zM112 194q20 26 68 56q55 35 94 35q37 0 51 -34q5 -71 -140 -71q-50 0 -73 14zM152 426l79 3q30 -11 59 -23q35 -18 35 -49q0 -10 -2 -19q-11 -16 -43 -16q-30 1 -49 1q-79 31 -79 103zM302 571q43 0 79 -49.5t30 -92.5q-3 -23 -55 -23q-59 54 -54 165z
M344 197q17 12 30 12q26 0 26 -54q0 -78 -75 -124q-21 39 -21 83q0 55 40 83zM356 308q3 61 75 61q11 0 22 -2q35 -15 50 -76q-25 -59 -73 -59q-10 0 -24 3q-45 10 -50 73zM465 197q75 -46 75 -153q0 -14 -1 -27q-28 0 -63.5 52t-35.5 86q0 30 25 42zM541 563v-94
q-1 -57 -38 -78q-35 10 -35 57q0 28 18 74q21 54 43 54q9 0 12 -13zM550 247q93 -39 125 -121q-8 -18 -26 -15q-41 6 -30 6q-30 9 -63 36q-38 30 -38 57q0 23 32 37zM550 350l90 8q53 -19 56 -20q31 -16 35 -44q-83 -35 -95 -35q-8 0 -17 2q-28 0 -49.5 22t-21.5 50
q0 9 2 17z" />
    <glyph glyph-name="oe" unicode="&#x153;" 
d="M-521 -493q14 3 33 13.5t37 26.5t33 34.5t22.5 38.5t3.5 35q-11 11 -66 4q-11 -1 -37 -5q-73 -12 -103 -11q-60 2 -59 42q0 25 22 65q17 1 45.5 1h49.5t48.5 2.5t48.5 8t43 17t39 28.5q11 12 16.5 23.5t5.5 21.5t-3 19.5t-8 19t-9.5 18t-7 19t-0.5 19.5q3 13 10 23
t16.5 17t21.5 8.5t23 -2t22 -14.5t19 -29q11 -24 15.5 -46t3.5 -39t-4.5 -32t-9.5 -29t-11.5 -26.5t-10 -28t-5.5 -29.5q-1 -15 1 -32t5.5 -30t5 -29t-0.5 -30.5t-11.5 -33t-26.5 -37.5q-17 -20 -41.5 -39t-54 -36t-61.5 -30.5t-65.5 -20t-64.5 -6t-59.5 12t-49.5 33.5
q3 31 8 52.5t11 33.5t14 18t17 6t19 -3t20.5 -9t22 -12t22 -11.5t22.5 -8t23 -1.5z" />
    <glyph glyph-name="florin" unicode="&#x192;" horiz-adv-x="1218" 
d="M293 -333q-31 22 -57 56q-31 41 -32 69q-1 30 33 35q13 1 30 0q9 -1 26.5 -11t37.5 -24t41 -28.5t42.5 -27t36.5 -16.5q30 -9 62.5 -11.5t64 1.5t64 10.5t66 14.5t64.5 14.5t65.5 10t63.5 2.5q40 -40 -43 -86q-68 -38 -199 -72q-83 -21 -130 -26q-8 -1 -13 -1
q-22 0 -53 9t-62 22.5t-59.5 29t-48.5 29.5zM777 -165q-38 -15 -70.5 -25t-67.5 -15.5t-67.5 -4.5t-67.5 9.5t-72 24.5q-68 30 -97 77q-21 34 -16 65q4 25 23 37q23 13 55 -1q12 -6 24 -15q4 -4 8.5 -11.5t8 -14.5t9.5 -15t12 -12q19 -12 48.5 -19t60 -8.5t60 0.5t53.5 6
q12 3 27 9.5t28 14.5t27 16.5t27.5 14.5t26.5 9.5t26.5 1t25.5 -11.5q67 -48 -22 -99q-23 -13 -70 -33zM1570 1228l37 -119q-8 -30 -38 -33q-38 -2 -80 -6q-20 -2 -57 -13q-15 -5 -122 -5h-53q-61 0 -111 1q-50 2 -85 -1l-52 -30q-16 -60 -23 -108t-4 -76q3 -27 11 -45
q7 -18 23 -34q15 -15 31 -29q15 -13 36 -37q22 -24 39 -53q30 -51 47 -110q17 -60 21 -118q3 -58 -6 -115q-10 -57 -31 -104q-21 -48 -56 -83q-36 -36 -80 -54t-104 -13.5t-126 34.5q-6 8 -8 17q-1 9 3 19q4 11 9 19q4 8 16 21t19 21q8 7 23 23q23 22 35 35q12 12 31 36
q20 24 28 41t14 43q7 26 3 48q-5 23 -20 51q-14 28 -40 56q-30 30 -63 49q-34 18 -64 26t-69 4q-40 -4 -68 -9q-28 -6 -71 -24q-65 -25 -68 -28q-33 -27 -68 -33h-1q-22 -11 -34 -32q-13 -20 -11 -46l13 -187q2 -25 -14 -45q-15 -21 -40 -26l-75 -15q-28 -6 -56.5 1
t-49.5 26q-44 38 -65 89q-22 52 -21 106q1 55 19.5 110t51.5 105q23 33 70 64q48 31 104 54t119.5 45.5t120.5 42.5t102 39q46 20 70 43q23 22 19 47q-1 6 2 18q2 6 5 32q6 43 -5 92h-19q-40 5 -232 11q-204 5 -260 -11q-9 -3 -83 -6q-32 -1 -118 -11q-34 -4 -118 -7
q-59 -2 -98 9q-38 11 -45 36q-25 93 -24 93q-3 51 3 55q40 25 50 27q50 6 94 1q91 -11 98 -11q55 7 68 6q51 -4 57 -4q37 4 43 4q138 -9 200 -7q184 4 196 4q39 2 191 0q155 -2 186 -2q70 1 121 -2q120 -5 177 -2q40 2 116 12q26 3 115 -1q73 -4 99 -21zM442 1232l-10 37
q-38 83 -10 170q24 73 80 130q56 56 125 76q82 22 147 -9q50 -24 86 -78q22 -33 32 -63q48 -151 -5 -256q-23 -45 -445 -7zM554 1298q23 -7 48.5 -9.5t50 1.5t47.5 12q19 7 41 23q17 13 29 32q12 18 15 43q2 27 -5 52q-17 59 -61 76q-35 13 -81 -9q-40 -18 -68 -59
q-45 -64 -32 -100q10 -30 16 -62z" />
    <glyph glyph-name="circumflex" unicode="&#x2c6;" horiz-adv-x="161" 
d="M171 1247q8 2 14 -1q7 -3 8 -4l4 -7q1 -4 1 -16v-13q-2 -2 -4 -16q-6 -40 -6 -104l-298 10q-10 0 -18 5q-9 4 -13 13q-18 28 -3 87q5 22 11 26q10 7 24 10q14 4 30 6q17 2 35 2h34h31q6 1 22 1l60 2l18 -1q11 1 12 0q0 -1 19 -4q4 0 10 1zM16 1332q-59 1 -81 27
q-16 20 -7 48q8 26 33 49q30 27 68 36q47 11 91 -8q14 -21 18 -41q5 -20 1 -36.5t-15 -30.5q-11 -15 -27 -24q-16 -10 -37 -15t-44 -5z" />
    <glyph glyph-name="tilde" unicode="&#x2dc;" 
d="M-392 -551q-55 5 -36 54q10 25 48 74q29 38 35 48q5 10 6 15q7 71 -49 69q-52 -2 -162 -70q-1 -1 -8 -5l23 -89l-31 -36q-18 -3 -34 1t-27 13.5t-19.5 22.5t-12.5 28.5t-5 32.5t1.5 33t9 31.5t15.5 28.5q9 10 23 19.5t30 16.5t35 14t37.5 13.5t36 14.5t32.5 18t26.5 21.5
t17 27.5t3.5 35l-47 2l-2 65q19 1 36 1.5t34.5 -2.5t32.5 -9t29 -16t26 -25l-23 -129q25 -10 40 -30t19.5 -44.5t2 -53t-11.5 -56t-23 -53t-31 -44t-37.5 -29t-39.5 -8.5z" />
    <glyph glyph-name="endash" unicode="&#x2013;" horiz-adv-x="1040" 
d="M924 544h-812v114h812v-114z" />
    <glyph glyph-name="emdash" unicode="&#x2014;" horiz-adv-x="1800" 
d="M100 660h1600v-118h-1600v118z" />
    <glyph glyph-name="quoteleft" unicode="&#x2018;" horiz-adv-x="846" 
d="M170 1226q0 99 98 202q81 86 164 124l18 -42q-105 -65 -148 -144q-20 -36 -24 -76q-2 -20 -6 -62q16 -18 72 -20q76 -2 96 -8q47 -13 52 -66q5 -55 -36 -88q-37 -28 -94 -28q-66 0 -116 36q-76 54 -76 172z" />
    <glyph glyph-name="quoteright" unicode="&#x2019;" horiz-adv-x="806" 
d="M612 1344q0 -99 -98 -202q-81 -86 -164 -124l-18 42q105 65 148 144q20 36 24 76q2 20 6 62q-17 19 -72 20q-74 1 -96 8q-47 15 -52 66q-5 55 36 88q37 28 94 28q66 0 116 -36q76 -54 76 -172z" />
    <glyph glyph-name="quotesinglbase" unicode="&#x201a;" horiz-adv-x="2656" 
d="M293 35l256 -48q-346 -181 -482 -764q130 59 260 117q154 73 251 143q126 90 197 203q39 -57 45 -210q194 32 299 201q73 121 124 365q68 329 85 381q17 -52 85 -381q51 -244 124 -365q105 -169 299 -201q2 44 7 82q12 89 38 128q71 -113 197 -203q97 -70 251 -143
q130 -58 260 -117q-136 583 -482 764l256 48q-64 200 -238 299q-121 69 -357 112q-296 54 -366 77q68 23 366 78q235 44 357 114q174 100 238 300l-256 48q346 181 482 764q-130 -59 -260 -117q-154 -73 -251 -143q-126 -90 -197 -203q-39 57 -45 210q-194 -32 -299 -201
q-73 -121 -124 -365q-68 -329 -85 -381q-17 52 -85 381q-51 244 -124 365q-105 169 -299 201q-2 -44 -7 -82q-12 -89 -38 -128q-71 113 -197 203q-97 70 -251 143q-130 58 -260 117q136 -583 482 -764l-256 -48q64 -200 238 -299q121 -69 357 -112q296 -54 366 -77
q-68 -23 -366 -78q-235 -44 -357 -114q-174 -100 -238 -300zM820 527q-321 -151 -506 -151q-166 0 -166 138q0 141 183 141q185 0 489 -128zM1836 527q321 -151 506 -151q166 0 166 138q0 141 -183 141q-185 0 -489 -128zM1322 12q150 -321 150 -506q0 -166 -138 -166
q-141 0 -141 183q0 185 129 489zM1322 1028q150 321 150 506q0 167 -138 167q-141 0 -141 -183q0 -185 129 -490z" />
    <glyph glyph-name="quotedblleft" unicode="&#x201c;" horiz-adv-x="1250" 
d="M110 1226q0 99 98 202q81 86 164 124l18 -42q-105 -65 -148 -144q-20 -36 -24 -76q-2 -20 -6 -62q16 -18 72 -20q76 -2 96 -8q47 -13 52 -66q5 -55 -36 -88q-37 -28 -94 -28q-66 0 -116 36q-76 54 -76 172zM630 1226q0 99 98 202q81 86 164 124l18 -42
q-105 -65 -148 -144q-20 -36 -24 -76q-2 -20 -6 -62q16 -18 72 -20q76 -2 96 -8q47 -13 52 -66q5 -55 -36 -88q-37 -28 -94 -28q-66 0 -116 36q-76 54 -76 172z" />
    <glyph glyph-name="quotedblright" unicode="&#x201d;" horiz-adv-x="1230" 
d="M1132 1344q0 -99 -98 -202q-81 -86 -164 -124l-18 42q105 65 148 144q20 36 24 76q2 20 6 62q-17 19 -72 20q-74 1 -96 8q-47 15 -52 66q-5 55 36 88q37 28 94 28q66 0 116 -36q76 -54 76 -172zM612 1344q0 -99 -98 -202q-81 -86 -164 -124l-18 42q105 65 148 144
q20 36 24 76q2 20 6 62q-17 19 -72 20q-74 1 -96 8q-47 15 -52 66q-5 55 36 88q37 28 94 28q66 0 116 -36q76 -54 76 -172z" />
    <glyph glyph-name="dagger" unicode="&#x2020;" 
d="M-134 -492q-4 -36 -26 -68q-23 -32 -58 -55q-35 -22 -79 -37q-44 -14 -90 -18.5t-91 4.5t-81 30q-36 20 -61 59q-50 74 -51 80q-48 147 39 216q38 31 77 42q9 3 69 17q72 17 105 37q10 6 19 12q3 4 2 11q-2 6 -7 13q-5 8 -11 16.5t-13 17.5q-6 9 -10.5 18.5t-5.5 17.5
q-2 9 2 17q5 8 15 15q14 9 30 10q17 1 31 -5q15 -6 29 -17t26 -27q11 -15 20 -33q8 -18 13 -36q4 -19 4 -37q-1 -19 -7 -35q-3 -9 -13 -18q-9 -10 -21 -18.5t-29.5 -17.5t-33.5 -16q-17 -8 -38 -16t-38 -13.5t-38 -12.5q-22 -7 -35 -11t-30 -9q-18 -5 -23 -7q-7 -22 -7 -45
q2 -50 16 -87q6 -15 16 -26q11 -10 24 -18q14 -8 30 -12q17 -3 34 -4q18 -1 36 1q19 3 36 8q18 5 34 14q17 9 30 20q7 6 14 15q7 8 11.5 17t10.5 19l10 18q5 8 11 17q6 8 13 14q6 5 15 9t20 3q10 0 24 -3q10 -3 18 -20q7 -18 10 -36q3 -19 3 -30z" />
    <glyph glyph-name="bullet" unicode="&#x2022;" horiz-adv-x="860" 
d="M94 596l340 340l340 -340l-340 -340z" />
    <glyph glyph-name="ellipsis" unicode="&#x2026;" horiz-adv-x="2074" 
d="M228 -108q0 38 27 65t65 27q37 0 63.5 -27.5t26.5 -64.5q0 -36 -27 -63t-63 -27q-37 0 -64.5 26.5t-27.5 63.5zM938 -108q0 38 27 65t65 27q37 0 63.5 -27.5t26.5 -64.5q0 -36 -27 -63t-63 -27q-37 0 -64.5 26.5t-27.5 63.5zM1648 -108q0 38 27 65t65 27q37 0 63.5 -27.5
t26.5 -64.5q0 -36 -27 -63t-63 -27q-37 0 -64.5 26.5t-27.5 63.5z" />
    <glyph glyph-name="perthousand" unicode="&#x2030;" horiz-adv-x="2656" 
d="M862 707q97 1 179 -40q51 -24 162 -105q-31 -49 -105 -49q-76 0 -186 50q-87 38 -148 83q-211 -119 -271 -149q-145 -74 -272 -120q55 -8 170 -40q111 -31 163 -38q36 16 71 31q44 25 44 63q0 10 -2 22q21 73 87 73q37 0 64.5 -29.5t27.5 -66.5q0 -78 -87 -78
q-11 0 -31 1t-31 1q-62 0 -87 -42q402 -73 927 -443q73 29 125 49q85 33 151 33q131 0 247 -121q-102 -64 -240 -64q-92 0 -167 31q36 -22 139 -102q79 -61 91 -59q34 12 71 12q102 0 197 -76q100 -80 100 -179q0 -48 -29 -82t-77 -34q-98 0 -194 113q-91 108 -95 209
l-248 184q50 -109 50 -207q0 -158 -112 -229q-75 62 -75 200q0 70 18 165l23 118q-243 153 -359 216q-237 128 -445 189q98 -65 210 -243q129 -204 129 -356q0 -15 -1 -30q246 -138 246 -288q0 -35 -16 -69q-124 21 -182 79q-36 36 -54 103q-15 56 -30 62
q-46 -120 -160 -186q-106 -60 -241 -60q-109 0 -183 55q-78 59 -90 165q-4 40 -4 86q0 187 48 175q19 -5 19 -35q0 -22 -6 -63q-7 -44 -8 -63q-4 -144 43 -192q72 -73 179 -73q15 0 41 4q264 32 324 229q-63 -85 -188 -85q-100 0 -138 73q65 128 180 128q52 0 175 -36
q-30 239 -182 435q-104 134 -221 206q-2 -9 -2 -18q0 -20 12 -57q15 -45 17 -55q78 -35 78 -103q0 -66 -75 -75q-42 -6 -76 18t-34 66q0 55 66 99q-15 62 -37 142q-309 74 -401 100q97 -65 126 -109q37 -55 37 -160q0 -25 -1 -79q-218 13 -244 330l-44 -11v86l44 22
q5 15 5 33q0 28 -16 86t-16 87q0 109 157 189q24 -118 24 -205q0 -127 -52 -176q11 2 64 24q54 90 107 234q48 128 67 223l-178 59q-141 65 -141 182q0 21 4 44q66 7 102 7q78 0 120 -45l116 -163q5 105 5 195q0 130 -11 227q-105 15 -196 87.5t-120 171.5q36 17 78 17
q72 0 152 -44q69 -38 112 -87q22 138 39 173q34 74 135 112q44 -47 44 -113q0 -80 -65 -177q-51 -76 -120 -134v-359q62 156 260 203q36 -32 36 -71q0 -80 -134 -180q-95 -71 -187 -111q-37 -177 -159 -431q144 78 436 228q-31 97 -31 174q0 131 93 217q85 -70 85 -170
q0 -77 -49 -178q41 23 161 88q75 41 137 89q175 136 181 280q8 186 -110 221q-52 15 -93 15q-58 0 -100 -25q-51 -30 -51 -84q0 -9 1 -17q-1 -5 -1 -9q0 -18 39 -45q8 -2 16 -2q11 0 33.5 7.5t31.5 7.5q14 0 18 -18q3 -17 -26 -28q-23 -8 -42 -8q-75 0 -120 82
q-31 57 -36 73q-18 48 -15 114q-55 37 -55 98q0 34 18 59q49 74 161 74q206 0 322 -258q50 -112 50 -222q0 -117 -62 -194l16 -1q115 104 288 265q-6 57 -56 107q-84 85 -92 96q-47 69 -47 173q9 2 19 2q22 0 64.5 -16.5t63.5 -16.5q20 0 37 10q0 80 47 168q43 -17 80 -87
q41 -78 65 -95q62 74 240 151q9 -102 -91 -290q19 -2 51 -2h49q114 0 168 -25q-12 -37 -92 -80q-72 -39 -72 -68q5 -21 48.5 -56.5t51.5 -66.5q-66 -22 -142 -22q-33 0 -66 5q-7 -31 -12 -117q-3 -68 -24 -102q-108 36 -160 115q-27 40 -50 127q-17 58 -44 58
q-291 -290 -614 -496q141 -15 546 -113q48 83 133 140q90 60 181 60q72 0 131 -42q-68 -171 -373 -192q166 -58 449 -189q-16 35 -16 81q0 72 33 143q37 -6 73 -59q42 -62 61 -76q35 76 154 133q31 -21 31 -65q0 -25 -11 -67l-15 -60q77 10 211 29q3 -44 -35 -92
q-11 -14 -72 -85q12 -28 67 -72q59 -46 73 -69q-16 -26 -114 -38q-122 -14 -130 -16q-4 -14 -4 -32q0 -13 3.5 -39t3.5 -39q0 -36 -26 -58q-48 -1 -78 34q-20 23 -58 70q-13 -9 -67 -78q-40 -51 -83 -51q-8 0 -16 2q-5 20 -1 58q4 51 4 58q0 22 -5 35q-10 -4 -66 -23
q-37 -13 -66 -13q-3 13 -3 26q0 31 30 76q39 60 46 74q-58 17 -173 63q56 66 225 109q-78 47 -222 104q-189 75 -222 91q8 -40 61 -138q44 -84 44 -134q0 -68 -69 -133q-128 65 -128 245q0 49 7 107q10 74 10 80q-107 29 -594 122q-32 -13 -82 -37zM2107 1462l-168 -3
q-136 -11 -155 -60q111 28 152 28q13 0 13 -4q0 -13 -145 -71q71 -6 168 18q123 30 135 92zM1759 1318q104 -99 225 -99q38 0 73 11q-38 92 -185 92q-19 0 -56.5 -2t-56.5 -2zM1974 1738q-113 -53 -187 -129q-94 -94 -94 -199q6 0 64 81q61 85 99 99q-14 -34 -54 -87
q-45 -57 -58 -84q172 91 230 319zM1740 1259q8 -21 48 -81q34 -49 34 -81q0 -9 -1 -18q-21 12 -57 84q-33 65 -55 72q0 -144 153 -221q8 26 8 60q0 61 -26 117q-33 70 -87 70q-8 0 -17 -2zM1638 1764q-27 -70 -27 -142q0 -83 35 -142q3 13 3 28q0 16 -5 46.5t-5 45.5
q0 33 18 58q18 -24 15 -68q-4 -50 4 -69q39 31 39 99q0 43 -18 87q-22 54 -59 57zM1521 1557l72 -62q0 42 -40 94t-80 52q-17 0 -29 -10q62 -174 158 -210q3 23 -38.5 69t-42.5 67zM1255 1434q-96 124 -202 124q-61 0 -109 -42q-50 -45 -50 -106q0 -14 3 -27q85 96 195 96
q75 0 163 -45zM909 1651q-71 -29 -71 -81q0 -15 9 -30q27 6 96 39q56 26 96 26q73 0 172 -72q-96 134 -226 134q-38 0 -76 -16zM1930 -435q98 -72 120 -91q65 -56 76 -107q-81 41 -219 156q30 -82 90 -148q70 -79 135 -79q30 0 56 17q9 22 9 45q0 85 -93 151q-88 63 -174 56
zM2330 251q-4 -71 140 -71q50 0 73 14zM2504 426l-80 3q-30 -11 -59 -23q-35 -18 -35 -49q0 -10 2 -19q11 -16 43 -16q30 1 49 1q80 31 80 103zM2353 571q-43 0 -79 -49.5t-30 -92.5q3 -23 55 -23q59 54 54 165zM2311 197q-17 12 -30 12q-26 0 -26 -54q0 -78 75 -124
q21 39 21 83q0 55 -40 83zM2299 308q-3 61 -75 61q-11 0 -22 -2q-35 -15 -50 -76q25 -59 73 -59q10 0 24 3q45 10 50 73zM2190 197q-75 -46 -75 -153q0 -14 1 -27q28 0 65 53q34 51 34 85q0 30 -25 42zM2114 563v-94q2 -57 38 -78q35 10 35 57q0 28 -18 74q-21 54 -43 54
q-9 0 -12 -13zM2105 247q-93 -39 -124 -121q7 -18 25 -15q41 6 30 6q30 9 63 36q38 30 38 57q0 23 -32 37zM2105 350l-90 8q-53 -19 -56 -20q-31 -16 -35 -44q83 -35 95 -35q8 0 17 2q28 0 49.5 22t21.5 50q0 9 -2 17z" />
    <glyph glyph-name="guilsinglleft" unicode="&#x2039;" horiz-adv-x="1160" 
d="M66 538v122h998v-122h-998zM480 964q0 35 23.5 59.5t58.5 24.5q36 0 60 -24t24 -60q0 -35 -24.5 -58.5t-59.5 -23.5q-34 0 -58 24t-24 58zM480 230q0 35 23.5 59.5t58.5 24.5q36 0 60 -24t24 -60q0 -35 -24.5 -58.5t-59.5 -23.5q-34 0 -58 24t-24 58z" />
  </font>
</defs>
</svg>
