<svg xmlns="http://www.w3.org/2000/svg" style="display:none">
  <!-- ANHAD Complete Icon System — Item 49 -->
  <!-- 24x24 viewBox, stroke-based, strokeWidth 1.5, round caps/joins -->

  <symbol id="icon-home" viewBox="0 0 24 24" fill="none" stroke="currentColor" stroke-width="1.5" stroke-linecap="round" stroke-linejoin="round">
    <path d="M3 10.5L12 3l9 7.5V20a1 1 0 01-1 1h-5v-5a1 1 0 00-1-1h-2a1 1 0 00-1 1v5H6a1 1 0 01-1-1v-9.5z"/>
  </symbol>

  <symbol id="icon-radio" viewBox="0 0 24 24" fill="none" stroke="currentColor" stroke-width="1.5" stroke-linecap="round" stroke-linejoin="round">
    <circle cx="12" cy="12" r="2"/>
    <path d="M16.24 7.76a6 6 0 010 8.49M7.76 16.24a6 6 0 010-8.49"/>
    <path d="M19.07 4.93a10 10 0 010 14.14M4.93 19.07a10 10 0 010-14.14"/>
  </symbol>

  <symbol id="icon-book" viewBox="0 0 24 24" fill="none" stroke="currentColor" stroke-width="1.5" stroke-linecap="round" stroke-linejoin="round">
    <path d="M4 19.5A2.5 2.5 0 016.5 17H20"/>
    <path d="M6.5 2H20v20H6.5A2.5 2.5 0 014 19.5v-15A2.5 2.5 0 016.5 2z"/>
    <path d="M8 7h8M8 11h6"/>
  </symbol>

  <symbol id="icon-search" viewBox="0 0 24 24" fill="none" stroke="currentColor" stroke-width="1.5" stroke-linecap="round" stroke-linejoin="round">
    <circle cx="11" cy="11" r="7"/>
    <path d="M21 21l-4.35-4.35"/>
  </symbol>

  <symbol id="icon-person" viewBox="0 0 24 24" fill="none" stroke="currentColor" stroke-width="1.5" stroke-linecap="round" stroke-linejoin="round">
    <circle cx="12" cy="8" r="4"/>
    <path d="M20 21a8 8 0 10-16 0"/>
  </symbol>

  <symbol id="icon-bell" viewBox="0 0 24 24" fill="none" stroke="currentColor" stroke-width="1.5" stroke-linecap="round" stroke-linejoin="round">
    <path d="M18 8A6 6 0 006 8c0 7-3 9-3 9h18s-3-2-3-9"/>
    <path d="M13.73 21a2 2 0 01-3.46 0"/>
  </symbol>

  <symbol id="icon-heart" viewBox="0 0 24 24" fill="none" stroke="currentColor" stroke-width="1.5" stroke-linecap="round" stroke-linejoin="round">
    <path d="M20.84 4.61a5.5 5.5 0 00-7.78 0L12 5.67l-1.06-1.06a5.5 5.5 0 00-7.78 7.78l1.06 1.06L12 21.23l7.78-7.78 1.06-1.06a5.5 5.5 0 000-7.78z"/>
  </symbol>

  <symbol id="icon-heart-filled" viewBox="0 0 24 24" fill="currentColor" stroke="none">
    <path d="M20.84 4.61a5.5 5.5 0 00-7.78 0L12 5.67l-1.06-1.06a5.5 5.5 0 00-7.78 7.78l1.06 1.06L12 21.23l7.78-7.78 1.06-1.06a5.5 5.5 0 000-7.78z"/>
  </symbol>

  <symbol id="icon-play" viewBox="0 0 24 24" fill="currentColor" stroke="none">
    <path d="M8 5.14v13.72a1 1 0 001.5.86l11.04-6.86a1 1 0 000-1.72L9.5 4.28A1 1 0 008 5.14z"/>
  </symbol>

  <symbol id="icon-pause" viewBox="0 0 24 24" fill="currentColor" stroke="none">
    <rect x="6" y="4" width="4" height="16" rx="1"/><rect x="14" y="4" width="4" height="16" rx="1"/>
  </symbol>

  <symbol id="icon-share" viewBox="0 0 24 24" fill="none" stroke="currentColor" stroke-width="1.5" stroke-linecap="round" stroke-linejoin="round">
    <circle cx="18" cy="5" r="3"/><circle cx="6" cy="12" r="3"/><circle cx="18" cy="19" r="3"/>
    <path d="M8.59 13.51l6.83 3.98M15.41 6.51l-6.82 3.98"/>
  </symbol>

  <symbol id="icon-bookmark" viewBox="0 0 24 24" fill="none" stroke="currentColor" stroke-width="1.5" stroke-linecap="round" stroke-linejoin="round">
    <path d="M19 21l-7-5-7 5V5a2 2 0 012-2h10a2 2 0 012 2z"/>
  </symbol>

  <symbol id="icon-settings" viewBox="0 0 24 24" fill="none" stroke="currentColor" stroke-width="1.5" stroke-linecap="round" stroke-linejoin="round">
    <circle cx="12" cy="12" r="3"/>
    <path d="M19.4 15a1.65 1.65 0 00.33 1.82l.06.06a2 2 0 01-2.83 2.83l-.06-.06a1.65 1.65 0 00-1.82-.33 1.65 1.65 0 00-1 1.51V21a2 2 0 01-4 0v-.09A1.65 1.65 0 009 19.4a1.65 1.65 0 00-1.82.33l-.06.06a2 2 0 01-2.83-2.83l.06-.06A1.65 1.65 0 004.68 15a1.65 1.65 0 00-1.51-1H3a2 2 0 010-4h.09A1.65 1.65 0 004.6 9a1.65 1.65 0 00-.33-1.82l-.06-.06a2 2 0 012.83-2.83l.06.06A1.65 1.65 0 009 4.68a1.65 1.65 0 001-1.51V3a2 2 0 014 0v.09a1.65 1.65 0 001 1.51 1.65 1.65 0 001.82-.33l.06-.06a2 2 0 012.83 2.83l-.06.06A1.65 1.65 0 0019.4 9a1.65 1.65 0 001.51 1H21a2 2 0 010 4h-.09a1.65 1.65 0 00-1.51 1z"/>
  </symbol>

  <symbol id="icon-mic" viewBox="0 0 24 24" fill="none" stroke="currentColor" stroke-width="1.5" stroke-linecap="round" stroke-linejoin="round">
    <rect x="9" y="2" width="6" height="12" rx="3"/>
    <path d="M19 10v2a7 7 0 01-14 0v-2"/>
    <line x1="12" y1="19" x2="12" y2="22"/>
    <line x1="8" y1="22" x2="16" y2="22"/>
  </symbol>

  <symbol id="icon-arrow-right" viewBox="0 0 24 24" fill="none" stroke="currentColor" stroke-width="1.5" stroke-linecap="round" stroke-linejoin="round">
    <path d="M5 12h14M12 5l7 7-7 7"/>
  </symbol>

  <symbol id="icon-arrow-left" viewBox="0 0 24 24" fill="none" stroke="currentColor" stroke-width="1.5" stroke-linecap="round" stroke-linejoin="round">
    <path d="M19 12H5M12 19l-7-7 7-7"/>
  </symbol>

  <symbol id="icon-close" viewBox="0 0 24 24" fill="none" stroke="currentColor" stroke-width="1.5" stroke-linecap="round" stroke-linejoin="round">
    <line x1="18" y1="6" x2="6" y2="18"/><line x1="6" y1="6" x2="18" y2="18"/>
  </symbol>

  <symbol id="icon-menu" viewBox="0 0 24 24" fill="none" stroke="currentColor" stroke-width="1.5" stroke-linecap="round" stroke-linejoin="round">
    <line x1="3" y1="6" x2="21" y2="6"/><line x1="3" y1="12" x2="21" y2="12"/><line x1="3" y1="18" x2="21" y2="18"/>
  </symbol>

  <symbol id="icon-flame" viewBox="0 0 24 24" fill="none" stroke="currentColor" stroke-width="1.5" stroke-linecap="round" stroke-linejoin="round">
    <path d="M12 22c4-3 7-6.5 7-10.5C19 7 15 2 12 2 9 2 5 7 5 11.5 5 15.5 8 19 12 22z"/>
    <path d="M12 22c-1.5-1.5-3-3.5-3-6 0-2 1.5-4 3-5 1.5 1 3 3 3 5 0 2.5-1.5 4.5-3 6z"/>
  </symbol>

  <symbol id="icon-star" viewBox="0 0 24 24" fill="none" stroke="currentColor" stroke-width="1.5" stroke-linecap="round" stroke-linejoin="round">
    <polygon points="12 2 15.09 8.26 22 9.27 17 14.14 18.18 21.02 12 17.77 5.82 21.02 7 14.14 2 9.27 8.91 8.26 12 2"/>
  </symbol>

  <symbol id="icon-calendar" viewBox="0 0 24 24" fill="none" stroke="currentColor" stroke-width="1.5" stroke-linecap="round" stroke-linejoin="round">
    <rect x="3" y="4" width="18" height="18" rx="2"/><line x1="16" y1="2" x2="16" y2="6"/><line x1="8" y1="2" x2="8" y2="6"/><line x1="3" y1="10" x2="21" y2="10"/>
  </symbol>

  <symbol id="icon-clock" viewBox="0 0 24 24" fill="none" stroke="currentColor" stroke-width="1.5" stroke-linecap="round" stroke-linejoin="round">
    <circle cx="12" cy="12" r="10"/><polyline points="12 6 12 12 16 14"/>
  </symbol>

  <symbol id="icon-volume" viewBox="0 0 24 24" fill="none" stroke="currentColor" stroke-width="1.5" stroke-linecap="round" stroke-linejoin="round">
    <polygon points="11 5 6 9 2 9 2 15 6 15 11 19 11 5"/><path d="M19.07 4.93a10 10 0 010 14.14M15.54 8.46a5 5 0 010 7.07"/>
  </symbol>

  <symbol id="icon-repeat" viewBox="0 0 24 24" fill="none" stroke="currentColor" stroke-width="1.5" stroke-linecap="round" stroke-linejoin="round">
    <polyline points="17 1 21 5 17 9"/><path d="M3 11V9a4 4 0 014-4h14"/><polyline points="7 23 3 19 7 15"/><path d="M21 13v2a4 4 0 01-4 4H3"/>
  </symbol>

  <symbol id="icon-shuffle" viewBox="0 0 24 24" fill="none" stroke="currentColor" stroke-width="1.5" stroke-linecap="round" stroke-linejoin="round">
    <polyline points="16 3 21 3 21 8"/><line x1="4" y1="20" x2="21" y2="3"/><polyline points="21 16 21 21 16 21"/><line x1="15" y1="15" x2="21" y2="21"/><line x1="4" y1="4" x2="9" y2="9"/>
  </symbol>

  <symbol id="icon-scroll" viewBox="0 0 24 24" fill="none" stroke="currentColor" stroke-width="1.5" stroke-linecap="round" stroke-linejoin="round">
    <path d="M8 21h12a2 2 0 002-2v-2H10v2a2 2 0 01-2 2zM6 3a2 2 0 00-2 2v14a2 2 0 002 2h2V5a2 2 0 00-2-2z"/>
    <path d="M8 3h12a2 2 0 012 2v12H8V3z"/><line x1="12" y1="8" x2="18" y2="8"/><line x1="12" y1="12" x2="16" y2="12"/>
  </symbol>

  <symbol id="icon-hands-praying" viewBox="0 0 24 24" fill="none" stroke="currentColor" stroke-width="1.5" stroke-linecap="round" stroke-linejoin="round">
    <path d="M7 21l3-9 2-4 2 4 3 9"/><path d="M12 8V3"/><path d="M5 14h14"/><path d="M7 17h10"/>
  </symbol>

  <symbol id="icon-magnifying-glass" viewBox="0 0 24 24" fill="none" stroke="currentColor" stroke-width="1.5" stroke-linecap="round" stroke-linejoin="round">
    <circle cx="11" cy="11" r="7"/><path d="M21 21l-4.35-4.35"/>
  </symbol>

  <symbol id="icon-lotus" viewBox="0 0 24 24" fill="none" stroke="currentColor" stroke-width="1.5" stroke-linecap="round" stroke-linejoin="round">
    <path d="M12 22c0-5-4-8-4-12a4 4 0 018 0c0 4-4 7-4 12z"/>
    <path d="M8 14s-4-1-6 2c2 1 5 0 6-2z"/><path d="M16 14s4-1 6 2c-2 1-5 0-6-2z"/>
    <path d="M6 10s-3-2-5 0c1 2 4 2 5 0z"/><path d="M18 10s3-2 5 0c-1 2-4 2-5 0z"/>
  </symbol>

  <symbol id="icon-broadcast" viewBox="0 0 24 24" fill="none" stroke="currentColor" stroke-width="1.5" stroke-linecap="round" stroke-linejoin="round">
    <circle cx="12" cy="12" r="2"/><path d="M16.24 7.76a6 6 0 010 8.49"/><path d="M7.76 16.24a6 6 0 010-8.49"/>
    <line x1="12" y1="14" x2="12" y2="22"/>
    <line x1="8" y1="22" x2="16" y2="22"/>
  </symbol>

  <symbol id="icon-expand" viewBox="0 0 24 24" fill="none" stroke="currentColor" stroke-width="1.5" stroke-linecap="round" stroke-linejoin="round">
    <polyline points="15 3 21 3 21 9"/><polyline points="9 21 3 21 3 15"/><line x1="21" y1="3" x2="14" y2="10"/><line x1="3" y1="21" x2="10" y2="14"/>
  </symbol>

  <symbol id="icon-chevron-right" viewBox="0 0 24 24" fill="none" stroke="currentColor" stroke-width="1.5" stroke-linecap="round" stroke-linejoin="round">
    <polyline points="9 18 15 12 9 6"/>
  </symbol>

  <symbol id="icon-download" viewBox="0 0 24 24" fill="none" stroke="currentColor" stroke-width="1.5" stroke-linecap="round" stroke-linejoin="round">
    <path d="M21 15v4a2 2 0 01-2 2H5a2 2 0 01-2-2v-4"/><polyline points="7 10 12 15 17 10"/><line x1="12" y1="15" x2="12" y2="3"/>
  </symbol>

  <symbol id="icon-chat" viewBox="0 0 24 24" fill="none" stroke="currentColor" stroke-width="1.5" stroke-linecap="round" stroke-linejoin="round">
    <path d="M21 15a2 2 0 01-2 2H7l-4 4V5a2 2 0 012-2h14a2 2 0 012 2z"/>
  </symbol>

  <symbol id="icon-khanda" viewBox="0 0 24 24" fill="none" stroke="currentColor" stroke-width="1.5" stroke-linecap="round" stroke-linejoin="round">
    <line x1="12" y1="2" x2="12" y2="22"/><circle cx="12" cy="12" r="4"/>
    <path d="M7 9Q5 12 7 15"/><path d="M17 9Q19 12 17 15"/>
  </symbol>
</svg>
